<svg width="14" height="10" viewBox="0 0 14 10" fill="none" xmlns="http://www.w3.org/2000/svg">
<path fill-rule="evenodd" clip-rule="evenodd" d="M8.3226 0.387101L8.40579 0.292893C8.76628 -0.0675905 9.33351 -0.0953204 9.7258 0.209704L9.82001 0.292893L13.7071 4.17998L13.7485 4.22394L13.8037 4.29178L13.8753 4.40303L13.9288 4.51575L13.9642 4.62109L13.9931 4.76899L14 4.88709L13.9972 4.96233L13.9798 5.08781L13.9503 5.19923L13.9063 5.31031L13.854 5.4078L13.7803 5.51254L13.7071 5.5942L9.5942 9.70709C9.20367 10.0976 8.57051 10.0976 8.17998 9.70709C7.8195 9.34661 7.79177 8.77938 8.0968 8.38708L8.17998 8.29288L10.584 5.88709H1C0.447715 5.88709 0 5.43937 0 4.88709C0 4.3348 0.447715 3.88709 1 3.88709H10.586L8.40579 1.70711C8.04531 1.34662 8.01758 0.779392 8.3226 0.387101Z" fill="#D0D0DB"/>
</svg>
