<svg width="24" height="24" viewBox="0 0 24 24" fill="none" xmlns="http://www.w3.org/2000/svg">
<path fill-rule="evenodd" clip-rule="evenodd" d="M13.3226 7.3871L13.4058 7.29289C13.7663 6.93241 14.3335 6.90468 14.7258 7.2097L14.82 7.29289L18.7071 11.18L18.7485 11.2239L18.8037 11.2918L18.8753 11.403L18.9288 11.5158L18.9642 11.6211L18.9931 11.769L19 11.8871L18.9972 11.9623L18.9798 12.0878L18.9503 12.1992L18.9063 12.3103L18.854 12.4078L18.7803 12.5125L18.7071 12.5942L14.5942 16.7071C14.2037 17.0976 13.5705 17.0976 13.18 16.7071C12.8195 16.3466 12.7918 15.7794 13.0968 15.3871L13.18 15.2929L15.584 12.8871H6C5.44772 12.8871 5 12.4394 5 11.8871C5 11.3348 5.44772 10.8871 6 10.8871H15.586L13.4058 8.70711C13.0453 8.34662 13.0176 7.77939 13.3226 7.3871Z" fill="#D0D0DB"/>
</svg>
