<svg width="14" height="10" viewBox="0 0 14 10" fill="none" xmlns="http://www.w3.org/2000/svg">
    <path fill-rule="evenodd" clip-rule="evenodd" d="M5.6774 0.387101L5.59421 0.292893C5.23372 -0.0675905 4.66649 -0.0953204 4.2742 0.209704L4.17999 0.292893L0.292892 4.17998L0.251495 4.22394L0.196335 4.29178L0.124672 4.40303L0.0712261 4.51575L0.0358448 4.62109L0.00690651 4.76899L0 4.88709L0.00278854 4.96233L0.0202408 5.08781L0.0497379 5.19923L0.0936737 5.31031L0.145996 5.4078L0.219688 5.51254L0.292892 5.5942L4.4058 9.70709C4.79633 10.0976 5.42949 10.0976 5.82002 9.70709C6.1805 9.34661 6.20823 8.77938 5.9032 8.38708L5.82002 8.29288L3.416 5.88709H13C13.5523 5.88709 14 5.43937 14 4.88709C14 4.3348 13.5523 3.88709 13 3.88709H3.414L5.59421 1.70711C5.95469 1.34662 5.98242 0.779392 5.6774 0.387101Z" fill="#D0D0DB"/>
</svg>
