<svg width="24" height="24" viewBox="0 0 24 24" fill="none" xmlns="http://www.w3.org/2000/svg">
    <path d="M10.337 14.4545C10.0683 14.7233 10.0683 15.159 10.337 15.4278L11.3119 16.4027V21.4116C11.3119 21.7917 11.62 22.0999 12.0001 22.0999C12.3802 22.0999 12.6884 21.7917 12.6884 21.4116V16.4027L13.6632 15.4278C13.932 15.159 13.932 14.7233 13.6632 14.4545C13.3945 14.1857 12.9587 14.1857 12.6899 14.4545L12.0001 15.1443L11.3103 14.4545C11.0415 14.1857 10.6058 14.1857 10.337 14.4545ZM6.98559 22.0405C7.33293 21.8862 7.48937 21.4795 7.335 21.1321C6.59146 19.4592 6.21786 17.5938 6.21786 15.5294C6.21786 14.2967 6.50862 13.3019 7.34281 11.2686C7.67814 10.4512 7.77199 10.2175 7.91845 9.81932C8.35087 8.64365 8.57077 7.68353 8.57077 6.70596C8.57077 4.69991 8.4703 3.27823 8.25611 2.42146C8.16392 2.05271 7.79027 1.8285 7.42151 1.92069C7.05277 2.01287 6.82855 2.38653 6.92074 2.75528C7.09865 3.46691 7.19431 4.78999 7.19431 6.70596C7.19431 7.48942 7.011 8.2991 6.62661 9.34415C6.48857 9.71944 6.39852 9.94381 6.06936 10.7462C5.17691 12.9215 4.84141 14.0542 4.84141 15.5294C4.84141 17.7787 5.25214 19.8348 6.07717 21.6911C6.23154 22.0385 6.63826 22.1949 6.98559 22.0405ZM17.7824 15.5294C17.7824 17.5938 17.4088 19.4592 16.6653 21.1321C16.5109 21.4795 16.6673 21.8862 17.0147 22.0405C17.362 22.1949 17.7687 22.0385 17.9231 21.6911C18.7481 19.8348 19.1588 17.7787 19.1588 15.5294C19.1588 14.0542 18.8233 12.9215 17.9309 10.7462C17.6017 9.94381 17.5117 9.71944 17.3736 9.34415C16.9893 8.2991 16.8059 7.48942 16.8059 6.70596C16.8059 4.78999 16.9016 3.46691 17.0795 2.75528C17.1717 2.38653 16.9475 2.01287 16.5787 1.92069C16.21 1.8285 15.8363 2.05271 15.7441 2.42146C15.5299 3.27823 15.4295 4.69991 15.4295 6.70596C15.4295 7.68353 15.6494 8.64365 16.0818 9.81932C16.2283 10.2175 16.3221 10.4512 16.6574 11.2686C17.4916 13.3019 17.7824 14.2967 17.7824 15.5294ZM12.0001 10.3353C12.3802 10.3353 12.6884 10.0272 12.6884 9.64709V9.64263C12.6884 9.26253 12.3802 8.9544 12.0001 8.9544C11.62 8.9544 11.3119 9.26253 11.3119 9.64263V9.64709C11.3119 10.0272 11.62 10.3353 12.0001 10.3353Z" fill="#FF005D" stroke="#FF005D" stroke-width="0.2"/>
</svg>
