<svg width="24" height="24" viewBox="0 0 24 24" fill="none" xmlns="http://www.w3.org/2000/svg">
    <path d="M20.3346 5.89167V15.95C20.3346 16.75 19.6846 17.5 18.8846 17.6L18.6096 17.6334C16.793 17.875 13.9929 18.8 12.3929 19.6833C12.1763 19.8083 11.818 19.8083 11.593 19.6833L11.5596 19.6667C9.95961 18.7917 7.16799 17.875 5.35966 17.6334L5.11796 17.6C4.31796 17.5 3.66797 16.75 3.66797 15.95V5.88333C3.66797 4.89167 4.47628 4.14167 5.46795 4.22501C7.21795 4.36667 9.86794 5.25003 11.3513 6.17503L11.5596 6.3C11.8013 6.45 12.2013 6.45 12.443 6.3L12.5846 6.20834C13.1096 5.88334 13.7763 5.55834 14.5013 5.26667V8.66669L16.168 7.55834L17.8346 8.66669V4.31671C18.0596 4.27505 18.2763 4.25002 18.4763 4.23335H18.5263C19.518 4.15002 20.3346 4.89167 20.3346 5.89167Z"  stroke-width="1.5" stroke-linecap="round" stroke-linejoin="round"/>
    <path d="M12 6.57499V19.075" stroke-width="1.5" stroke-linecap="round" stroke-linejoin="round"/>
    <path d="M17.8333 4.31669V8.66666L16.1667 7.55832L14.5 8.66666V5.26665C15.5917 4.83332 16.8083 4.48336 17.8333 4.31669Z"    stroke-width="1.5" stroke-linecap="round" stroke-linejoin="round"/>
</svg>
