<svg width="24" height="24" viewBox="0 0 24 24" fill="none" xmlns="http://www.w3.org/2000/svg">
    <path d="M12.8306 19.4995C12.8306 19.039 12.4563 18.666 11.9973 18.666C11.5366 18.666 11.1641 19.039 11.1641 19.4995C11.1641 19.96 11.5376 20.333 11.9973 20.333C12.4581 20.333 12.8316 19.96 12.8306 19.4995Z" fill="#0077ED"/>
    <path d="M20.1424 8.55714C20.1424 8.557 20.1423 8.55687 20.1422 8.55694V8.55694C20.142 8.55701 20.1419 8.55683 20.142 8.55669C20.7815 7.71704 21.1655 6.67225 21.1655 5.53525C21.1655 4.45427 20.822 3.45318 20.2385 2.63515C19.9713 2.26058 19.437 2.26373 19.1116 2.58904V2.58904C18.7862 2.91442 18.7975 3.43873 19.0327 3.83428C19.3289 4.33233 19.4988 4.91396 19.4988 5.53525C19.4988 7.376 18.0063 8.8685 16.1655 8.8685C14.6095 8.8685 13.3021 7.80194 12.9349 6.36006C12.8213 5.9141 12.459 5.53525 11.9988 5.53525V5.53525C11.5386 5.53525 11.1762 5.9141 11.0627 6.36006C10.6955 7.80194 9.3881 8.8685 7.83203 8.8685C5.99128 8.8685 4.49878 7.376 4.49878 5.53525C4.49828 4.91415 4.66834 4.33258 4.96445 3.83455C5.19963 3.43899 5.21081 2.91478 4.8854 2.58937V2.58937C4.5599 2.26387 4.02538 2.26065 3.75806 2.63541C3.17458 3.4534 2.83144 4.45439 2.83203 5.53525C2.83203 6.62126 3.18235 7.62287 3.77058 8.44267C3.82712 8.52146 3.87519 8.60652 3.90866 8.69754C5.36926 12.6696 5.30376 16.8588 3.9658 20.5849C3.81029 21.018 4.0101 21.5048 4.4352 21.681V21.681C4.86036 21.8572 5.3497 21.6558 5.50732 21.2234C6.8059 17.661 6.99514 13.8623 6.11003 10.2242C6.64778 10.422 7.22653 10.5352 7.83203 10.5352C9.57203 10.5352 11.1035 9.64525 11.9988 8.29675C12.894 9.64525 14.4255 10.5352 16.1655 10.5352C16.7725 10.5352 17.351 10.4218 17.8893 10.2235C17.0026 13.863 17.1903 17.6611 18.4871 21.2229C18.6446 21.6555 19.1342 21.857 19.5595 21.6807V21.6807C19.9845 21.5045 20.1843 21.0177 20.0286 20.5848C18.5798 16.5556 18.7252 12.3123 20.1424 8.55714Z" fill="#0077ED"/>
</svg>
