<svg width="24" height="24" viewBox="0 0 24 24" fill="none" xmlns="http://www.w3.org/2000/svg">
    <path d="M12.8325 19.5C12.8325 19.0395 12.4583 18.6665 11.9993 18.6665C11.5385 18.6665 11.166 19.0395 11.166 19.5C11.166 19.9605 11.5395 20.3335 11.9993 20.3335C12.46 20.3335 12.8335 19.9605 12.8325 19.5Z" fill="#FF005D"/>
    <path d="M20.1434 8.55714C20.1434 8.557 20.1433 8.55687 20.1431 8.55694C20.143 8.55701 20.1428 8.55683 20.1429 8.55669C20.7824 7.71704 21.1665 6.67225 21.1665 5.53525C21.1665 4.45427 20.823 3.45318 20.2395 2.63515C19.9722 2.26058 19.438 2.26373 19.1126 2.58904C18.7871 2.91442 18.7985 3.43873 19.0337 3.83428C19.3299 4.33233 19.4998 4.91396 19.4998 5.53525C19.4998 7.376 18.0073 8.8685 16.1665 8.8685C14.6104 8.8685 13.3031 7.80194 12.9359 6.36006C12.8223 5.9141 12.46 5.53525 11.9998 5.53525C11.5396 5.53525 11.1772 5.9141 11.0636 6.36006C10.6965 7.80194 9.38908 8.8685 7.83301 8.8685C5.99226 8.8685 4.49976 7.376 4.49976 5.53525C4.49925 4.91415 4.66932 4.33258 4.96543 3.83455C5.20061 3.43899 5.21179 2.91478 4.88638 2.58937C4.56088 2.26387 4.02635 2.26065 3.75903 2.63541C3.17555 3.4534 2.83242 4.45439 2.83301 5.53525C2.83301 6.62126 3.18333 7.62287 3.77156 8.44267C3.8281 8.52146 3.87616 8.60652 3.90963 8.69754C5.37024 12.6696 5.30474 16.8588 3.96678 20.5849C3.81127 21.018 4.01108 21.5048 4.43617 21.681C4.86133 21.8572 5.35068 21.6558 5.5083 21.2234C6.80688 17.661 6.99612 13.8623 6.11101 10.2242C6.64876 10.422 7.22751 10.5352 7.83301 10.5352C9.57301 10.5352 11.1045 9.64525 11.9998 8.29675C12.895 9.64525 14.4265 10.5352 16.1665 10.5352C16.7735 10.5352 17.352 10.4218 17.8903 10.2235C17.0036 13.863 17.1913 17.6611 18.4881 21.2229C18.6456 21.6555 19.1352 21.857 19.5605 21.6807C19.9855 21.5045 20.1853 21.0177 20.0296 20.5848C18.5808 16.5556 18.7262 12.3123 20.1434 8.55714Z" fill="#FF005D"/>
</svg>
