<svg width="18" height="19" viewBox="0 0 18 19" fill="none" xmlns="http://www.w3.org/2000/svg">
    <path d="M4.2841 9.50501C5.25301 8.68014 5.772 7.4394 5.67973 6.17107C6.94213 6.25694 8.17701 5.73767 8.99856 4.76991C9.82883 5.73491 11.073 6.24767 12.342 6.14797C12.242 7.42122 12.7585 8.66921 13.7292 9.4993C12.7648 10.3296 12.2524 11.5734 12.352 12.842C11.0861 12.7426 9.84509 13.2526 9.015 14.2126C8.18501 13.2527 6.94448 12.743 5.67951 12.8419C5.77282 11.5724 5.25363 10.3304 4.2841 9.50501Z" stroke="#0077ED" stroke-width="8" stroke-linecap="round" stroke-linejoin="round"/>
    <path d="M12 7.5L8 11.5" stroke="white" stroke-width="2" stroke-linecap="round" stroke-linejoin="round"/>
    <path d="M6 9.5L8 11.5" stroke="white" stroke-width="2" stroke-linecap="round" stroke-linejoin="round"/>
</svg>
