<svg width="10" height="10" viewBox="0 0 10 10" fill="none" xmlns="http://www.w3.org/2000/svg">
    <path fill-rule="evenodd" clip-rule="evenodd" d="M0.967189 7.68408C1.05941 8.00638 1.23117 8.30032 1.46667 8.53889C1.70637 8.77807 2.00287 8.95248 2.32839 9.04576C2.65391 9.13904 2.99778 9.14815 3.32778 9.07223C3.50685 9.35422 3.75371 9.58687 4.04582 9.74893C4.33792 9.91099 4.66596 9.99731 5 10C5.33687 10.0001 5.6683 9.91512 5.96355 9.75292C6.2588 9.59073 6.50829 9.35659 6.68889 9.07223C7.01779 9.14592 7.35997 9.13529 7.68366 9.04134C8.00735 8.94739 8.30205 8.77316 8.54038 8.53483C8.77871 8.2965 8.95294 8.0018 9.0469 7.67811C9.14085 7.35442 9.15147 7.01223 9.07778 6.68334C9.36032 6.50259 9.59286 6.25369 9.75402 5.95953C9.91518 5.66537 9.99976 5.33541 10 5C10.0001 4.66314 9.91511 4.33171 9.75292 4.03646C9.59073 3.74121 9.35659 3.49171 9.07222 3.31111C9.14592 2.98222 9.13529 2.64003 9.04134 2.31634C8.94739 1.99265 8.77316 1.69795 8.53482 1.45962C8.29649 1.22129 8.0018 1.04706 7.67811 0.953107C7.35441 0.859155 7.01223 0.848532 6.68333 0.922224C6.50259 0.639684 6.25368 0.407138 5.95953 0.245983C5.66537 0.0848281 5.33541 0.000239991 5 0C4.66168 -0.000443672 4.32877 0.0849438 4.03243 0.248175C3.73609 0.411406 3.486 0.647145 3.30556 0.933335C3.14189 0.893845 2.9739 0.875179 2.80556 0.87778C2.29897 0.896596 1.81843 1.10708 1.46111 1.46667C1.22659 1.70579 1.05587 1.99998 0.964624 2.32225C0.873379 2.64452 0.864531 2.98454 0.938889 3.31111C0.652464 3.49039 0.41613 3.73931 0.251946 4.03465C0.0877634 4.32998 0.00108431 4.6621 0 5C0.000145025 5.33885 0.0863772 5.6721 0.250604 5.96848C0.414831 6.26487 0.651668 6.51467 0.938889 6.69445C0.865235 7.02148 0.874966 7.36179 0.967189 7.68408Z" fill="#0077ED"/>
    <path d="M6.66754 3.88892L4.44531 6.11114" stroke="white" stroke-width="1.5" stroke-linecap="round" stroke-linejoin="round"/>
    <path d="M3.33203 5L4.44314 6.11111" stroke="white" stroke-width="1.5" stroke-linecap="round" stroke-linejoin="round"/>
</svg>
