<svg width="24" height="24" viewBox="0 0 24 24" fill="none" xmlns="http://www.w3.org/2000/svg">
    <path d="M14.9339 8.85077V6.93526C14.9336 6.54533 14.7786 6.17146 14.503 5.89561C14.2274 5.61976 13.8537 5.46444 13.4638 5.46371H12.6938V3.44432H14.2432C14.4272 3.44432 14.6036 3.37126 14.7336 3.2412C14.8637 3.11115 14.9367 2.93477 14.9367 2.75085C14.9367 2.56693 14.8637 2.39054 14.7336 2.26049C14.6036 2.13044 14.4272 2.05737 14.2432 2.05737H9.86022C9.12589 2.05791 8.40738 2.27075 7.79123 2.67025C7.17508 3.06975 6.68758 3.63888 6.38745 4.30908L6.27511 4.56026C6.19993 4.7281 6.1945 4.91894 6.26002 5.09079C6.32554 5.26264 6.45664 5.40142 6.62448 5.47661C6.71362 5.51617 6.81004 5.53667 6.90756 5.5368C7.04138 5.53685 7.17235 5.49811 7.28462 5.42528C7.39689 5.35244 7.48564 5.24863 7.54014 5.12641L7.65248 4.87523C7.84352 4.44939 8.15351 4.0878 8.54517 3.83395C8.93684 3.5801 9.39349 3.4448 9.86022 3.44432H11.3068V5.46371H10.5375C10.1475 5.46444 9.77382 5.61976 9.49823 5.89561C9.22264 6.17146 9.06767 6.54533 9.06731 6.93526V8.85077C8.14976 8.85407 7.27085 9.22061 6.62284 9.87021C5.97482 10.5198 5.61043 11.3996 5.60938 12.3172V19.8621C5.60996 20.4137 5.82934 20.9425 6.21936 21.3326C6.60939 21.7226 7.13821 21.942 7.68979 21.9426H16.3122C16.8637 21.942 17.3926 21.7226 17.7826 21.3326C18.1726 20.9425 18.392 20.4137 18.3926 19.8621V12.3172C18.3915 11.3995 18.027 10.5196 17.3789 9.86996C16.7307 9.22034 15.8516 8.85389 14.9339 8.85077ZM13.547 6.93526V8.84924H10.4753L10.5375 6.8501L13.547 6.93526ZM17.0049 19.8627C17.0047 20.0466 16.9316 20.2228 16.8016 20.3528C16.6716 20.4828 16.4953 20.556 16.3115 20.5562H7.6891C7.50525 20.556 7.32899 20.4828 7.19898 20.3528C7.06898 20.2228 6.99585 20.0466 6.99563 19.8627V12.3177C6.99625 11.7661 7.21564 11.2373 7.60566 10.8473C7.99568 10.4573 8.52448 10.2379 9.07605 10.2373H9.72985C9.74039 10.2373 9.74927 10.2434 9.76009 10.2434C9.7709 10.2434 9.77964 10.2379 9.79032 10.2373H14.2102C14.2209 10.2373 14.2298 10.2434 14.2405 10.2434C14.2512 10.2434 14.2602 10.2379 14.2707 10.2373H14.9245C15.4761 10.2379 16.0049 10.4573 16.3949 10.8473C16.7849 11.2373 17.0043 11.7661 17.0049 12.3177V19.8627ZM14.013 15.3967C14.013 15.5807 13.94 15.757 13.8099 15.8871C13.6799 16.0171 13.5035 16.0902 13.3195 16.0902H12.6938V16.7153C12.6938 16.8992 12.6207 17.0756 12.4906 17.2057C12.3606 17.3357 12.1842 17.4088 12.0003 17.4088C11.8164 17.4088 11.64 17.3357 11.5099 17.2057C11.3799 17.0756 11.3068 16.8992 11.3068 16.7153V16.0902H10.681C10.4971 16.0902 10.3207 16.0171 10.1907 15.8871C10.0606 15.757 9.98755 15.5807 9.98755 15.3967C9.98755 15.2128 10.0606 15.0364 10.1907 14.9064C10.3207 14.7763 10.4971 14.7033 10.681 14.7033H11.3068V14.0779C11.3068 13.894 11.3799 13.7176 11.5099 13.5875C11.64 13.4575 11.8164 13.3844 12.0003 13.3844C12.1842 13.3844 12.3606 13.4575 12.4906 13.5875C12.6207 13.7176 12.6938 13.894 12.6938 14.0779V14.703H13.3195C13.4106 14.703 13.5008 14.7209 13.5849 14.7558C13.6691 14.7906 13.7455 14.8417 13.8099 14.9061C13.8743 14.9705 13.9254 15.0469 13.9602 15.1311C13.9951 15.2152 14.013 15.3054 14.013 15.3965V15.3967Z" fill="#0077ED"/>
</svg>
