<svg width="24" height="24" viewBox="0 0 24 24" fill="none" xmlns="http://www.w3.org/2000/svg">
    <path d="M13.3308 3.48358L7.49163 9.32277C6.32029 10.4942 5.47316 11.9585 5.04148 13.5583L4.71917 14.7537C4.46913 15.6822 3.97755 16.5319 3.29779 17.2117L2.77887 17.7306C1.89594 18.6135 1.7527 20.0043 2.4455 20.9667C2.87262 21.5599 3.5309 21.9336 4.25233 21.9915C4.31874 21.9974 4.38515 22 4.45155 22C5.10267 22 5.72776 21.7428 6.19134 21.2792L6.77801 20.6925C7.45842 20.0121 8.30812 19.5205 9.23662 19.2712L10.4327 18.9482C12.0319 18.5165 13.4962 17.6694 14.6676 16.4981L20.5061 10.6595C22.4849 8.68141 22.4849 5.46165 20.5061 3.48358C18.528 1.50547 15.3089 1.50547 13.3308 3.48358ZM19.5633 9.71669L13.7247 15.5553C12.7182 16.5619 11.4595 17.2898 10.085 17.6603L8.88959 17.9833C7.73647 18.2938 6.68037 18.9046 5.83519 19.7497L5.24857 20.3364C5.0148 20.5701 4.69575 20.6912 4.35977 20.6626C4.02445 20.6352 3.72883 20.4666 3.52766 20.1879C3.21252 19.7504 3.29585 19.0993 3.72167 18.6741L4.24063 18.1551C5.08511 17.31 5.69587 16.2539 6.00711 15.1008L6.32942 13.9053C6.6999 12.5308 7.42785 11.2722 8.43448 10.2656L14.2737 4.42641C15.0029 3.69716 15.9607 3.3325 16.9185 3.3325C17.8763 3.3325 18.8341 3.69716 19.5633 4.42641C21.0218 5.8849 21.0218 8.25819 19.5633 9.71669Z" fill="#0077ED"/>
    <path d="M11.595 9.2153L9.89169 10.9186C9.01527 11.795 9.01527 13.2216 9.89169 14.098C10.3299 14.5362 10.9061 14.7556 11.4817 14.7556C12.0573 14.7556 12.6335 14.5362 13.0717 14.098L14.7744 12.3953C15.6515 11.5189 15.6515 10.0917 14.7744 9.2153C13.8987 8.33888 12.4721 8.33888 11.595 9.2153ZM13.8316 11.4525L12.1289 13.1552C11.7721 13.512 11.1913 13.512 10.8345 13.1552C10.4777 12.7984 10.4777 12.2182 10.8345 11.8614L12.5378 10.1581C12.7162 9.97971 12.9506 9.89052 13.1844 9.89052C13.4188 9.89052 13.6532 9.97971 13.8316 10.1581C14.1884 10.5149 14.1884 11.0957 13.8316 11.4525Z" fill="#0077ED"/>
    <path d="M15.567 5.49558C14.7589 6.3036 14.7589 7.61817 15.567 8.42624C15.9707 8.83058 16.5013 9.0324 17.0326 9.0324C17.5633 9.0324 18.094 8.83058 18.4977 8.42624C19.3057 7.61817 19.3057 6.3036 18.4977 5.49558C17.6902 4.68686 16.3744 4.68816 15.567 5.49558ZM17.5548 7.48341C17.2664 7.77186 16.7969 7.77056 16.5098 7.48341C16.222 7.19495 16.222 6.72681 16.5098 6.43836C16.6537 6.29448 16.8431 6.22222 17.0326 6.22222C17.2214 6.22222 17.4109 6.29448 17.5548 6.43836C17.8426 6.72681 17.8426 7.19495 17.5548 7.48341Z" fill="#0077ED"/>
    <path d="M8.66938 14.533C8.40896 14.2725 7.98701 14.2725 7.72659 14.533C7.46614 14.7935 7.46614 15.2154 7.72659 15.4758L8.51118 16.2604C8.64139 16.3906 8.812 16.4557 8.98257 16.4557C9.15319 16.4557 9.32376 16.3906 9.45397 16.2604C9.71443 15.9999 9.71443 15.578 9.45397 15.3176L8.66938 14.533Z" fill="#0077ED"/>
</svg>
