<svg width="20" height="22" viewBox="0 0 20 22" fill="none" xmlns="http://www.w3.org/2000/svg">
    <path d="M10.7063 5.97117L10.7063 5.97123C11.3803 6.3769 12.1104 6.66706 12.8767 6.83382L12.8555 6.93153L12.8767 6.83382C13.1288 6.88867 13.3087 7.11188 13.3087 7.36974C13.3087 7.62761 13.1288 7.85082 12.8767 7.90566C10.1319 8.50307 7.97205 10.6631 7.37464 13.408C7.31978 13.6601 7.09676 13.8397 6.83872 13.8397C6.58093 13.8397 6.35766 13.6601 6.30279 13.408C5.70539 10.6631 3.54556 8.50309 0.800721 7.90567L10.7063 5.97117ZM10.7063 5.97117C10.447 5.8155 10.1097 5.89866 9.95352 6.15847C9.79713 6.41802 9.88115 6.75505 10.1405 6.91133L10.1405 6.91134M10.7063 5.97117L10.1405 6.91134M10.1405 6.91134C10.4242 7.0822 10.7166 7.23506 11.0166 7.36992C9.16308 8.20271 7.67127 9.6949 6.83849 11.5482C6.0057 9.69493 4.51354 8.20276 2.66027 7.36997C4.51377 6.53716 6.00595 5.04476 6.83874 3.19126C7.21266 4.02309 7.72386 4.79295 8.3544 5.46637L8.35441 5.46639M10.1405 6.91134L8.35441 5.46639M8.35441 5.46639C8.56138 5.68733 8.90857 5.69927 9.12975 5.49186L8.35441 5.46639ZM6.30279 1.33173C6.35766 1.07962 6.58093 0.9 6.83872 0.9C7.09676 0.9 7.31978 1.07965 7.37464 1.33172C7.64976 2.59585 8.2655 3.76618 9.15523 4.71652L6.30279 1.33173ZM6.30279 1.33173C6.30279 1.33172 6.3028 1.33172 6.3028 1.33172L6.40051 1.35299L6.30279 1.33173ZM6.30279 1.33173C5.70516 4.07656 3.54537 6.23658 0.800801 6.83402M6.30279 1.33173L0.800801 6.83402M0.800801 6.83402C0.54869 6.88861 0.36875 7.11164 0.36875 7.36974C0.36875 7.62755 0.548386 7.8508 0.800697 7.90566L0.800801 6.83402Z" fill="#0077ED" stroke="#0077ED" stroke-width="0.2"/>
    <path d="M12.8487 13.5528C13.1476 13.7122 13.4323 13.8984 13.6978 14.109L13.6978 14.109C13.9353 14.2974 13.9751 14.6424 13.7869 14.8797L13.7086 14.8175L13.787 14.8796C13.599 15.1172 13.2537 15.1572 13.0162 14.9688C12.474 14.5391 11.832 14.2347 11.1601 14.0884C11.1601 14.0884 11.1601 14.0884 11.1601 14.0884L11.1813 13.9907C10.9752 13.9458 10.8281 13.7633 10.8281 13.5525C10.8281 13.3417 10.975 13.1591 11.1811 13.1143C12.9571 12.7274 14.3544 11.3302 14.7411 9.55453C14.7859 9.34843 14.9685 9.20154 15.1793 9.20154C15.3903 9.20154 15.5726 9.34843 15.6175 9.55453L12.8487 13.5528ZM12.8487 13.5528C13.8377 13.0243 14.6508 12.2112 15.1795 11.2227C15.7078 12.2112 16.5207 13.024 17.5092 13.5525C16.5207 14.0808 15.7077 14.8939 15.1794 15.8821C15.1096 15.7517 15.0346 15.6236 14.9543 15.4981L14.9542 15.498C14.7908 15.2431 14.4515 15.1684 14.1964 15.3322C13.9414 15.4958 13.867 15.8348 14.0305 16.0901L14.0305 16.0901C14.3226 16.5459 14.5288 17.0444 14.6436 17.5719L14.7413 17.5506L14.6436 17.5719C14.6984 17.824 14.9217 18.0036 15.1795 18.0036C15.4375 18.0036 15.6606 17.824 15.7154 17.5719C16.0937 15.8342 17.461 14.4669 19.1987 14.0886L19.1988 14.0886C19.4503 14.0335 19.6302 13.8103 19.6302 13.5525C19.6302 13.2947 19.4506 13.0714 19.1985 13.0165C17.4608 12.638 16.0935 11.2707 15.7152 9.53326L12.8487 13.5528ZM14.6434 9.53326C14.265 11.2707 12.8975 12.638 11.1598 13.0165L14.6434 9.53326Z" fill="#0077ED" stroke="#0077ED" stroke-width="0.2"/>
    <path d="M10.835 17.4118L10.835 17.4118C9.74543 17.1748 8.88789 16.3173 8.65064 15.2272C8.59578 14.9751 8.37251 14.7955 8.11472 14.7955C7.85668 14.7955 7.63366 14.9752 7.5788 15.2272C7.34155 16.317 6.48401 17.1746 5.39444 17.4118C5.14241 17.4667 4.9625 17.6899 4.9625 17.9477C4.9625 18.2055 5.14211 18.4288 5.3942 18.4836C6.48402 18.7211 7.34156 19.5787 7.5788 20.6682C7.63366 20.9203 7.85668 21.0999 8.11472 21.0999C8.37251 21.0999 8.59577 20.9203 8.65064 20.6682C8.88788 19.5787 9.74542 18.7211 10.8352 18.4836C11.0873 18.4288 11.2669 18.2055 11.2669 17.9477C11.2669 17.6899 11.087 17.4667 10.835 17.4118ZM9.30889 17.9478C8.83034 18.2557 8.42239 18.6636 8.11452 19.1424C7.80682 18.6636 7.39888 18.2555 6.92016 17.9478C7.39887 17.6402 7.8068 17.2321 8.1145 16.7534C8.4222 17.2321 8.83016 17.6402 9.30889 17.9478Z" fill="#0077ED" stroke="#0077ED" stroke-width="0.2"/>
</svg>
