<svg width="24" height="24" viewBox="0 0 24 24" fill="none" xmlns="http://www.w3.org/2000/svg">
    <path d="M3.32031 8.49878C6.85191 8.23618 8.48973 4.72343 8.86719 2.99988C9.46888 6.8454 12.8882 8.26811 14.5227 8.49878C10.7666 8.9681 9.18731 12.3633 8.86719 14.0022C7.90837 9.94669 4.76977 8.64346 3.32031 8.49878Z" stroke="#0077ED" stroke-width="1.5" stroke-linejoin="round"/>
    <path d="M13.2578 14.5509C15.7317 14.367 16.8789 11.9063 17.1434 10.699C17.5648 13.3927 19.9601 14.3893 21.105 14.5509C18.4739 14.8797 17.3676 17.258 17.1434 18.406C16.4717 15.5652 14.2731 14.6523 13.2578 14.5509Z" stroke="#0077ED" stroke-width="1.5" stroke-linejoin="round"/>
    <path d="M7.45312 18.9467C9.13038 18.8219 9.90822 17.1536 10.0875 16.3351C10.3732 18.1614 11.9972 18.8371 12.7734 18.9467C10.9896 19.1696 10.2395 20.782 10.0875 21.5604C9.63212 19.6343 8.14151 19.0154 7.45312 18.9467Z" stroke="#0077ED" stroke-width="1.3" stroke-linejoin="round"/>
</svg>
