<svg width="20" height="10" viewBox="0 0 20 10" fill="none" xmlns="http://www.w3.org/2000/svg">
    <path d="M7.02493 4.28575H12.9773C13.1352 4.28575 13.2866 4.21049 13.3982 4.07654C13.5098 3.94259 13.5725 3.7609 13.5725 3.57146C13.5725 3.38202 13.5098 3.20034 13.3982 3.06639C13.2866 2.93243 13.1352 2.85718 12.9773 2.85718H7.02493C6.86706 2.85718 6.71566 2.93243 6.60403 3.06639C6.4924 3.20034 6.42969 3.38202 6.42969 3.57146C6.42969 3.7609 6.4924 3.94259 6.60403 4.07654C6.71566 4.21049 6.86706 4.28575 7.02493 4.28575Z" fill="#0077ED"/>
    <path d="M7.02493 7.1428H12.9773C13.1352 7.1428 13.2866 7.06755 13.3982 6.9336C13.5098 6.79964 13.5725 6.61796 13.5725 6.42852C13.5725 6.23908 13.5098 6.0574 13.3982 5.92344C13.2866 5.78949 13.1352 5.71423 12.9773 5.71423H7.02493C6.86706 5.71423 6.71566 5.78949 6.60403 5.92344C6.4924 6.0574 6.42969 6.23908 6.42969 6.42852C6.42969 6.61796 6.4924 6.79964 6.60403 6.9336C6.71566 7.06755 6.86706 7.1428 7.02493 7.1428Z" fill="#0077ED"/>
    <path d="M20 5C19.999 4.17711 19.7498 3.37976 19.2944 2.74235C18.839 2.10494 18.2053 1.66644 17.5 1.50076V0.714286C17.5 0.524845 17.4342 0.343164 17.3169 0.20921C17.1997 0.075255 17.0408 0 16.875 0H3.125C2.95924 0 2.80027 0.075255 2.68306 0.20921C2.56585 0.343164 2.5 0.524845 2.5 0.714286V1.50076C1.79426 1.6654 1.15994 2.1036 0.704386 2.74124C0.248829 3.37889 0 4.17681 0 5C0 5.82319 0.248829 6.62112 0.704386 7.25876C1.15994 7.8964 1.79426 8.3346 2.5 8.49924V9.28571C2.5 9.47515 2.56585 9.65684 2.68306 9.79079C2.80027 9.92475 2.95924 10 3.125 10H16.875C17.0408 10 17.1997 9.92475 17.3169 9.79079C17.4342 9.65684 17.5 9.47515 17.5 9.28571V8.49924C18.2053 8.33356 18.839 7.89506 19.2944 7.25765C19.7498 6.62024 19.999 5.82289 20 5ZM1.25 5C1.25119 4.5583 1.37198 4.12784 1.59579 3.76773C1.8196 3.40762 2.13546 3.13551 2.5 2.98876V7.01119C2.13546 6.86445 1.8196 6.59235 1.59579 6.23225C1.37198 5.87215 1.25119 5.4417 1.25 5ZM16.25 8.57143H3.75V1.42857H16.25V8.57143ZM17.5 7.01124V2.98876C17.8652 3.13434 18.1817 3.40615 18.4057 3.76652C18.6297 4.12689 18.75 4.55797 18.75 5C18.75 5.44203 18.6297 5.87311 18.4057 6.23348C18.1817 6.59385 17.8652 6.86566 17.5 7.01124Z" fill="#0077ED"/>
</svg>
