<svg width="24" height="24" viewBox="0 0 24 24" fill="none" xmlns="http://www.w3.org/2000/svg">
    <path d="M14.418 3.66663H9.58464C9.01797 3.66663 8.21797 3.99996 7.81797 4.39996L4.40131 7.81664C4.00131 8.21664 3.66797 9.01663 3.66797 9.5833V14.4166C3.66797 14.9833 4.00131 15.7833 4.40131 16.1833L7.81797 19.6C8.21797 20 9.01797 20.3333 9.58464 20.3333H14.418C14.9846 20.3333 15.7846 20 16.1846 19.6L19.6013 16.1833C20.0013 15.7833 20.3346 14.9833 20.3346 14.4166V9.5833C20.3346 9.01663 20.0013 8.21664 19.6013 7.81664L16.1846 4.39996C15.7846 3.99996 14.9846 3.66663 14.418 3.66663Z" stroke="#D0D0DB" stroke-width="1.5" stroke-linecap="round" stroke-linejoin="round"/>
    <path d="M9.08203 14.9167L14.9154 9.08337" stroke="#D0D0DB" stroke-width="1.5" stroke-linecap="round" stroke-linejoin="round"/>
    <path d="M14.9154 14.9167L9.08203 9.08337" stroke="#D0D0DB" stroke-width="1.5" stroke-linecap="round" stroke-linejoin="round"/>
</svg>
