<svg width="24" height="24" viewBox="0 0 24 24" fill="none" xmlns="http://www.w3.org/2000/svg">
    <mask id="path-1-inside-1_1946_3619" fill="white">
        <path fill-rule="evenodd" clip-rule="evenodd" d="M14.0822 2.84503C15.2773 4.26131 15.9999 6.09843 16 8.10327C16 10.3827 15.0659 12.4452 13.5651 13.9188C14.581 14.0983 15.655 13.995 16.6678 13.5603C19.4665 12.3592 20.7536 9.07581 19.537 6.24093C18.5793 4.00977 16.3518 2.71132 14.0822 2.84503ZM11.4284 3.71988C12.7038 4.74557 13.5232 6.32931 13.5233 8.10327C13.5233 10.0521 12.5345 11.7714 11.0384 12.7734C10.3399 12.214 9.76384 11.4784 9.38576 10.5974C8.2963 8.05883 9.21475 5.16049 11.4284 3.71988ZM8.86422 2.57705C6.55329 4.83413 5.74691 8.39848 7.1098 11.5742C7.44706 12.3601 7.89311 13.066 8.42236 13.6817C8.28294 13.6924 8.14209 13.6979 8 13.6979C4.9544 13.6979 2.4767 11.1882 2.4767 8.10327C2.4767 5.01835 4.95465 2.50868 8.00025 2.50868C8.29409 2.50868 8.58265 2.53205 8.86422 2.57705ZM11.5665 0.850711C10.4922 0.30643 9.28088 0 8.00025 0C3.58874 0 0 3.63507 0 8.10327C0 12.1447 2.93638 15.5044 6.76165 16.109V18.1588H4.48581C3.80174 18.1588 3.24745 18.7202 3.24745 19.4131C3.24745 20.106 3.80174 20.6675 4.48581 20.6675H6.76165V22.7457C6.76165 23.4386 7.31593 24 8 24C8.68407 24 9.23835 23.4386 9.23835 22.7457V20.6675H11.5142C12.1983 20.6675 12.7525 20.106 12.7525 19.4131C12.7525 18.7202 12.1983 18.1588 11.5142 18.1588H9.23835V16.109C9.82619 16.016 10.393 15.8581 10.9315 15.6425C12.6178 16.4915 14.5837 16.746 16.4807 16.2644L17.2891 18.1481L15.1977 19.0456C14.5691 19.3154 14.2811 20.0499 14.5544 20.6867C14.8276 21.3234 15.5584 21.6207 16.187 21.351L18.2784 20.4534L19.098 22.3632C19.3713 22.9999 20.102 23.2972 20.7307 23.0275C21.3593 22.7577 21.6472 22.0232 21.374 21.3864L20.5544 19.4767L22.6458 18.5791C23.2744 18.3094 23.5623 17.5748 23.2891 16.9381C23.0158 16.3013 22.285 16.004 21.6564 16.2738L19.565 17.1713L18.7566 15.2876C22.0332 13.2235 23.4068 8.97809 21.813 5.26417C20.094 1.25934 15.5504 -0.670767 11.5665 0.850711Z"/>
    </mask>
    <path fill-rule="evenodd" clip-rule="evenodd" d="M14.0822 2.84503C15.2773 4.26131 15.9999 6.09843 16 8.10327C16 10.3827 15.0659 12.4452 13.5651 13.9188C14.581 14.0983 15.655 13.995 16.6678 13.5603C19.4665 12.3592 20.7536 9.07581 19.537 6.24093C18.5793 4.00977 16.3518 2.71132 14.0822 2.84503ZM11.4284 3.71988C12.7038 4.74557 13.5232 6.32931 13.5233 8.10327C13.5233 10.0521 12.5345 11.7714 11.0384 12.7734C10.3399 12.214 9.76384 11.4784 9.38576 10.5974C8.2963 8.05883 9.21475 5.16049 11.4284 3.71988ZM8.86422 2.57705C6.55329 4.83413 5.74691 8.39848 7.1098 11.5742C7.44706 12.3601 7.89311 13.066 8.42236 13.6817C8.28294 13.6924 8.14209 13.6979 8 13.6979C4.9544 13.6979 2.4767 11.1882 2.4767 8.10327C2.4767 5.01835 4.95465 2.50868 8.00025 2.50868C8.29409 2.50868 8.58265 2.53205 8.86422 2.57705ZM11.5665 0.850711C10.4922 0.30643 9.28088 0 8.00025 0C3.58874 0 0 3.63507 0 8.10327C0 12.1447 2.93638 15.5044 6.76165 16.109V18.1588H4.48581C3.80174 18.1588 3.24745 18.7202 3.24745 19.4131C3.24745 20.106 3.80174 20.6675 4.48581 20.6675H6.76165V22.7457C6.76165 23.4386 7.31593 24 8 24C8.68407 24 9.23835 23.4386 9.23835 22.7457V20.6675H11.5142C12.1983 20.6675 12.7525 20.106 12.7525 19.4131C12.7525 18.7202 12.1983 18.1588 11.5142 18.1588H9.23835V16.109C9.82619 16.016 10.393 15.8581 10.9315 15.6425C12.6178 16.4915 14.5837 16.746 16.4807 16.2644L17.2891 18.1481L15.1977 19.0456C14.5691 19.3154 14.2811 20.0499 14.5544 20.6867C14.8276 21.3234 15.5584 21.6207 16.187 21.351L18.2784 20.4534L19.098 22.3632C19.3713 22.9999 20.102 23.2972 20.7307 23.0275C21.3593 22.7577 21.6472 22.0232 21.374 21.3864L20.5544 19.4767L22.6458 18.5791C23.2744 18.3094 23.5623 17.5748 23.2891 16.9381C23.0158 16.3013 22.285 16.004 21.6564 16.2738L19.565 17.1713L18.7566 15.2876C22.0332 13.2235 23.4068 8.97809 21.813 5.26417C20.094 1.25934 15.5504 -0.670767 11.5665 0.850711Z" fill="#1E1E29"/>
    <path d="M16 8.10327H16.2V8.10326L16 8.10327ZM14.0822 2.84503L14.0705 2.64538L13.6719 2.66886L13.9294 2.97402L14.0822 2.84503ZM13.5651 13.9188L13.4249 13.7761L13.1478 14.0482L13.5303 14.1158L13.5651 13.9188ZM16.6678 13.5603L16.7466 13.7441L16.6678 13.5603ZM19.537 6.24093L19.7208 6.16205L19.7208 6.16204L19.537 6.24093ZM11.4284 3.71988L11.5537 3.56402L11.4408 3.47319L11.3193 3.55225L11.4284 3.71988ZM13.5233 8.10327H13.7233V8.10326L13.5233 8.10327ZM11.0384 12.7734L10.9133 12.9295L11.0278 13.0212L11.1497 12.9395L11.0384 12.7734ZM9.38576 10.5974L9.56955 10.5186L9.38576 10.5974ZM8.86422 2.57705L9.00396 2.72012L9.28841 2.4423L8.89578 2.37955L8.86422 2.57705ZM7.1098 11.5742L7.29358 11.4953V11.4953L7.1098 11.5742ZM8.42236 13.6817L8.43771 13.8811L8.83148 13.8508L8.57403 13.5513L8.42236 13.6817ZM11.5665 0.850711L11.4761 1.02912L11.5552 1.06915L11.6379 1.03755L11.5665 0.850711ZM6.76165 16.109H6.96165V15.9381L6.79287 15.9114L6.76165 16.109ZM6.76165 18.1588V18.3588H6.96165V18.1588H6.76165ZM6.76165 20.6675H6.96165V20.4675H6.76165V20.6675ZM9.23835 20.6675V20.4675H9.03835V20.6675H9.23835ZM9.23835 18.1588H9.03835V18.3588H9.23835V18.1588ZM9.23835 16.109L9.20713 15.9114L9.03835 15.9381V16.109H9.23835ZM10.9315 15.6425L11.0214 15.4639L10.9409 15.4233L10.8572 15.4569L10.9315 15.6425ZM16.4807 16.2644L16.6644 16.1855L16.5971 16.0285L16.4314 16.0705L16.4807 16.2644ZM17.2891 18.1481L17.3679 18.3319L17.5517 18.253L17.4729 18.0692L17.2891 18.1481ZM15.1977 19.0456L15.1188 18.8618H15.1188L15.1977 19.0456ZM14.5544 20.6867L14.7382 20.6078L14.5544 20.6867ZM16.187 21.351L16.1082 21.1672L16.187 21.351ZM18.2784 20.4534L18.4622 20.3745L18.3833 20.1908L18.1995 20.2696L18.2784 20.4534ZM19.098 22.3632L18.9142 22.442L19.098 22.3632ZM20.7307 23.0275L20.8095 23.2113L20.7307 23.0275ZM21.374 21.3864L21.5578 21.3075L21.374 21.3864ZM20.5544 19.4767L20.4755 19.2929L20.2917 19.3718L20.3706 19.5555L20.5544 19.4767ZM22.6458 18.5791L22.7246 18.7629L22.6458 18.5791ZM23.2891 16.9381L23.4729 16.8592L23.2891 16.9381ZM21.6564 16.2738L21.7353 16.4576L21.6564 16.2738ZM19.565 17.1713L19.3812 17.2502L19.4601 17.434L19.6439 17.3551L19.565 17.1713ZM18.7566 15.2876L18.65 15.1184L18.5054 15.2095L18.5728 15.3665L18.7566 15.2876ZM21.813 5.26417L21.9968 5.1853L21.9968 5.18529L21.813 5.26417ZM16.2 8.10326C16.1999 6.04959 15.4596 4.16715 14.2351 2.71605L13.9294 2.97402C15.0951 4.35548 15.7999 6.14727 15.8 8.10328L16.2 8.10326ZM13.7052 14.0615C15.2429 12.5517 16.2 10.4383 16.2 8.10327H15.8C15.8 10.327 14.8889 12.3387 13.4249 13.7761L13.7052 14.0615ZM16.5889 13.3765C15.6133 13.7952 14.5789 13.8948 13.5998 13.7219L13.5303 14.1158C14.5832 14.3018 15.6968 14.1947 16.7466 13.7441L16.5889 13.3765ZM19.3532 6.3198C20.5272 9.05541 19.2839 12.2199 16.5889 13.3765L16.7466 13.7441C19.6491 12.4985 20.98 9.09621 19.7208 6.16205L19.3532 6.3198ZM14.094 3.04469C16.281 2.91584 18.4293 4.1675 19.3532 6.31982L19.7208 6.16204C18.7292 3.85204 16.4226 2.5068 14.0705 2.64538L14.094 3.04469ZM11.303 3.87573C12.533 4.86487 13.3232 6.39211 13.3233 8.10329L13.7233 8.10326C13.7231 6.26652 12.8746 4.62627 11.5537 3.56402L11.303 3.87573ZM13.3233 8.10327C13.3233 9.98309 12.3697 11.641 10.9271 12.6072L11.1497 12.9395C12.6993 11.9017 13.7233 10.1211 13.7233 8.10327H13.3233ZM11.1634 12.6173C10.4899 12.0779 9.93437 11.3686 9.56955 10.5186L9.20197 10.6763C9.59331 11.5882 10.1899 12.35 10.9133 12.9295L11.1634 12.6173ZM9.56955 10.5186C8.51844 8.06932 9.40542 5.27502 11.5375 3.88751L11.3193 3.55225C9.02409 5.04595 8.07416 8.04835 9.20197 10.6763L9.56955 10.5186ZM8.72447 2.43397C6.35561 4.74764 5.52985 8.39983 6.92601 11.6531L7.29358 11.4953C5.96397 8.39712 6.75098 4.92062 9.00396 2.72012L8.72447 2.43397ZM6.92601 11.6531C7.27139 12.4579 7.72834 13.1812 8.2707 13.8121L8.57403 13.5513C8.05788 12.9509 7.62273 12.2623 7.29358 11.4953L6.92601 11.6531ZM8.40702 13.4823C8.27269 13.4926 8.13696 13.4979 8 13.4979V13.8979C8.14721 13.8979 8.29319 13.8922 8.43771 13.8811L8.40702 13.4823ZM8 13.4979C5.06727 13.4979 2.6767 11.0802 2.6767 8.10327H2.2767C2.2767 11.2962 4.84153 13.8979 8 13.8979V13.4979ZM2.6767 8.10327C2.6767 5.1264 5.0675 2.70868 8.00025 2.70868V2.30868C4.84179 2.30868 2.2767 4.91031 2.2767 8.10327H2.6767ZM8.00025 2.70868C8.28347 2.70868 8.56148 2.7312 8.83265 2.77454L8.89578 2.37955C8.60383 2.33289 8.30472 2.30868 8.00025 2.30868V2.70868ZM11.6569 0.672301C10.5554 0.11422 9.31314 -0.2 8.00025 -0.2V0.2C9.24861 0.2 10.4291 0.49864 11.4761 1.02912L11.6569 0.672301ZM8.00025 -0.2C3.47588 -0.2 -0.2 3.52704 -0.2 8.10327H0.2C0.2 3.74311 3.70161 0.2 8.00025 0.2V-0.2ZM-0.2 8.10327C-0.2 12.2429 2.80775 15.6865 6.73043 16.3065L6.79287 15.9114C3.06501 15.3222 0.2 12.0466 0.2 8.10327H-0.2ZM6.56165 16.109V18.1588H6.96165V16.109H6.56165ZM6.76165 17.9588H4.48581V18.3588H6.76165V17.9588ZM4.48581 17.9588C3.68887 17.9588 3.04745 18.6122 3.04745 19.4131H3.44745C3.44745 18.8283 3.91461 18.3588 4.48581 18.3588V17.9588ZM3.04745 19.4131C3.04745 20.2141 3.68887 20.8675 4.48581 20.8675V20.4675C3.91461 20.4675 3.44745 19.998 3.44745 19.4131H3.04745ZM4.48581 20.8675H6.76165V20.4675H4.48581V20.8675ZM6.56165 20.6675V22.7457H6.96165V20.6675H6.56165ZM6.56165 22.7457C6.56165 23.5466 7.20307 24.2 8 24.2V23.8C7.4288 23.8 6.96165 23.3305 6.96165 22.7457H6.56165ZM8 24.2C8.79693 24.2 9.43835 23.5466 9.43835 22.7457H9.03835C9.03835 23.3305 8.5712 23.8 8 23.8V24.2ZM9.43835 22.7457V20.6675H9.03835V22.7457H9.43835ZM9.23835 20.8675H11.5142V20.4675H9.23835V20.8675ZM11.5142 20.8675C12.3111 20.8675 12.9525 20.2141 12.9525 19.4131H12.5525C12.5525 19.998 12.0854 20.4675 11.5142 20.4675V20.8675ZM12.9525 19.4131C12.9525 18.6122 12.3111 17.9588 11.5142 17.9588V18.3588C12.0854 18.3588 12.5525 18.8283 12.5525 19.4131H12.9525ZM11.5142 17.9588H9.23835V18.3588H11.5142V17.9588ZM9.43835 18.1588V16.109H9.03835V18.1588H9.43835ZM9.26958 16.3065C9.87239 16.2112 10.4537 16.0492 11.0058 15.8282L10.8572 15.4569C10.3324 15.6669 9.77999 15.8209 9.20713 15.9114L9.26958 16.3065ZM10.8416 15.8212C12.5691 16.6909 14.5842 16.9522 16.5299 16.4582L16.4314 16.0705C14.5831 16.5398 12.6666 16.2921 11.0214 15.4639L10.8416 15.8212ZM16.2969 16.3433L17.1053 18.2269L17.4729 18.0692L16.6644 16.1855L16.2969 16.3433ZM17.2102 17.9643L15.1188 18.8618L15.2766 19.2294L17.3679 18.3319L17.2102 17.9643ZM15.1188 18.8618C14.3865 19.1761 14.0547 20.0295 14.3706 20.7655L14.7382 20.6078C14.5075 20.0703 14.7516 19.4547 15.2766 19.2294L15.1188 18.8618ZM14.3706 20.7655C14.6865 21.5015 15.5336 21.849 16.2659 21.5347L16.1082 21.1672C15.5833 21.3924 14.9688 21.1452 14.7382 20.6078L14.3706 20.7655ZM16.2659 21.5347L18.3573 20.6372L18.1995 20.2696L16.1082 21.1672L16.2659 21.5347ZM18.0946 20.5323L18.9142 22.442L19.2818 22.2843L18.4622 20.3745L18.0946 20.5323ZM18.9142 22.442C19.2301 23.1781 20.0772 23.5255 20.8095 23.2113L20.6518 22.8437C20.1269 23.0689 19.5125 22.8218 19.2818 22.2843L18.9142 22.442ZM20.8095 23.2113C21.5419 22.897 21.8736 22.0436 21.5578 21.3075L21.1902 21.4653C21.4208 22.0028 21.1767 22.6184 20.6518 22.8437L20.8095 23.2113ZM21.5578 21.3075L20.7382 19.3978L20.3706 19.5555L21.1902 21.4653L21.5578 21.3075ZM20.6333 19.6605L22.7246 18.7629L22.5669 18.3953L20.4755 19.2929L20.6333 19.6605ZM22.7246 18.7629C23.457 18.4486 23.7887 17.5952 23.4729 16.8592L23.1053 17.017C23.3359 17.5544 23.0918 18.1701 22.5669 18.3953L22.7246 18.7629ZM23.4729 16.8592C23.157 16.1232 22.3099 15.7757 21.5775 16.09L21.7353 16.4576C22.2602 16.2323 22.8746 16.4795 23.1053 17.017L23.4729 16.8592ZM21.5775 16.09L19.4862 16.9875L19.6439 17.3551L21.7353 16.4576L21.5775 16.09ZM19.7488 17.0924L18.9404 15.2087L18.5728 15.3665L19.3812 17.2502L19.7488 17.0924ZM18.8632 15.4568C22.2232 13.3402 23.6294 8.98945 21.9968 5.1853L21.6292 5.34305C23.1843 8.96673 21.8431 13.1069 18.65 15.1184L18.8632 15.4568ZM21.9968 5.18529C20.2362 1.08353 15.581 -0.896532 11.4952 0.663873L11.6379 1.03755C15.5198 -0.445003 19.9518 1.43515 21.6292 5.34306L21.9968 5.18529Z" fill="white" mask="url(#path-1-inside-1_1946_3619)"/>
</svg>
