<svg width="24" height="24" viewBox="0 0 24 24" fill="none" xmlns="http://www.w3.org/2000/svg">
    <g clip-path="url(#clip0_1946_3630)">
        <path fill-rule="evenodd" clip-rule="evenodd" d="M23.3862 17.7775C23.2588 17.5556 23.0492 17.3926 22.8027 17.3239C22.5562 17.2552 22.2926 17.2862 22.0687 17.4102C18.1285 19.5916 15.9277 18.4121 12.8342 17.1665C9.43596 15.8009 5.58562 14.2477 0.840429 18.2368C0.743833 18.3176 0.664269 18.4168 0.606366 18.5287C0.548462 18.6405 0.513374 18.7628 0.503141 18.8883C0.492908 19.0138 0.507736 19.1401 0.54676 19.2599C0.585785 19.3796 0.648229 19.4904 0.73046 19.5858C0.898654 19.779 1.13583 19.8985 1.39113 19.9188C1.64642 19.9391 1.8995 19.8585 2.09609 19.6944C5.94499 16.4564 8.66115 17.5518 12.1047 18.9383C14.0166 19.7088 16.0801 20.5403 18.434 20.5403C20.049 20.5403 21.0819 20.1493 23.0153 19.0791C23.1256 19.0185 23.2229 18.9367 23.3014 18.8382C23.3798 18.7398 23.438 18.6268 23.4725 18.5057C23.507 18.3847 23.5171 18.258 23.5023 18.1329C23.4875 18.0079 23.448 17.8871 23.3862 17.7775ZM1.03305 14.8708C1.25822 14.9919 1.52197 15.0196 1.76738 14.948C2.01279 14.8763 2.22018 14.711 2.34477 14.4878C4.21783 11.0852 7.26462 10.8336 10.7908 10.5433L11.2824 10.5008C12.0508 11.8137 13.2601 12.8114 14.6951 13.3162C15.4022 13.5684 16.1473 13.6977 16.898 13.6986C17.5352 13.6954 18.1685 13.5985 18.7776 13.4111C18.7954 13.4751 18.8177 13.5378 18.8444 13.5987C19.0099 13.9411 19.3037 14.2046 19.6621 14.332C20.0205 14.4594 20.4146 14.4405 20.7591 14.2793C20.9625 14.1899 21.1415 14.0533 21.2813 13.8807C21.4211 13.7081 21.5176 13.5046 21.5628 13.2872C21.6081 13.0698 21.6007 12.8447 21.5412 12.6307C21.4818 12.4167 21.3721 12.22 21.2213 12.0569C22.2588 11.1421 22.9706 9.91459 23.2492 8.55969C23.5279 7.20479 23.3582 5.79602 22.7659 4.546C22.6545 4.3159 22.457 4.13885 22.2162 4.05305C21.9753 3.96726 21.7104 3.97961 21.4786 4.08744C21.3641 4.13986 21.261 4.2145 21.1756 4.30704C21.0901 4.39958 21.0238 4.50817 20.9806 4.62651C20.9374 4.74486 20.9182 4.8706 20.924 4.99645C20.9297 5.12229 20.9604 5.24574 21.0143 5.35963C21.2676 5.89611 21.412 6.47751 21.4392 7.07017C21.4663 7.66283 21.3757 8.25499 21.1725 8.8124C20.9693 9.3698 20.6576 9.88137 20.2554 10.3175C19.8532 10.7536 19.3685 11.1057 18.8293 11.3533C17.7347 11.8651 16.4822 11.9235 15.3448 11.5157C14.7828 11.3188 14.2655 11.0125 13.8227 10.6143C13.3799 10.2162 13.0205 9.73425 12.7652 9.19631C12.7038 9.07189 12.616 8.96238 12.5079 8.87547C12.3997 8.78856 12.2739 8.72635 12.1392 8.69319C11.9685 8.58842 11.7689 8.5406 11.5692 8.55663L10.6241 8.63785C6.88368 8.94475 3.0168 9.2646 0.644929 13.5742C0.584243 13.6845 0.546059 13.8057 0.532594 13.9308C0.519129 14.0559 0.530652 14.1824 0.566493 14.3031C0.602334 14.4237 0.661779 14.536 0.741378 14.6335C0.820976 14.7309 0.919143 14.8116 1.03018 14.8708H1.03305Z" fill="#1E1E29"/>
    </g>
    <defs>
        <clipPath id="clip0_1946_3630">
            <rect width="23" height="16.5312" fill="white" transform="translate(0.5 4)"/>
        </clipPath>
    </defs>
</svg>
