<svg width="24" height="24" viewBox="0 0 24 24" fill="none" xmlns="http://www.w3.org/2000/svg">
    <path d="M18.7057 2.02329L18.7036 2.02116L18.6803 2.00788L18.3626 1.82635L18.2171 1.74318L18.1098 1.87196L17.8829 2.14425L17.8827 2.14409L17.8767 2.15199C16.4202 4.08642 15.0217 6.19002 13.9825 7.8085C13.4627 8.61799 13.0324 9.30671 12.7295 9.79263C12.707 9.82878 12.6852 9.86378 12.6641 9.89762C12.5432 10.0915 12.4464 10.2469 12.3759 10.3584C12.3481 10.4024 12.3248 10.4389 12.306 10.4678H12.3029L12.2435 10.5559L9.70213 14.3226L9.70181 14.3223L9.69554 14.333C9.49454 14.6747 9.22545 14.8534 9.00163 14.9479C8.77388 15.0441 8.59656 15.0513 8.59725 15.0513H8.55187H8.53446L8.51731 15.0543C5.9523 15.5043 3.91285 16.3095 3.74874 16.3856C1.96749 17.204 1.72031 18.8479 1.81864 19.5881C1.81868 19.5883 1.81871 19.5886 1.81875 19.5889L1.86392 19.9503L1.88582 20.1255H2.06238H10.6394H10.6848H10.6956L10.7063 20.1244C11.6196 20.0256 12.309 19.448 12.766 18.909C13.2016 18.3953 13.4465 17.8924 13.4904 17.8023C13.4928 17.7974 13.4946 17.7937 13.4958 17.7913L13.496 17.7914L13.4999 17.7826C14.8524 14.7168 16.2223 12.9816 17.2436 12.0157C17.7544 11.5327 18.1787 11.2414 18.4714 11.072C18.6178 10.9873 18.7314 10.933 18.8067 10.9004C18.8423 10.885 18.8693 10.8744 18.8872 10.8678H18.8988H18.9398L18.9775 10.8516C19.424 10.6603 19.8054 10.4469 20.1364 10.2266L18.1587 19.3841L18.1158 19.5826L18.315 19.6224L19.2226 19.804L19.4137 19.8422L19.4568 19.6521L22.1343 7.85304L21.9393 7.80878H22.1393V7.80873V7.80872V7.8087V7.80868V7.80867V7.80865V7.80863V7.80862V7.8086V7.80858V7.80856V7.80855V7.80853V7.80851V7.8085V7.80848V7.80846V7.80844V7.80842V7.8084V7.80837V7.80835V7.80833V7.8083V7.80828V7.80825V7.80822V7.80821V7.80819V7.80818V7.80816V7.80815V7.80813V7.80812V7.8081V7.80808V7.80807V7.80805V7.80803V7.80802V7.808V7.80798V7.80796V7.80795V7.80793V7.80791V7.80789V7.80787V7.80785V7.80783V7.80781V7.80779V7.80777V7.80775V7.80772V7.8077V7.80768V7.80766V7.80764V7.80761V7.80759V7.80757V7.80754V7.80752V7.80749V7.80747V7.80744V7.80742V7.80739V7.80737V7.80734V7.80731V7.80729V7.80726V7.80723V7.8072V7.80717V7.80715V7.80712V7.80709V7.80706V7.80703V7.807V7.80696V7.80693V7.8069V7.80687V7.80684V7.80681V7.80677V7.80674V7.8067V7.80667V7.80664V7.8066V7.80657V7.80653V7.80649V7.80646V7.80642V7.80638V7.80635V7.80631V7.80627V7.80623V7.80619V7.80615V7.80611V7.80607V7.80603V7.80599V7.80595V7.80591V7.80586V7.80582V7.80578V7.80573V7.80569V7.80565V7.8056V7.80556V7.80551V7.80546V7.80542V7.80537V7.80532V7.80527V7.80523V7.80518V7.80513V7.80508V7.80503V7.80498V7.80493V7.80487V7.80482V7.80477V7.80472V7.80466V7.80461V7.80455V7.8045V7.80445V7.80439V7.80433V7.80428V7.80422V7.80416V7.8041V7.80404V7.80399V7.80393V7.80387V7.8038V7.80374V7.80368V7.80362V7.80356V7.80349V7.80343V7.80337V7.8033V7.80324V7.80317V7.8031V7.80304V7.80297V7.8029V7.80283V7.80277V7.8027V7.80263V7.80256V7.80248V7.80241V7.80234V7.80227V7.8022V7.80212V7.80205V7.80197V7.8019V7.80182V7.80175V7.80167V7.80159V7.80151V7.80143V7.80135V7.80128V7.8012V7.80111V7.80103V7.80095V7.80087V7.80078V7.8007V7.80062V7.80053V7.80045V7.80036V7.80027V7.80019V7.8001V7.80001V7.79992V7.79983V7.79974V7.79965V7.79956V7.79946V7.79937V7.79928V7.79918V7.79909V7.79899V7.7989V7.7988V7.7987V7.79861V7.79851V7.79841V7.79831V7.79821V7.79811V7.79801V7.7979V7.7978V7.7977V7.79759V7.79749V7.79738V7.79728V7.79717V7.79706V7.79696V7.79685V7.79674V7.79663V7.79652V7.7964V7.79629V7.79618V7.79607V7.79595V7.79584V7.79572V7.79561V7.79549V7.79537V7.79525V7.79513V7.79501V7.79489V7.79477V7.79465V7.79453V7.7944V7.79428V7.79416V7.79403V7.7939V7.79378V7.79365V7.79352V7.79339V7.79326V7.79313V7.793V7.79287V7.79274V7.7926V7.79247V7.79234V7.7922V7.79206V7.79193V7.79179V7.79165V7.79151V7.79137V7.79123V7.79109V7.79095V7.7908V7.79066V7.79052V7.79037V7.79022V7.79008V7.78993V7.78978V7.78963V7.78948V7.78933V7.78918V7.78903V7.78888V7.78872V7.78857V7.78841V7.78825V7.7881V7.78794V7.78778V7.78762V7.78746V7.7873V7.78714V7.78698V7.78681V7.78665V7.78648V7.78632V7.78615V7.78598V7.78581V7.78564V7.78547V7.7853V7.78513V7.78496V7.78479V7.78461V7.78444V7.78426V7.78408V7.78391V7.78373V7.78355V7.78337V7.78319V7.783V7.78282V7.78264V7.78245V7.78227V7.78208V7.7819V7.78171V7.78152V7.78133V7.78114V7.78095V7.78075V7.78056V7.78037V7.78017V7.77998V7.77978V7.77958V7.77938C22.4406 5.88665 21.5717 4.4476 20.642 3.48882C20.1756 3.00778 19.6899 2.64299 19.3188 2.39584C19.133 2.27209 18.9754 2.17749 18.8627 2.11235C18.8099 2.08179 18.7669 2.05772 18.7363 2.04058L18.7306 2.03734L18.7057 2.02329ZM21.7393 7.78648L19.1099 19.3735L18.5925 19.27L20.6372 9.80238L20.7534 9.26437L20.3189 9.60229C19.9304 9.90447 19.4574 10.2067 18.8574 10.4678H18.8534H18.8234L18.7948 10.4766L18.8534 10.6678L21.7393 7.78648ZM20.7437 7.54839L20.7409 7.56501V7.58187V7.62725V7.65188L20.744 7.66421C20.7437 7.66894 20.7426 7.68013 20.7387 7.69929C20.7312 7.73582 20.7158 7.78801 20.6886 7.85379C20.6346 7.98488 20.538 8.16054 20.381 8.36016C20.0688 8.75703 19.5192 9.24648 18.5985 9.66456C18.0994 9.83326 15.1772 10.9941 12.3638 17.3004L12.3631 17.3017L12.3577 17.3129C12.3527 17.323 12.345 17.3383 12.3346 17.3582C12.3138 17.398 12.2825 17.4558 12.2412 17.5258C12.1584 17.6664 12.0364 17.8546 11.88 18.0462C11.5634 18.4337 11.1338 18.8003 10.6275 18.8633H3.1594C3.24919 18.4701 3.51255 17.9517 4.27712 17.5669L4.29177 17.5611C4.30687 17.5552 4.32953 17.5464 4.35936 17.535C4.41902 17.5121 4.50733 17.4788 4.62111 17.4374C4.84868 17.3545 5.17798 17.2391 5.58354 17.1095C6.39164 16.8514 7.50022 16.5378 8.70872 16.3131C8.84823 16.3077 9.17965 16.25 9.55587 16.0733C9.95659 15.8851 10.4203 15.5563 10.7624 14.9963L13.2971 11.2395C13.2985 11.2376 13.2998 11.2359 13.3009 11.2342C13.3019 11.2329 13.3028 11.2316 13.3035 11.2306C13.3071 11.2254 13.3108 11.2197 13.3143 11.2144C13.3215 11.2034 13.3307 11.1888 13.3416 11.1714C13.3636 11.1363 13.3944 11.0862 13.4334 11.0228C13.4529 10.991 13.4745 10.9559 13.4982 10.9173C13.5692 10.8015 13.6587 10.6558 13.765 10.4835C14.0483 10.0247 14.4504 9.37907 14.9374 8.62021C15.8858 7.1425 17.155 5.23735 18.4944 3.44723C18.9043 3.7124 19.5082 4.1629 19.9945 4.78884C20.5434 5.49543 20.936 6.41583 20.7437 7.54839Z" fill="#0077ED" stroke="#0077ED" stroke-width="0.4"/>
</svg>
