<svg width="24" height="24" viewBox="0 0 24 24" fill="none" xmlns="http://www.w3.org/2000/svg">
    <path d="M11.3182 6.19716C11.722 6.574 12.3548 6.55218 12.7316 6.14844C13.1084 5.74469 13.0866 5.1119 12.6829 4.73506L11.3182 6.19716ZM4.5372 12.4017L3.79055 13.0669C3.80191 13.0797 3.81359 13.0921 3.82558 13.1043L4.5372 12.4017ZM11.3305 20.2477C11.7404 20.6177 12.3728 20.5854 12.7428 20.1755C13.1129 19.7655 13.0806 19.1332 12.6706 18.7631L11.3305 20.2477ZM4.88874 5.29801L5.55108 6.04721V6.04721L4.88874 5.29801ZM3.82558 13.1043C5.50207 14.8024 7.37897 16.5887 8.83333 17.9475C9.56125 18.6276 10.1849 19.202 10.6267 19.6066C10.8477 19.809 11.0233 19.9689 11.1438 20.0784C11.204 20.1331 11.2505 20.1753 11.282 20.2038C11.2978 20.2181 11.3098 20.229 11.3179 20.2363C11.322 20.24 11.3251 20.2428 11.3272 20.2447C11.3282 20.2456 11.329 20.2464 11.3296 20.2469C11.3299 20.2471 11.3301 20.2473 11.3302 20.2474C11.3303 20.2475 11.3304 20.2476 11.3304 20.2476C11.3304 20.2476 11.3305 20.2477 12.0006 19.5054C12.6706 18.7631 12.6706 18.7631 12.6706 18.7631C12.6706 18.7631 12.6706 18.763 12.6705 18.763C12.6704 18.7629 12.6702 18.7627 12.67 18.7625C12.6696 18.7621 12.6689 18.7615 12.6679 18.7606C12.666 18.7589 12.6631 18.7563 12.6592 18.7528C12.6515 18.7458 12.6399 18.7353 12.6245 18.7214C12.5938 18.6936 12.5482 18.6522 12.4888 18.5982C12.37 18.4903 12.1963 18.3321 11.9774 18.1316C11.5395 17.7307 10.9209 17.1608 10.1987 16.4861C8.75282 15.1352 6.89805 13.3696 5.24882 11.6992L3.82558 13.1043ZM12.6829 4.73506C10.3868 2.59205 6.62218 2.43079 4.2264 4.54881L5.55108 6.04721C7.13649 4.64562 9.73737 4.72166 11.3182 6.19716L12.6829 4.73506ZM4.2264 4.54881C3.5676 5.13123 2.65238 6.29955 2.29509 7.80864C1.92212 9.384 2.1793 11.2584 3.79055 13.0669L5.28385 11.7365C4.11995 10.4301 4.0141 9.22901 4.24129 8.26941C4.48417 7.24353 5.1323 6.41744 5.55108 6.04721L4.2264 4.54881Z" fill=""/>
    <path d="M12.6818 6.19716C12.278 6.574 11.6452 6.55218 11.2684 6.14844C10.8916 5.74469 10.9134 5.1119 11.3171 4.73506L12.6818 6.19716ZM19.4628 12.4017L20.2094 13.0669C20.1981 13.0797 20.1864 13.0921 20.1744 13.1043L19.4628 12.4017ZM12.6695 20.2477C12.2596 20.6177 11.6272 20.5854 11.2572 20.1755C10.8871 19.7655 10.9194 19.1332 11.3294 18.7631L12.6695 20.2477ZM19.1113 5.29801L18.4489 6.04721V6.04721L19.1113 5.29801ZM20.1744 13.1043C18.4979 14.8024 16.621 16.5887 15.1667 17.9475C14.4387 18.6276 13.8151 19.202 13.3733 19.6066C13.1523 19.809 12.9767 19.9689 12.8562 20.0784C12.796 20.1331 12.7495 20.1753 12.718 20.2038C12.7022 20.2181 12.6902 20.229 12.6821 20.2363C12.678 20.24 12.6749 20.2428 12.6728 20.2447C12.6718 20.2456 12.671 20.2464 12.6704 20.2469C12.6701 20.2471 12.6699 20.2473 12.6698 20.2474C12.6697 20.2475 12.6696 20.2476 12.6696 20.2476C12.6696 20.2476 12.6695 20.2477 11.9994 19.5054C11.3294 18.7631 11.3294 18.7631 11.3294 18.7631C11.3294 18.7631 11.3294 18.763 11.3295 18.763C11.3296 18.7629 11.3298 18.7627 11.33 18.7625C11.3304 18.7621 11.3311 18.7615 11.3321 18.7606C11.334 18.7589 11.3369 18.7563 11.3408 18.7528C11.3485 18.7458 11.3601 18.7353 11.3755 18.7214C11.4062 18.6936 11.4518 18.6522 11.5112 18.5982C11.63 18.4903 11.8037 18.3321 12.0226 18.1316C12.4605 17.7307 13.0791 17.1608 13.8013 16.4861C15.2472 15.1352 17.1019 13.3696 18.7512 11.6992L20.1744 13.1043ZM11.3171 4.73506C13.6132 2.59205 17.3778 2.43079 19.7736 4.54881L18.4489 6.04721C16.8635 4.64562 14.2626 4.72166 12.6818 6.19716L11.3171 4.73506ZM19.7736 4.54881C20.4324 5.13123 21.3476 6.29955 21.7049 7.80864C22.0779 9.384 21.8207 11.2584 20.2094 13.0669L18.7161 11.7365C19.88 10.4301 19.9859 9.22901 19.7587 8.26941C19.5158 7.24353 18.8677 6.41744 18.4489 6.04721L19.7736 4.54881Z" fill=""/>
</svg>
