<svg width="24" height="24" viewBox="0 0 24 24" fill="none" xmlns="http://www.w3.org/2000/svg">
    <path d="M19.86 8.09C19.86 8.51 19.83 8.92 19.78 9.31C19.32 9.11 18.82 9 18.29 9C17.07 9 15.99 9.58999 15.32 10.49C14.64 9.58999 13.56 9 12.34 9C10.29 9 8.63 10.67 8.63 12.74C8.63 15.42 10.05 17.47 11.63 18.86C11.58 18.89 11.53 18.9 11.48 18.92C11.18 19.03 10.68 19.03 10.38 18.92C7.79 18.03 2 14.35 2 8.09C2 5.33 4.21999 3.10001 6.95999 3.10001C8.58999 3.10001 10.03 3.88 10.93 5.09C11.84 3.88 13.28 3.10001 14.9 3.10001C17.64 3.10001 19.86 5.33 19.86 8.09Z" stroke="#D0D0DB" stroke-width="2" stroke-linecap="round" stroke-linejoin="round" />
    <path d="M21.9999 12.74C21.9999 17.42 17.6699 20.18 15.7299 20.84C15.4999 20.92 15.1299 20.92 14.8999 20.84C14.0699 20.56 12.7999 19.89 11.6299 18.86C10.0499 17.47 8.62988 15.42 8.62988 12.74C8.62988 10.67 10.2899 9 12.3399 9C13.5599 9 14.6399 9.58999 15.3199 10.49C15.9899 9.58999 17.0699 9 18.2899 9C18.8199 9 19.3199 9.11 19.7799 9.31C21.0899 9.89 21.9999 11.2 21.9999 12.74Z" stroke="#D0D0DB" stroke-width="2" stroke-linecap="round" stroke-linejoin="round"/>
</svg>
