<svg width="24" height="24" viewBox="0 0 24 24" fill="none" xmlns="http://www.w3.org/2000/svg">
    <mask id="path-1-outside-1_1946_8212" maskUnits="userSpaceOnUse" x="0" y="0" width="24" height="24" fill="black">
        <rect fill="white" width="24" height="24"/>
        <path d="M22.7933 2.38506L22.6998 1.87084C22.674 1.72881 22.6054 1.59804 22.5034 1.49596C22.4013 1.39388 22.2705 1.32534 22.1285 1.2995L21.6143 1.20604C19.4249 0.808855 17.1699 0.987941 15.0707 1.72571C12.3455 2.68517 10.5582 4.26401 8.98351 6.22049L8.15179 5.93506C7.48951 5.70761 6.77827 5.66231 6.09248 5.80389C5.40669 5.94547 4.77154 6.26872 4.25347 6.73985L1.62691 9.12764C0.359137 10.2801 1.13864 12.3955 2.85183 12.4489L5.17513 12.5213C5.1151 12.8836 5.14235 13.255 5.25463 13.6046C5.3669 13.9542 5.56096 14.2721 5.82069 14.5317L9.4676 18.1786C9.72715 18.4385 10.045 18.6326 10.3947 18.7449C10.7443 18.8572 11.1158 18.8844 11.4781 18.8243L11.5505 21.1475C11.604 22.8656 13.7229 23.636 14.8717 22.3724L17.2595 19.7458C17.7305 19.2277 18.0538 18.5926 18.1954 17.9068C18.3369 17.221 18.2917 16.5098 18.0643 15.8475L17.7788 15.0158C19.6841 13.4823 21.2901 11.7221 22.2736 8.92862C23.0115 6.82942 23.1905 4.57439 22.7933 2.38506ZM2.58171 10.1779L5.20822 7.78996C5.5382 7.48996 5.94271 7.28411 6.37947 7.19395C6.81622 7.10379 7.26918 7.13262 7.69098 7.27744L8.07453 7.40908C7.21775 8.58901 6.44693 9.82902 5.76804 11.1195L2.89601 11.0301C2.79831 11.0274 2.70367 10.9955 2.62427 10.9385C2.54487 10.8815 2.48437 10.802 2.45055 10.7103C2.41673 10.6186 2.41115 10.5189 2.43453 10.424C2.4579 10.3291 2.50917 10.2434 2.58171 10.1779ZM16.7218 16.3083C16.8666 16.7301 16.8955 17.183 16.8053 17.6198C16.7152 18.0566 16.5094 18.4611 16.2093 18.791L13.8215 21.4176C13.756 21.4901 13.6703 21.5414 13.5754 21.5647C13.4805 21.5881 13.3808 21.5825 13.2891 21.5487C13.1974 21.5149 13.1179 21.4544 13.0609 21.375C13.0039 21.2956 12.972 21.201 12.9693 21.1033L12.8796 18.2313C14.1702 17.5525 15.4103 16.7817 16.5901 15.9248L16.7218 16.3083ZM17.5807 13.3353C15.728 14.9238 13.6816 16.2714 11.4903 17.3458C11.3238 17.4272 11.1361 17.4544 10.9534 17.4238C10.7707 17.3932 10.6021 17.3062 10.4713 17.175L6.82432 13.528C6.69314 13.3972 6.60614 13.2286 6.5755 13.0459C6.54486 12.8632 6.57212 12.6755 6.65346 12.509C6.83532 12.1382 7.02515 11.7718 7.22294 11.4096L11.0727 15.2594C11.1386 15.3253 11.2168 15.3776 11.3029 15.4133C11.389 15.449 11.4813 15.4673 11.5745 15.4673C11.6677 15.4673 11.76 15.449 11.8461 15.4133C11.9322 15.3776 12.0105 15.3254 12.0764 15.2595C12.1423 15.1936 12.1945 15.1153 12.2302 15.0292C12.2659 14.9431 12.2842 14.8508 12.2842 14.7576C12.2842 14.6644 12.2659 14.5722 12.2302 14.4861C12.1946 14.4 12.1423 14.3217 12.0764 14.2558L7.95787 10.1373C8.77525 8.80225 9.69986 7.5359 10.7226 6.35076C13.2907 3.37539 17.3292 1.87115 21.3912 2.60812C21.7511 4.57326 21.5886 6.59847 20.9199 8.48105C20.2512 10.3636 19.0997 12.0376 17.5807 13.3353ZM13.5469 6.12627C11.6235 8.04958 12.9976 11.3469 15.71 11.3469C18.4201 11.3469 19.7986 8.05175 17.873 6.12627C17.2989 5.55342 16.521 5.23169 15.71 5.23169C14.8989 5.23169 14.121 5.55342 13.5469 6.12627ZM16.8694 9.44886C16.6401 9.67818 16.3479 9.83435 16.0299 9.89762C15.7118 9.96089 15.3821 9.92841 15.0825 9.80431C14.7829 9.68021 14.5268 9.47004 14.3466 9.2004C14.1664 8.93075 14.0703 8.61373 14.0703 8.28943C14.0703 7.96513 14.1664 7.64811 14.3466 7.37846C14.5268 7.10882 14.7829 6.89865 15.0825 6.77455C15.3821 6.65045 15.7118 6.61798 16.0299 6.68124C16.3479 6.74451 16.6401 6.90068 16.8694 7.13C17.1764 7.43775 17.3488 7.85472 17.3488 8.28943C17.3488 8.72414 17.1764 9.14111 16.8694 9.44886ZM2.08985 17.5973C1.95676 17.4642 1.88199 17.2837 1.88199 17.0954C1.88199 16.9072 1.95676 16.7267 2.08985 16.5936L3.00885 15.6746C3.07461 15.6081 3.15287 15.5552 3.23915 15.519C3.32542 15.4828 3.418 15.464 3.51156 15.4637C3.60512 15.4634 3.69781 15.4816 3.78431 15.5173C3.8708 15.553 3.94938 15.6054 4.01554 15.6716C4.0817 15.7377 4.13412 15.8163 4.16979 15.9028C4.20547 15.9893 4.22369 16.082 4.2234 16.1755C4.22312 16.2691 4.20434 16.3617 4.16814 16.448C4.13194 16.5342 4.07904 16.6125 4.01249 16.6782L3.09339 17.5973C2.96031 17.7303 2.77982 17.8051 2.59162 17.8051C2.40343 17.8051 2.22294 17.7303 2.08985 17.5973ZM8.36 20.0222C8.49309 20.1553 8.56785 20.3358 8.56785 20.524C8.56785 20.7122 8.49309 20.8927 8.36 21.0258L7.441 21.9448C7.37517 22.0108 7.29694 22.0631 7.21082 22.0988C7.1247 22.1345 7.03237 22.1528 6.93916 22.1527C6.31268 22.1527 5.98893 21.3897 6.43732 20.9412L7.35632 20.0222C7.42222 19.9563 7.50046 19.904 7.58657 19.8683C7.67267 19.8327 7.76496 19.8143 7.85816 19.8143C7.95136 19.8143 8.04365 19.8327 8.12976 19.8683C8.21586 19.904 8.2941 19.9563 8.36 20.0222ZM6.80982 18.1931L3.68936 21.3136C3.6236 21.3801 3.54534 21.433 3.45906 21.4692C3.37279 21.5054 3.28021 21.5242 3.18665 21.5245C3.09309 21.5248 3.00039 21.5066 2.9139 21.4709C2.82741 21.4352 2.74882 21.3828 2.68267 21.3166C2.61651 21.2505 2.56409 21.1719 2.52841 21.0854C2.49274 20.9989 2.47452 20.9062 2.47481 20.8127C2.47509 20.7191 2.49387 20.6265 2.53007 20.5402C2.56626 20.454 2.61916 20.3757 2.68572 20.31L5.80618 17.1895C5.93955 17.0577 6.11963 16.9841 6.30711 16.9847C6.49458 16.9852 6.67421 17.06 6.80678 17.1925C6.93934 17.3251 7.01407 17.5047 7.01464 17.6922C7.01521 17.8797 6.94157 18.0598 6.80982 18.1931Z"/>
    </mask>
    <path d="M22.7933 2.38506L22.6998 1.87084C22.674 1.72881 22.6054 1.59804 22.5034 1.49596C22.4013 1.39388 22.2705 1.32534 22.1285 1.2995L21.6143 1.20604C19.4249 0.808855 17.1699 0.987941 15.0707 1.72571C12.3455 2.68517 10.5582 4.26401 8.98351 6.22049L8.15179 5.93506C7.48951 5.70761 6.77827 5.66231 6.09248 5.80389C5.40669 5.94547 4.77154 6.26872 4.25347 6.73985L1.62691 9.12764C0.359137 10.2801 1.13864 12.3955 2.85183 12.4489L5.17513 12.5213C5.1151 12.8836 5.14235 13.255 5.25463 13.6046C5.3669 13.9542 5.56096 14.2721 5.82069 14.5317L9.4676 18.1786C9.72715 18.4385 10.045 18.6326 10.3947 18.7449C10.7443 18.8572 11.1158 18.8844 11.4781 18.8243L11.5505 21.1475C11.604 22.8656 13.7229 23.636 14.8717 22.3724L17.2595 19.7458C17.7305 19.2277 18.0538 18.5926 18.1954 17.9068C18.3369 17.221 18.2917 16.5098 18.0643 15.8475L17.7788 15.0158C19.6841 13.4823 21.2901 11.7221 22.2736 8.92862C23.0115 6.82942 23.1905 4.57439 22.7933 2.38506ZM2.58171 10.1779L5.20822 7.78996C5.5382 7.48996 5.94271 7.28411 6.37947 7.19395C6.81622 7.10379 7.26918 7.13262 7.69098 7.27744L8.07453 7.40908C7.21775 8.58901 6.44693 9.82902 5.76804 11.1195L2.89601 11.0301C2.79831 11.0274 2.70367 10.9955 2.62427 10.9385C2.54487 10.8815 2.48437 10.802 2.45055 10.7103C2.41673 10.6186 2.41115 10.5189 2.43453 10.424C2.4579 10.3291 2.50917 10.2434 2.58171 10.1779ZM16.7218 16.3083C16.8666 16.7301 16.8955 17.183 16.8053 17.6198C16.7152 18.0566 16.5094 18.4611 16.2093 18.791L13.8215 21.4176C13.756 21.4901 13.6703 21.5414 13.5754 21.5647C13.4805 21.5881 13.3808 21.5825 13.2891 21.5487C13.1974 21.5149 13.1179 21.4544 13.0609 21.375C13.0039 21.2956 12.972 21.201 12.9693 21.1033L12.8796 18.2313C14.1702 17.5525 15.4103 16.7817 16.5901 15.9248L16.7218 16.3083ZM17.5807 13.3353C15.728 14.9238 13.6816 16.2714 11.4903 17.3458C11.3238 17.4272 11.1361 17.4544 10.9534 17.4238C10.7707 17.3932 10.6021 17.3062 10.4713 17.175L6.82432 13.528C6.69314 13.3972 6.60614 13.2286 6.5755 13.0459C6.54486 12.8632 6.57212 12.6755 6.65346 12.509C6.83532 12.1382 7.02515 11.7718 7.22294 11.4096L11.0727 15.2594C11.1386 15.3253 11.2168 15.3776 11.3029 15.4133C11.389 15.449 11.4813 15.4673 11.5745 15.4673C11.6677 15.4673 11.76 15.449 11.8461 15.4133C11.9322 15.3776 12.0105 15.3254 12.0764 15.2595C12.1423 15.1936 12.1945 15.1153 12.2302 15.0292C12.2659 14.9431 12.2842 14.8508 12.2842 14.7576C12.2842 14.6644 12.2659 14.5722 12.2302 14.4861C12.1946 14.4 12.1423 14.3217 12.0764 14.2558L7.95787 10.1373C8.77525 8.80225 9.69986 7.5359 10.7226 6.35076C13.2907 3.37539 17.3292 1.87115 21.3912 2.60812C21.7511 4.57326 21.5886 6.59847 20.9199 8.48105C20.2512 10.3636 19.0997 12.0376 17.5807 13.3353ZM13.5469 6.12627C11.6235 8.04958 12.9976 11.3469 15.71 11.3469C18.4201 11.3469 19.7986 8.05175 17.873 6.12627C17.2989 5.55342 16.521 5.23169 15.71 5.23169C14.8989 5.23169 14.121 5.55342 13.5469 6.12627ZM16.8694 9.44886C16.6401 9.67818 16.3479 9.83435 16.0299 9.89762C15.7118 9.96089 15.3821 9.92841 15.0825 9.80431C14.7829 9.68021 14.5268 9.47004 14.3466 9.2004C14.1664 8.93075 14.0703 8.61373 14.0703 8.28943C14.0703 7.96513 14.1664 7.64811 14.3466 7.37846C14.5268 7.10882 14.7829 6.89865 15.0825 6.77455C15.3821 6.65045 15.7118 6.61798 16.0299 6.68124C16.3479 6.74451 16.6401 6.90068 16.8694 7.13C17.1764 7.43775 17.3488 7.85472 17.3488 8.28943C17.3488 8.72414 17.1764 9.14111 16.8694 9.44886ZM2.08985 17.5973C1.95676 17.4642 1.88199 17.2837 1.88199 17.0954C1.88199 16.9072 1.95676 16.7267 2.08985 16.5936L3.00885 15.6746C3.07461 15.6081 3.15287 15.5552 3.23915 15.519C3.32542 15.4828 3.418 15.464 3.51156 15.4637C3.60512 15.4634 3.69781 15.4816 3.78431 15.5173C3.8708 15.553 3.94938 15.6054 4.01554 15.6716C4.0817 15.7377 4.13412 15.8163 4.16979 15.9028C4.20547 15.9893 4.22369 16.082 4.2234 16.1755C4.22312 16.2691 4.20434 16.3617 4.16814 16.448C4.13194 16.5342 4.07904 16.6125 4.01249 16.6782L3.09339 17.5973C2.96031 17.7303 2.77982 17.8051 2.59162 17.8051C2.40343 17.8051 2.22294 17.7303 2.08985 17.5973ZM8.36 20.0222C8.49309 20.1553 8.56785 20.3358 8.56785 20.524C8.56785 20.7122 8.49309 20.8927 8.36 21.0258L7.441 21.9448C7.37517 22.0108 7.29694 22.0631 7.21082 22.0988C7.1247 22.1345 7.03237 22.1528 6.93916 22.1527C6.31268 22.1527 5.98893 21.3897 6.43732 20.9412L7.35632 20.0222C7.42222 19.9563 7.50046 19.904 7.58657 19.8683C7.67267 19.8327 7.76496 19.8143 7.85816 19.8143C7.95136 19.8143 8.04365 19.8327 8.12976 19.8683C8.21586 19.904 8.2941 19.9563 8.36 20.0222ZM6.80982 18.1931L3.68936 21.3136C3.6236 21.3801 3.54534 21.433 3.45906 21.4692C3.37279 21.5054 3.28021 21.5242 3.18665 21.5245C3.09309 21.5248 3.00039 21.5066 2.9139 21.4709C2.82741 21.4352 2.74882 21.3828 2.68267 21.3166C2.61651 21.2505 2.56409 21.1719 2.52841 21.0854C2.49274 20.9989 2.47452 20.9062 2.47481 20.8127C2.47509 20.7191 2.49387 20.6265 2.53007 20.5402C2.56626 20.454 2.61916 20.3757 2.68572 20.31L5.80618 17.1895C5.93955 17.0577 6.11963 16.9841 6.30711 16.9847C6.49458 16.9852 6.67421 17.06 6.80678 17.1925C6.93934 17.3251 7.01407 17.5047 7.01464 17.6922C7.01521 17.8797 6.94157 18.0598 6.80982 18.1931Z" fill="#1E1E29"/>
    <path d="M22.7933 2.38506L22.6998 1.87084C22.674 1.72881 22.6054 1.59804 22.5034 1.49596C22.4013 1.39388 22.2705 1.32534 22.1285 1.2995L21.6143 1.20604C19.4249 0.808855 17.1699 0.987941 15.0707 1.72571C12.3455 2.68517 10.5582 4.26401 8.98351 6.22049L8.15179 5.93506C7.48951 5.70761 6.77827 5.66231 6.09248 5.80389C5.40669 5.94547 4.77154 6.26872 4.25347 6.73985L1.62691 9.12764C0.359137 10.2801 1.13864 12.3955 2.85183 12.4489L5.17513 12.5213C5.1151 12.8836 5.14235 13.255 5.25463 13.6046C5.3669 13.9542 5.56096 14.2721 5.82069 14.5317L9.4676 18.1786C9.72715 18.4385 10.045 18.6326 10.3947 18.7449C10.7443 18.8572 11.1158 18.8844 11.4781 18.8243L11.5505 21.1475C11.604 22.8656 13.7229 23.636 14.8717 22.3724L17.2595 19.7458C17.7305 19.2277 18.0538 18.5926 18.1954 17.9068C18.3369 17.221 18.2917 16.5098 18.0643 15.8475L17.7788 15.0158C19.6841 13.4823 21.2901 11.7221 22.2736 8.92862C23.0115 6.82942 23.1905 4.57439 22.7933 2.38506ZM2.58171 10.1779L5.20822 7.78996C5.5382 7.48996 5.94271 7.28411 6.37947 7.19395C6.81622 7.10379 7.26918 7.13262 7.69098 7.27744L8.07453 7.40908C7.21775 8.58901 6.44693 9.82902 5.76804 11.1195L2.89601 11.0301C2.79831 11.0274 2.70367 10.9955 2.62427 10.9385C2.54487 10.8815 2.48437 10.802 2.45055 10.7103C2.41673 10.6186 2.41115 10.5189 2.43453 10.424C2.4579 10.3291 2.50917 10.2434 2.58171 10.1779ZM16.7218 16.3083C16.8666 16.7301 16.8955 17.183 16.8053 17.6198C16.7152 18.0566 16.5094 18.4611 16.2093 18.791L13.8215 21.4176C13.756 21.4901 13.6703 21.5414 13.5754 21.5647C13.4805 21.5881 13.3808 21.5825 13.2891 21.5487C13.1974 21.5149 13.1179 21.4544 13.0609 21.375C13.0039 21.2956 12.972 21.201 12.9693 21.1033L12.8796 18.2313C14.1702 17.5525 15.4103 16.7817 16.5901 15.9248L16.7218 16.3083ZM17.5807 13.3353C15.728 14.9238 13.6816 16.2714 11.4903 17.3458C11.3238 17.4272 11.1361 17.4544 10.9534 17.4238C10.7707 17.3932 10.6021 17.3062 10.4713 17.175L6.82432 13.528C6.69314 13.3972 6.60614 13.2286 6.5755 13.0459C6.54486 12.8632 6.57212 12.6755 6.65346 12.509C6.83532 12.1382 7.02515 11.7718 7.22294 11.4096L11.0727 15.2594C11.1386 15.3253 11.2168 15.3776 11.3029 15.4133C11.389 15.449 11.4813 15.4673 11.5745 15.4673C11.6677 15.4673 11.76 15.449 11.8461 15.4133C11.9322 15.3776 12.0105 15.3254 12.0764 15.2595C12.1423 15.1936 12.1945 15.1153 12.2302 15.0292C12.2659 14.9431 12.2842 14.8508 12.2842 14.7576C12.2842 14.6644 12.2659 14.5722 12.2302 14.4861C12.1946 14.4 12.1423 14.3217 12.0764 14.2558L7.95787 10.1373C8.77525 8.80225 9.69986 7.5359 10.7226 6.35076C13.2907 3.37539 17.3292 1.87115 21.3912 2.60812C21.7511 4.57326 21.5886 6.59847 20.9199 8.48105C20.2512 10.3636 19.0997 12.0376 17.5807 13.3353ZM13.5469 6.12627C11.6235 8.04958 12.9976 11.3469 15.71 11.3469C18.4201 11.3469 19.7986 8.05175 17.873 6.12627C17.2989 5.55342 16.521 5.23169 15.71 5.23169C14.8989 5.23169 14.121 5.55342 13.5469 6.12627ZM16.8694 9.44886C16.6401 9.67818 16.3479 9.83435 16.0299 9.89762C15.7118 9.96089 15.3821 9.92841 15.0825 9.80431C14.7829 9.68021 14.5268 9.47004 14.3466 9.2004C14.1664 8.93075 14.0703 8.61373 14.0703 8.28943C14.0703 7.96513 14.1664 7.64811 14.3466 7.37846C14.5268 7.10882 14.7829 6.89865 15.0825 6.77455C15.3821 6.65045 15.7118 6.61798 16.0299 6.68124C16.3479 6.74451 16.6401 6.90068 16.8694 7.13C17.1764 7.43775 17.3488 7.85472 17.3488 8.28943C17.3488 8.72414 17.1764 9.14111 16.8694 9.44886ZM2.08985 17.5973C1.95676 17.4642 1.88199 17.2837 1.88199 17.0954C1.88199 16.9072 1.95676 16.7267 2.08985 16.5936L3.00885 15.6746C3.07461 15.6081 3.15287 15.5552 3.23915 15.519C3.32542 15.4828 3.418 15.464 3.51156 15.4637C3.60512 15.4634 3.69781 15.4816 3.78431 15.5173C3.8708 15.553 3.94938 15.6054 4.01554 15.6716C4.0817 15.7377 4.13412 15.8163 4.16979 15.9028C4.20547 15.9893 4.22369 16.082 4.2234 16.1755C4.22312 16.2691 4.20434 16.3617 4.16814 16.448C4.13194 16.5342 4.07904 16.6125 4.01249 16.6782L3.09339 17.5973C2.96031 17.7303 2.77982 17.8051 2.59162 17.8051C2.40343 17.8051 2.22294 17.7303 2.08985 17.5973ZM8.36 20.0222C8.49309 20.1553 8.56785 20.3358 8.56785 20.524C8.56785 20.7122 8.49309 20.8927 8.36 21.0258L7.441 21.9448C7.37517 22.0108 7.29694 22.0631 7.21082 22.0988C7.1247 22.1345 7.03237 22.1528 6.93916 22.1527C6.31268 22.1527 5.98893 21.3897 6.43732 20.9412L7.35632 20.0222C7.42222 19.9563 7.50046 19.904 7.58657 19.8683C7.67267 19.8327 7.76496 19.8143 7.85816 19.8143C7.95136 19.8143 8.04365 19.8327 8.12976 19.8683C8.21586 19.904 8.2941 19.9563 8.36 20.0222ZM6.80982 18.1931L3.68936 21.3136C3.6236 21.3801 3.54534 21.433 3.45906 21.4692C3.37279 21.5054 3.28021 21.5242 3.18665 21.5245C3.09309 21.5248 3.00039 21.5066 2.9139 21.4709C2.82741 21.4352 2.74882 21.3828 2.68267 21.3166C2.61651 21.2505 2.56409 21.1719 2.52841 21.0854C2.49274 20.9989 2.47452 20.9062 2.47481 20.8127C2.47509 20.7191 2.49387 20.6265 2.53007 20.5402C2.56626 20.454 2.61916 20.3757 2.68572 20.31L5.80618 17.1895C5.93955 17.0577 6.11963 16.9841 6.30711 16.9847C6.49458 16.9852 6.67421 17.06 6.80678 17.1925C6.93934 17.3251 7.01407 17.5047 7.01464 17.6922C7.01521 17.8797 6.94157 18.0598 6.80982 18.1931Z" stroke="#1E1E29" stroke-width="0.4" mask="url(#path-1-outside-1_1946_8212)"/>
</svg>
