<svg width="24" height="24" viewBox="0 0 24 24" fill="none" xmlns="http://www.w3.org/2000/svg">
    <path d="M12.0066 7.22481C10.241 6.07339 6.26844 6.09308 4.53398 8.74287C2.79953 11.3927 1.65843 12.7182 1.30469 13.0497C1.54709 13.3725 1.78719 13.6763 2.02623 13.9618M12.0066 17.3024C7.47868 18.1295 4.82457 17.3036 2.02623 13.9618M2.02623 13.9618C3.9221 12.6736 9.29992 10.6823 12.0066 10.6823M6.87217 11.7846C8.40607 12.0721 11.6556 12.6863 12.0066 12.6863" stroke="black" stroke-width="1.5" stroke-linecap="round" stroke-linejoin="round"/>
    <path d="M11.9934 7.22481C13.759 6.07339 17.7316 6.09308 19.466 8.74287C21.2005 11.3927 22.3416 12.7182 22.6953 13.0497C22.4529 13.3725 22.2128 13.6763 21.9738 13.9618M11.9934 17.3024C16.5213 18.1295 19.1754 17.3036 21.9738 13.9618M21.9738 13.9618C20.0779 12.6736 14.7001 10.6823 11.9934 10.6823M17.1278 11.7846C15.5939 12.0721 12.3444 12.6863 11.9934 12.6863" stroke="black" stroke-width="1.5" stroke-linecap="round" stroke-linejoin="round"/>
</svg>
