<svg width="24" height="24" viewBox="0 0 24 24" fill="none" xmlns="http://www.w3.org/2000/svg">
    <path d="M0.807335 13.4187L0.672465 13.5804L0.840939 13.7068C0.839382 13.7056 0.858263 13.7203 0.878133 13.7347C0.900072 13.7506 0.929839 13.7714 0.967212 13.7952C1.0419 13.8428 1.14683 13.9027 1.28036 13.9613C1.54768 14.0788 1.92949 14.1914 2.41134 14.1914C2.89659 14.1914 3.47732 14.0778 4.14065 13.7475C5.72424 12.9597 6.67274 12.7323 7.12894 12.623L7.1345 12.6216L7.13468 12.6216C7.14191 12.6199 7.14908 12.6181 7.15618 12.6164C7.28841 12.5846 7.39779 12.5583 7.4951 12.5229L7.68467 12.454L7.61412 12.265L7.23457 11.2484L7.16522 11.0626L6.97888 11.1304C6.97943 11.1302 6.97937 11.1302 6.97854 11.1305C6.97681 11.131 6.97179 11.1325 6.96201 11.1351C6.9493 11.1385 6.93322 11.1425 6.9141 11.1472C6.90467 11.1495 6.89452 11.152 6.88389 11.1546C6.85347 11.162 6.81922 11.1703 6.78726 11.1785L6.7779 11.1808C6.26078 11.3059 5.20168 11.5621 3.47725 12.4188L3.4768 12.4191C2.34954 12.9827 1.77134 12.5493 1.77106 12.5496C1.77106 12.5496 1.77129 12.5498 1.77177 12.5502L1.63764 12.7001L1.50136 12.5864L0.807335 13.4187Z" fill="#1E1E29" stroke="#1E1E29" stroke-width="0.4"/>
    <path d="M0.772065 13.5194L0.621851 13.6514C0.386786 13.384 0.375066 12.9873 0.591987 12.706L0.750377 12.8281L0.591992 12.706C1.55997 11.4506 2.16743 10.6696 2.70434 9.98081C2.84674 9.7973 2.98639 9.61768 3.12832 9.43515C3.37053 9.12363 3.61935 8.80362 3.89965 8.44129C5.54698 6.30903 7.53255 5.83227 8.90773 5.81262M0.772065 13.5194L4.05784 8.56366C5.66006 6.48974 7.58218 6.03158 8.91059 6.0126C10.3691 5.99091 11.505 6.48432 11.7084 6.60631C11.8359 6.6844 11.956 6.70251 11.9965 6.70863C11.9982 6.70888 11.9998 6.70911 12.0012 6.70933L11.9869 6.50984C11.9896 6.50964 11.9959 6.50895 12.005 6.50739M0.772065 13.5194L0.622584 13.6523L0.624851 13.6548C0.694431 13.7332 1.70832 14.8751 3.02874 16.0312C4.32231 17.1647 5.55205 17.8016 7.01296 18.0832C8.30239 18.3322 9.80342 18.3087 12.0039 18.0154C13.1978 18.1737 14.1859 18.2549 15.0457 18.2549C15.7695 18.2549 16.4059 18.1971 16.9949 18.0832L16.9951 18.0831C18.4558 17.7988 19.6854 17.162 20.979 16.0284C22.2994 14.8724 23.3133 13.7305 23.3829 13.6521L23.3852 13.6496L23.2357 13.5167L23.386 13.6486C23.6192 13.3831 23.6317 12.9896 23.4159 12.7097L23.4131 12.706C22.7068 11.7891 22.1998 11.1421 21.7568 10.5766L21.6825 10.4817L21.6823 10.4815C21.1267 9.77416 20.6885 9.21416 20.1095 8.44848C18.428 6.22414 16.4473 5.74482 15.0701 5.74482H15.07H15.07H15.07H15.07H15.07H15.07H15.0699H15.0699H15.0699H15.0699H15.0699H15.0699H15.0698H15.0698H15.0698H15.0698H15.0698H15.0698H15.0697H15.0697H15.0697H15.0697H15.0697H15.0697H15.0696H15.0696H15.0696H15.0696H15.0696H15.0695H15.0695H15.0695H15.0695H15.0695H15.0695H15.0694H15.0694H15.0694H15.0694H15.0694H15.0694H15.0693H15.0693H15.0693H15.0693H15.0693H15.0692H15.0692H15.0692H15.0692H15.0692H15.0691H15.0691H15.0691H15.0691H15.0691H15.069H15.069H15.069H15.069H15.069H15.069H15.0689H15.0689H15.0689H15.0689H15.0689H15.0688H15.0688H15.0688H15.0688H15.0688H15.0687H15.0687H15.0687H15.0687H15.0687H15.0686H15.0686H15.0686H15.0686H15.0686H15.0685H15.0685H15.0685H15.0685H15.0684H15.0684H15.0684H15.0684H15.0684H15.0683H15.0683H15.0683H15.0683H15.0683H15.0682H15.0682H15.0682H15.0682H15.0682H15.0681H15.0681H15.0681H15.0681H15.068H15.068H15.068H15.068H15.068H15.0679H15.0679H15.0679H15.0679H15.0678H15.0678H15.0678H15.0678H15.0678H15.0677H15.0677H15.0677H15.0677H15.0676H15.0676H15.0676H15.0676H15.0676H15.0675H15.0675H15.0675H15.0675H15.0674H15.0674H15.0674H15.0674H15.0673H15.0673H15.0673H15.0673H15.0673H15.0672H15.0672H15.0672H15.0672H15.0671H15.0671H15.0671H15.0671H15.067H15.067H15.067H15.067H15.0669H15.0669H15.0669H15.0669H15.0668H15.0668H15.0668H15.0668H15.0668H15.0667H15.0667H15.0667H15.0667H15.0666H15.0666H15.0666H15.0666H15.0665H15.0665H15.0665H15.0665H15.0664H15.0664H15.0664H15.0664H15.0663H15.0663H15.0663H15.0663H15.0662H15.0662H15.0662H15.0662H15.0661H15.0661H15.0661H15.0661H15.066H15.066H15.066H15.066H15.0659H15.0659H15.0659H15.0658H15.0658H15.0658H15.0658H15.0657H15.0657H15.0657H15.0657H15.0656H15.0656H15.0656H15.0656H15.0655H15.0655H15.0655H15.0655H15.0654H15.0654H15.0654H15.0654H15.0653H15.0653H15.0653H15.0652H15.0652H15.0652H15.0652H15.0651H15.0651H15.0651H15.0651H15.065H15.065H15.065H15.0649H15.0649H15.0649H15.0649H15.0648H15.0648H15.0648H15.0648H15.0647H15.0647H15.0647H15.0647H15.0646H15.0646H15.0646H15.0645H15.0645H15.0645H15.0645H15.0644H15.0644H15.0644H15.0643H15.0643H15.0643H15.0643H15.0642H15.0642H15.0642H15.0642H15.0641H15.0641H15.0641H15.064H15.064H15.064H15.064H15.0639H15.0639H15.0639H15.0638H15.0638H15.0638H15.0638H15.0637H15.0637H15.0637H15.0636H15.0636H15.0636H15.0636H15.0635H15.0635H15.0635H15.0634H15.0634H15.0634H15.0634H15.0633H15.0633H15.0633H15.0632H15.0632H15.0632H15.0632H15.0631H15.0631H15.0631H15.063H15.063H15.063H15.063H15.0629H15.0629H15.0629H15.0628H15.0628H15.0628H15.0627H15.0627H15.0627H15.0627H15.0626H15.0626H15.0626H15.0625H15.0625H15.0625H15.0625H15.0624H15.0624H15.0624H15.0623H15.0623H15.0623H15.0622H15.0622H15.0622H15.0622H15.0621H15.0621H15.0621H15.062H15.062H15.062H15.0619H15.0619H15.0619H15.0619H15.0618H15.0618H15.0618H15.0617H15.0617H15.0617H15.0616H15.0616H15.0616H15.0616H15.0615H15.0615H15.0615H15.0614H15.0614H15.0614H15.0613H15.0613H15.0613H15.0613H15.0612H15.0612H15.0612H15.0611H15.0611H15.0611H15.061H15.061H15.061H15.061H15.0609H15.0609H15.0609H15.0608H15.0608H15.0608H15.0607H15.0607H15.0607H15.0606H15.0606H15.0606H15.0606H15.0605H15.0605H15.0605H15.0604H15.0604H15.0604H15.0603H15.0603H15.0603H15.0602H15.0602H15.0602H15.0602H15.0601H15.0601H15.0601H15.06H15.06H15.06H15.0599H15.0599H15.0599H15.0598H15.0598H15.0598H15.0597H15.0597H15.0597H15.0597H15.0596H15.0596H15.0596H15.0595H15.0595H15.0595H15.0594H15.0594H15.0594H15.0593H15.0593H15.0593H15.0592H15.0592H15.0592H15.0592H15.0591H15.0591H15.0591H15.059H15.059H15.059H15.0589H15.0589H15.0589H15.0588H15.0588H15.0588H15.0587H15.0587H15.0587H15.0587H15.0586H15.0586H15.0586H15.0585H15.0585H15.0585H15.0584H15.0584H15.0584H15.0583H15.0583H15.0583H15.0582H15.0582H15.0582H15.0581H15.0581H15.0581H15.0581H15.058H15.058H15.058H15.0579H15.0579H15.0579H15.0578H15.0578H15.0578H15.0577H15.0577H15.0577H15.0576H15.0576H15.0576H15.0575H15.0575H15.0575H15.0575H15.0574H15.0574H15.0574H15.0573H15.0573H15.0573H15.0572H15.0572H15.0572H15.0571H15.0571H15.0571H15.057H15.057H15.057H15.0569H15.0569H15.0569H15.0568H15.0568H15.0568H15.0568H15.0567H15.0567H15.0567H15.0566H15.0566H15.0566H15.0565L15.0565 5.74482L15.0561 5.74482C13.6508 5.74761 12.5017 6.24681 12.1931 6.43521C12.1117 6.48393 12.0386 6.50162 12.005 6.50739M0.772065 13.5194L12.005 6.50739M8.90773 5.81262L8.91057 6.01178L8.90761 5.81262C8.90765 5.81262 8.90769 5.81262 8.90773 5.81262ZM8.90773 5.81262C10.4053 5.79038 11.5776 6.29464 11.8113 6.43481L11.8128 6.43573L11.8128 6.43574C11.8895 6.48267 11.9622 6.49984 12.005 6.50739M11.9995 16.5156L12.0332 16.5205L12.1041 16.5311C12.1045 16.5311 12.1049 16.5312 12.1053 16.5312C14.1646 16.8122 15.6218 16.8556 16.8202 16.6079C18.0107 16.3618 18.9611 15.8251 19.9997 14.9143C20.7736 14.2356 21.4486 13.5495 21.8588 13.1163C21.4184 12.5472 21.0617 12.0915 20.7435 11.685C20.6667 11.5867 20.592 11.4914 20.519 11.398L11.9995 16.5156ZM11.9995 16.5156L11.9661 16.522L11.901 16.5345C9.84261 16.8136 8.38589 16.8562 7.18822 16.6086C5.99765 16.3625 5.04801 15.8264 4.01078 14.917C3.23678 14.2382 2.56179 13.5521 2.1516 13.1189C2.90199 12.1473 3.41534 11.487 3.87661 10.8962L3.87729 10.8953C4.10474 10.6006 4.32527 10.3167 4.56006 10.0144C4.72264 9.80507 4.89205 9.58695 5.07534 9.35034L5.07546 9.35019C6.10585 8.01752 7.38581 7.33601 8.88279 7.29966C9.99719 7.27364 10.8988 7.6298 11.0572 7.71321C11.5067 7.97975 11.9156 7.99644 12.0066 7.99644C12.098 7.99644 12.5075 7.9796 12.9602 7.70964L12.9634 7.70795L12.9634 7.70799L12.9638 7.70775L12.9652 7.707C12.9714 7.70376 12.9812 7.69878 12.9944 7.69228C13.0207 7.6793 13.0603 7.66051 13.112 7.63785C13.2154 7.5925 13.3667 7.53185 13.5565 7.47118C13.9368 7.34966 14.4682 7.22923 15.0782 7.22923H15.0782H15.0782H15.0782H15.0783H15.0783H15.0783H15.0783H15.0783H15.0783H15.0783H15.0784H15.0784H15.0784H15.0784H15.0784H15.0784H15.0785H15.0785H15.0785H15.0785H15.0785H15.0786H15.0786H15.0786H15.0786H15.0786H15.0786H15.0787H15.0787H15.0787H15.0787H15.0787H15.0787H15.0788H15.0788H15.0788H15.0788H15.0788H15.0789H15.0789H15.0789H15.0789H15.0789H15.0789H15.079H15.079H15.079H15.079H15.079H15.0791H15.0791H15.0791H15.0791H15.0791H15.0791H15.0792H15.0792H15.0792H15.0792H15.0792H15.0793H15.0793H15.0793H15.0793H15.0793H15.0794H15.0794H15.0794H15.0794H15.0794H15.0795H15.0795H15.0795H15.0795H15.0795H15.0796H15.0796H15.0796H15.0796H15.0796H15.0797H15.0797H15.0797H15.0797H15.0797H15.0798H15.0798H15.0798H15.0798H15.0798H15.0799H15.0799H15.0799H15.0799H15.0799H15.08H15.08H15.08H15.08H15.08H15.0801H15.0801H15.0801H15.0801H15.0801H15.0802H15.0802H15.0802H15.0802H15.0803H15.0803H15.0803H15.0803H15.0803H15.0804H15.0804H15.0804H15.0804H15.0804H15.0805H15.0805H15.0805H15.0805H15.0806H15.0806H15.0806H15.0806H15.0806H15.0807H15.0807H15.0807H15.0807H15.0808H15.0808H15.0808H15.0808H15.0808H15.0809H15.0809H15.0809H15.0809H15.081H15.081H15.081H15.081H15.081H15.0811H15.0811H15.0811H15.0811H15.0812H15.0812H15.0812H15.0812H15.0812H15.0813H15.0813H15.0813H15.0813H15.0814H15.0814H15.0814H15.0814H15.0814H15.0815H15.0815H15.0815H15.0815H15.0816H15.0816H15.0816H15.0816H15.0817H15.0817H15.0817H15.0817H15.0817H15.0818H15.0818H15.0818H15.0818H15.0819H15.0819H15.0819H15.0819H15.082H15.082H15.082H15.082H15.082H15.0821H15.0821H15.0821H15.0821H15.0822H15.0822H15.0822H15.0822H15.0823H15.0823H15.0823H15.0823H15.0824H15.0824H15.0824H15.0824H15.0824H15.0825H15.0825H15.0825H15.0825H15.0826H15.0826H15.0826H15.0826H15.0827H15.0827H15.0827H15.0827H15.0828H15.0828H15.0828H15.0828H15.0828H15.0829H15.0829H15.0829H15.0829H15.083H15.083H15.083H15.083H15.0831H15.0831H15.0831H15.0831H15.0832H15.0832H15.0832H15.0832H15.0833H15.0833H15.0833H15.0833H15.0833H15.0834H15.0834H15.0834H15.0834H15.0835H15.0835H15.0835H15.0835H15.0836H15.0836H15.0836H15.0836H15.0837H15.0837H15.0837H15.0837H15.0838H15.0838H15.0838H15.0838H15.0838H15.0839H15.0839H15.0839H15.0839H15.084H15.084H15.084H15.084H15.0841H15.0841H15.0841H15.0841H15.0842H15.0842H15.0842H15.0842H15.0843H15.0843H15.0843H15.0843H15.0843H15.0844H15.0844H15.0844H15.0844H15.0845H15.0845H15.0845H15.0845H15.0846H15.0846H15.0846H15.0846H15.0847H15.0847H15.0847H15.0847H15.0847H15.0848H15.0848H15.0848H15.0848H15.0849H15.0849H15.0849H15.0849H15.085H15.085H15.085H15.085H15.0851H15.0851H15.0851H15.0851H15.0851H15.0852H15.0852H15.0852H15.0852H15.0853H15.0853H15.0853H15.0853H15.0854H15.0854H15.0854H15.0854H15.0854H15.0855H15.0855H15.0855H15.0855H15.0856H15.0856H15.0856H15.0856H15.0857H15.0857H15.0857H15.0857H15.0857H15.0858H15.0858H15.0858H15.0858H15.0859H15.0859H15.0859H15.0859H15.086H15.086H15.086H15.086H15.086H15.0861H15.0861H15.0861H15.0861H15.0862H15.0862H15.0862H15.0862H15.0862H15.0863H15.0863H15.0863H15.0863H15.0864H15.0864H15.0864H15.0864H15.0864H15.0865H15.0865H15.0865H15.0865H15.0866H15.0866H15.0866H15.0866H15.0866H15.0867H15.0867H15.0867H15.0867H15.0867H15.0868H15.0868H15.0868H15.0868H15.0869H15.0869H15.0869H15.0869H15.0869H15.087H15.087H15.087H15.087H15.087H15.0871H15.0871H15.0871H15.0871H15.0872H15.0872H15.0872H15.0872H15.0872H15.0873H15.0873H15.0873H15.0873H15.0873H15.0874H15.0874H15.0874H15.0874H15.0874H15.0875H15.0875H15.0875H15.0875H15.0875H15.0876H15.0876H15.0876H15.0876H15.0876H15.0877H15.0877H15.0877H15.0877H15.0877H15.0878H15.0878H15.0878H15.0878H15.0878H15.0879H15.0879H15.0879H15.0879H15.0879H15.088H15.088H15.088H15.088H15.088H15.088H15.0881H15.0881H15.0881H15.0881H15.0881H15.0882H15.0882H15.0882H15.0882H15.0882H15.0883H15.0883H15.0883H15.0883H15.0883H15.0883H15.0884H15.0884H15.0884H15.0884H15.0884H15.0885H15.0885H15.0885H15.0885H15.0885H15.0885H15.0886H15.0886H15.0886H15.0886H15.0886H15.0886H15.0887H15.0887H15.0887H15.0887H15.0887H15.0888H15.0888H15.0888H15.0888H15.0888H15.0888H15.0889H15.0889H15.0889C16.574 7.23188 17.8662 7.93303 18.9309 9.34296L19.0905 9.22244L18.9309 9.34297C19.5118 10.1121 19.9517 10.6737 20.5023 11.3767L20.5189 11.3979L11.9995 16.5156Z" fill="#1E1E29" stroke="#1E1E29" stroke-width="0.4"/>
    <path d="M19.8946 13.6419L19.8948 13.642C20.5393 13.9615 21.1689 14.1291 21.7702 14.1291C21.9062 14.1291 22.0382 14.1204 22.1686 14.1063L22.1686 14.1063L22.1726 14.1058C22.736 14.0332 23.0724 13.8261 23.1482 13.7731L23.3104 13.6595L23.1985 13.4962L22.5859 12.6016L22.4497 12.4028L22.3005 12.552C22.2854 12.5591 22.2607 12.5696 22.2267 12.5811C22.1568 12.6046 22.0477 12.632 21.9008 12.6421C21.6087 12.6622 21.1574 12.6143 20.558 12.3159L20.558 12.3159C18.3571 11.2209 16.9253 11.1225 16.8398 11.1186L16.6429 11.1096L16.631 11.3064L16.566 12.3881L16.5532 12.6001H16.7656C16.7644 12.6001 16.7666 12.6003 16.7723 12.6009C16.8732 12.6112 18.0662 12.7328 19.8946 13.6419Z" fill="#1E1E29" stroke="#1E1E29" stroke-width="0.4"/>
    <path fill-rule="evenodd" clip-rule="evenodd" d="M15.6355 10.3978C15.0212 10.2709 14.3952 10.1799 13.7597 10.1255C12.4343 10.0139 11.0684 10.0545 9.69567 10.254C7.40878 10.5845 5.88422 11.2347 5.7566 11.2892L5.75001 11.292L3.66406 12.2115L5.91375 12.5797C8.86201 13.0599 11.2253 13.2221 13.0748 13.2221C16.7601 13.2221 18.3965 12.5764 18.4946 12.5358L19.9991 11.9204L18.5013 11.2882C17.6162 10.914 16.6928 10.6236 15.7404 10.4199C15.7055 10.4124 15.6705 10.4051 15.6355 10.3978ZM9.95185 11.7261C10.1194 11.7404 10.2838 11.7534 10.4452 11.7653C12.1596 11.8915 13.5288 11.8854 14.5678 11.8289C14.8099 11.8157 15.0341 11.7998 15.2406 11.7822C15.292 11.7785 15.3414 11.7739 15.3899 11.7693L15.3899 11.7693C15.4307 11.7654 15.4709 11.7616 15.511 11.7585C15.4887 11.7537 15.4663 11.7489 15.4438 11.7442C13.3154 11.2934 11.3595 11.3849 9.93041 11.5891C9.74445 11.6128 9.56188 11.6432 9.38269 11.6736C9.3836 11.6737 9.38451 11.6738 9.38542 11.6739C9.38515 11.6739 9.38488 11.674 9.38461 11.674C9.57672 11.6929 9.76507 11.7102 9.9497 11.7259L9.95185 11.7261Z" fill="#1E1E29"/>
</svg>
