<svg width="24" height="24" viewBox="0 0 24 24" fill="none" xmlns="http://www.w3.org/2000/svg">
    <path stroke=""  d="M12.1341 11.0583C12.0508 11.05 11.9508 11.05 11.8591 11.0583C9.87578 10.9917 8.30078 9.36667 8.30078 7.36667C8.30078 5.32501 9.95078 3.66667 12.0008 3.66667C14.0424 3.66667 15.7008 5.32501 15.7008 7.36667C15.6924 9.36667 14.1174 10.9917 12.1341 11.0583Z"  stroke-width="1.5" stroke-linecap="round" stroke-linejoin="round"/>
    <path stroke=""  d="M7.96563 14.1333C5.94896 15.4833 5.94896 17.6833 7.96563 19.025C10.2573 20.5583 14.0156 20.5583 16.3073 19.025C18.324 17.675 18.324 15.475 16.3073 14.1333C14.024 12.6083 10.2656 12.6083 7.96563 14.1333Z"  stroke-width="1.5" stroke-linecap="round" stroke-linejoin="round"/>
</svg>
