<svg width="28" height="24" viewBox="0 0 28 24" fill="none" xmlns="http://www.w3.org/2000/svg">
    <path fill-rule="evenodd" clip-rule="evenodd" d="M17.4756 0.418927C18.7629 0.269906 20.0677 0.396841 21.3004 0.791004C25.9889 2.28286 28.6269 7.20776 27.1904 11.826C26.5825 15.4077 17.7414 22.3469 14.5362 23.5745C14.3908 23.6273 14.2357 23.6495 14.0811 23.6397C13.9264 23.63 13.7755 23.5885 13.6381 23.5179C-9.51673 12.8768 2.49355 -3.90864 13.8431 1.65428C14.9491 0.98939 16.1883 0.567948 17.4756 0.418927ZM7.11012 3.08599C-1.42874 7.05916 3.7682 15.1989 9.48316 18.5353C10.3309 19.1167 11.1092 19.6002 11.7795 19.9929C9.45199 14.0208 7.86077 7.44244 11.9245 3.18741C10.3864 2.57565 8.67354 2.53957 7.11012 3.08599ZM12.0816 7.18299C17.0543 -4.71884 37.5028 8.73617 14.6645 20.9588C13.0961 17.4904 10.8142 11.7659 12.0816 7.18299ZM16.384 12.8827C21.8484 15.7615 25.7143 7.30682 19.8387 5.22294C15.0051 3.71693 12.0061 10.3613 16.384 12.8827ZM16.5939 8.61824C15.7845 11.109 19.636 12.3331 20.461 9.84829H20.4574C21.2776 7.35872 17.4033 6.12749 16.5939 8.61824Z" fill="url(#paint0_linear_628_3399)"/>
    <defs>
        <linearGradient id="paint0_linear_628_3399" x1="31.6916" y1="-1.56019" x2="-7.02678" y2="20.7509" gradientUnits="userSpaceOnUse">
            <stop stop-color="#FF005D"/>
            <stop offset="0.505208" stop-color="#D80E5D"/>
            <stop offset="1" stop-color="#B01B5D"/>
        </linearGradient>
    </defs>
</svg>
