<svg width="188" height="160" viewBox="0 0 188 160" fill="none" xmlns="http://www.w3.org/2000/svg">
<path fill-rule="evenodd" clip-rule="evenodd" d="M118.054 0.415939C126.963 -0.608104 135.994 0.264167 144.525 2.97278C176.973 13.2245 195.231 47.0674 185.289 78.8032C181.081 103.415 119.894 151.1 97.7106 159.537C96.7041 159.899 95.6311 160.052 94.5605 159.985C93.49 159.918 92.4457 159.633 91.4948 159.148C-68.7569 86.024 14.3649 -29.3222 92.9139 8.905C100.568 4.33605 109.144 1.43998 118.054 0.415939ZM46.3156 18.7434C-12.7808 46.0463 23.1866 101.981 62.7391 124.908C68.6064 128.903 73.9924 132.226 78.6315 134.924C62.5233 93.885 51.5107 48.6801 79.6357 19.4404C68.99 15.2365 57.1358 14.9886 46.3156 18.7434ZM80.7228 46.8972C115.138 -34.8897 256.659 57.5704 98.5986 141.562C87.7437 117.727 71.9509 78.3899 80.7228 46.8972ZM110.499 86.0645C148.317 105.847 175.073 47.7482 134.408 33.4281C100.956 23.0792 80.2 68.7379 110.499 86.0645ZM111.952 56.76C106.35 73.8759 133.006 82.288 138.715 65.2126H138.691C144.367 48.1047 117.553 39.644 111.952 56.76Z" fill="url(#paint0_linear_1379_26605)"/>
<defs>
<linearGradient id="paint0_linear_1379_26605" x1="216.441" y1="-13.1842" x2="-50.5699" y2="141.777" gradientUnits="userSpaceOnUse">
<stop stop-color="#FF005D"/>
<stop offset="0.505208" stop-color="#D80E5D"/>
<stop offset="1" stop-color="#B01B5D"/>
</linearGradient>
</defs>
</svg>
