
<svg  viewBox="0 0 470 666" fill="none" xmlns="http://www.w3.org/2000/svg">
    <path d="M232.157 395.426C232.157 395.426 217.186 396.564 196.149 410.795C196.149 410.795 214.532 418.954 232.157 395.426Z" fill="#7F2751"/>
    <path d="M68.0554 417.664L67.4679 424.172L66.8425 430.87L50.6957 607.18H44.29L51.9844 430.87L52.2876 424.172L52.5719 417.664H68.0554Z" fill="#C47392"/>
    <path d="M108.631 620.158C108.631 627.273 102.87 633.042 95.7631 633.042H58.9022C49.0474 633.042 41.0498 628.355 41.0498 618.469V616.041C41.0498 611.259 44.9349 607.369 49.7107 607.369L71.8462 602.758L103.363 596.193L106.888 595.453L108.631 620.158Z" fill="#7F2751"/>
    <path d="M104.803 603.005C104.803 608.66 101.96 613.65 97.6392 616.629C94.986 618.45 91.7832 619.513 88.315 619.513C79.2183 619.513 71.8271 612.132 71.8271 603.005C71.8271 602.929 71.8271 602.834 71.8271 602.759L79.9953 601.051L103.344 596.193C104.272 598.281 104.803 600.576 104.803 603.005Z" fill="#FFBBC8"/>
    <path d="M104.803 603.005C104.803 608.659 101.96 613.65 97.6391 616.629C97.26 616.648 96.862 616.667 96.4641 616.667C87.6516 616.667 80.4689 609.76 79.9951 601.07L103.343 596.212C104.272 598.281 104.803 600.576 104.803 603.005Z" fill="#F993A6"/>
    <path d="M410.454 65.5754V223.897C410.454 233.271 402.854 240.879 393.492 240.879H270.629C261.267 240.879 253.667 233.271 253.667 223.897V65.5754C253.667 56.2021 261.267 48.5933 270.629 48.5933H393.492C402.854 48.5933 410.454 56.2021 410.454 65.5754Z" fill="#C47392"/>
    <path d="M206.554 89.7867H83.6902C74.3281 89.7867 66.7285 97.3954 66.7285 106.769V265.091C66.7285 274.464 74.3281 282.073 83.6902 282.073H182.902L207.122 303.248L202.744 282.073H206.554C215.916 282.073 223.515 274.464 223.515 265.091V106.769C223.515 97.3954 215.916 89.7867 206.554 89.7867Z" fill="#C47392"/>
    <path d="M231.532 381.005H204.184C201.645 381.005 199.579 378.937 199.579 376.394V318.655C199.579 316.113 201.645 314.045 204.184 314.045H231.532C234.071 314.045 236.137 316.113 236.137 318.655V376.394C236.137 378.937 234.071 381.005 231.532 381.005Z" fill="#973665"/>
    <path d="M162.415 424.305H42.2618C38.8127 424.305 36.0078 421.496 36.0078 418.043V417.284C36.0078 413.831 38.8127 411.023 42.2618 411.023H162.415C165.864 411.023 168.669 413.831 168.669 417.284V418.043C168.669 421.496 165.864 424.305 162.415 424.305Z" fill="#C47392"/>
    <path d="M158.644 607.18H152.239L136.092 430.87L135.485 424.172L134.879 417.664H150.362L150.647 424.172L150.95 430.87L158.644 607.18Z" fill="#C47392"/>
    <path d="M230.395 382.713H203.048C200.508 382.713 198.442 380.645 198.442 378.102V320.363C198.442 317.82 200.508 315.752 203.048 315.752H230.395C232.934 315.752 235 317.82 235 320.363V378.102C235 380.645 232.934 382.713 230.395 382.713Z" fill="#7F2751"/>
    <path d="M98.2263 513.218C95.213 522.307 86.4763 528.265 76.9247 528.056L53.9933 527.563C41.4663 526.766 31.4219 524.907 29.7731 512.858C28.1243 500.809 36.6525 495.838 49.1417 492.157L71.0876 485.497C80.2413 482.708 90.2667 486.085 95.5921 494.035C97.4114 496.73 98.6433 499.879 99.1171 503.333C99.5909 506.748 99.2497 510.126 98.2263 513.218Z" fill="#7F2751"/>
    <path d="M304.363 623.744H297.957L284.084 582.513L281.545 574.923L280.616 572.153H296.081L296.536 574.923L297.748 582.513L304.363 623.744Z" fill="#C47392"/>
    <path d="M387.656 623.744H380.72L358.736 582.513L354.699 574.923L353.221 572.153L365.501 566.005L368.913 574.923L371.831 582.513L387.656 623.744Z" fill="#C47392"/>
    <path d="M200.527 572.153L199.598 574.923L197.04 582.513L183.167 623.744H176.762L183.376 582.513L184.589 574.923L185.044 572.153H200.527Z" fill="#C47392"/>
    <path d="M436.797 461.76C436.797 462.481 436.645 463.202 436.38 463.866L394.762 570.958C393.853 573.291 391.616 574.828 389.115 574.828H159.857C157.204 574.828 154.854 573.083 154.058 570.54C148.827 553.482 132.567 482.385 138.12 454.853C138.593 452.463 140.432 450.584 142.801 450.091C158.568 446.732 213.755 441.894 244.268 434.892C246.201 434.456 247.774 433.033 248.494 431.173C253.08 419.182 270.629 374.004 281.109 356.965C282.209 355.181 284.161 354.08 286.264 354.08H411.97C414.661 354.08 417.03 355.845 417.788 358.426C417.807 358.501 417.826 358.577 417.864 358.653C418.698 361.518 419.873 365.598 421.219 370.588C426.108 388.595 433.367 418.252 435.887 443.867C436.513 450.148 436.835 456.182 436.797 461.76Z" fill="white" stroke="#7F2751" stroke-width="4" stroke-miterlimit="10"/>
    <path d="M165.296 506.407L295.039 485.82H316.928L334.003 427.284H271.539L243.528 447.985L166.054 459.882C162.51 460.451 160.046 463.752 160.52 467.32L165.296 506.407Z" fill="#F3D1D6"/>
    <path d="M308.362 506.407L292.613 552.382H181.576L168.215 513.37L178.108 556.651H296.366L308.362 506.407Z" fill="#FADDE2"/>
    <path d="M314.123 404.135C304.552 419.713 244.134 448.801 244.134 448.801C235.739 454.17 224.576 451.685 219.232 443.279C217.318 440.281 216.408 436.904 216.408 433.583C216.408 427.625 219.365 421.781 224.747 418.328C224.747 418.328 231.153 415.482 240.287 410.776C248.247 406.677 258.272 401.137 267.957 394.819C277.015 388.918 285.771 382.333 292.272 375.56C298.488 369.089 318.823 396.469 314.123 404.135Z" fill="#F993A6"/>
    <path d="M425.123 376.186L325.134 384.401C325.134 384.401 313.233 349.527 322.178 348.407C336.183 346.643 348.976 345.257 360.384 344.157C384.756 341.823 402.779 340.855 412.88 340.457C418.964 340.21 422.167 340.191 422.167 340.191C430.714 339.489 438.2 345.846 438.901 354.403L439.318 359.45C440.019 367.989 433.651 375.484 425.123 376.186Z" fill="#EB7B8E"/>
    <path d="M425.123 376.186L379.222 377.21C379.222 377.21 385.476 355.352 377.517 342.677C377.498 342.639 402.76 340.855 412.88 340.476C418.964 340.229 422.167 340.21 422.167 340.21C430.714 339.508 438.2 345.865 438.901 354.422L439.318 359.469C440.019 367.989 433.651 375.484 425.123 376.186Z" fill="#973665"/>
    <path d="M341.073 314.652C337.339 326.34 333.416 333.968 329.872 332.564C327.162 331.501 323.884 324.348 324.736 316.056C325.002 313.494 325.665 310.838 326.859 308.2C331.881 297.119 340.618 293.078 346.625 292.414C349.468 292.11 351.686 292.547 352.595 293.363C357.276 297.556 345.166 301.806 341.073 314.652Z" fill="#7F2751"/>
    <path d="M334.877 318.362C335.48 310.715 332.569 304.247 328.374 303.916C324.18 303.584 320.291 309.514 319.688 317.161C319.085 324.808 321.996 331.276 326.191 331.608C330.385 331.939 334.274 326.009 334.877 318.362Z" fill="#7F2751"/>
    <path d="M379.297 317.991C364.856 288.524 346.341 301.484 344.919 302.546C344.862 302.584 344.825 302.641 344.787 302.717L341.205 312.413C341.148 312.565 341.205 312.735 341.337 312.83L352.841 321.35C353.031 321.502 353.031 321.786 352.841 321.938C351.041 323.361 349.335 325.088 347.819 327.099C341.224 335.922 335.86 344.536 342.058 349.166C348.255 353.815 363.643 352.714 370.239 343.891C374.863 337.687 376.398 330.476 374.768 325.107C374.654 324.746 375.109 324.462 375.374 324.727C377.137 326.473 378.918 327.27 380.056 326.625C381.742 325.676 381.382 321.881 379.297 317.991Z" fill="#7F2751"/>
    <path d="M337.926 310.079C334.894 319.547 331.71 325.733 328.829 324.613C327.957 324.272 327.01 323.152 326.233 321.502C324.83 318.561 324.622 315.202 325.456 312.052C325.797 310.781 326.252 309.491 326.82 308.219C331.843 297.138 340.579 293.097 346.587 292.433C346.852 292.547 347.08 292.679 347.25 292.831C351.06 296.209 341.243 299.643 337.926 310.079Z" fill="#973665"/>
    <path d="M435.887 443.867L417.902 446.637L409.791 377.229L421.219 370.607C426.108 388.595 433.367 418.233 435.887 443.867Z" fill="white"/>
    <path d="M436.994 461.099C436.994 461.812 436.842 462.526 436.575 463.183L394.783 569.169C393.869 571.479 391.623 573 389.111 573H308L343.55 464.61C344.94 460.348 348.651 457.23 353.123 456.498L425.176 444.968C429.458 436.499 417.411 359 417.411 359L417.982 359.056C422.625 374.661 437.337 426.903 436.994 461.099Z" fill="#FADDE2"/>
    <path d="M299.89 506.672L179.092 516.596C168.006 517.507 158.284 509.253 157.374 498.153L156.692 489.861C155.782 478.761 164.026 469.027 175.113 468.116L295.929 458.193C307.016 457.282 316.738 465.536 317.648 476.636L318.33 484.928C319.24 496.028 310.996 505.761 299.89 506.672Z" fill="#7F2751"/>
    <path d="M186.787 504.168L130.425 606.895C123.962 618.678 109.199 622.966 97.43 616.496C93.7534 614.485 90.8159 611.657 88.6933 608.356C86.1727 604.428 84.8271 599.836 84.8271 595.15C84.8271 591.184 85.7937 587.18 87.8405 583.461L122.503 520.296L144.203 480.734C149.566 470.981 161.809 467.414 171.55 472.765L178.846 476.769C188.568 482.157 192.131 494.415 186.787 504.168Z" fill="#7F2751"/>
    <path d="M124.626 542.875L88.6933 608.356C86.1727 604.428 84.8271 599.836 84.8271 595.15C84.8271 591.184 85.7937 587.18 87.8405 583.461L122.503 520.296C127.601 526.501 128.719 535.418 124.626 542.875Z" fill="#973665"/>
    <path d="M330.195 449.123L274.42 402.446L289.771 364.118L409.734 364.497C409.734 364.497 414.472 391.821 407.65 436.79L330.195 449.123Z" fill="#FADDE2"/>
    <path d="M292.821 518.683C314.037 518.683 331.236 501.463 331.236 480.222C331.236 458.981 314.037 441.761 292.821 441.761C271.605 441.761 254.406 458.981 254.406 480.222C254.406 501.463 271.605 518.683 292.821 518.683Z" fill="#7F2751"/>
    <path d="M434.162 374.516C434.049 374.592 433.954 374.668 433.84 374.763C432.968 375.503 428.42 379.316 421.389 384.402C418.83 386.261 415.931 388.272 412.766 390.378C405.583 395.16 396.998 400.321 387.731 404.856C380.491 408.404 372.816 411.554 365.065 413.812C364.818 414.381 364.553 414.931 364.269 415.501C361.597 420.813 357.598 425.576 353.409 429.655C348.027 434.892 342.323 439.01 338.684 441.704C326.896 450.394 326.138 459.654 326.726 464.435C326.763 464.777 326.82 465.081 326.877 465.365C326.896 465.46 326.915 465.555 326.934 465.631C326.972 465.839 327.01 466.048 327.067 466.219C327.086 466.257 327.086 466.314 327.105 466.352C327.105 466.371 327.105 466.371 327.105 466.39C327.124 466.466 327.142 466.523 327.161 466.598C327.199 466.769 327.256 466.921 327.294 467.054C327.313 467.092 327.313 467.149 327.332 467.187C327.446 467.528 327.503 467.699 327.503 467.699L314.843 465.555L308.759 464.53L291.457 461.589L265.133 457.111C266.459 456.22 267.634 455.29 268.696 454.322C278.607 445.271 276.902 433.944 276.902 433.944C275.822 424.077 274.23 417.113 273.49 411.098C273.415 410.491 273.358 409.884 273.301 409.296C273.301 409.258 273.301 409.22 273.282 409.182C272.657 402.522 273.32 396.811 277.281 389.145C277.508 388.709 277.736 388.291 278.001 387.855C278.607 386.792 279.328 385.749 280.124 384.724C280.484 384.269 280.844 383.813 281.223 383.377C281.886 382.618 282.587 381.878 283.326 381.157C284.861 379.696 286.586 378.349 288.424 377.21C288.424 377.21 288.443 377.191 288.462 377.191C290.926 375.673 293.655 374.535 296.536 373.985L304.78 372.22C307.907 371.556 310.749 369.924 312.929 367.571L319.922 360.001L328.715 350.475L359.247 346.756L356.65 356.528L356.271 357.951L353.751 367.476C352.955 370.493 354.528 373.245 356.934 374.421C358.204 375.047 359.72 375.237 361.217 374.782C361.464 374.706 361.729 374.611 361.976 374.497C365.159 373.074 368.343 371.575 371.47 370.038C394.724 358.502 415.286 344.252 418.186 342.222C418.413 342.051 418.66 341.918 418.925 341.804C424.459 339.375 430.789 340.761 435.11 344.878C436.493 346.206 437.687 347.8 438.559 349.66L440.701 354.175L440.72 354.232C443.771 361.025 442.482 368.653 434.162 374.516Z" fill="#FFA9B8"/>
    <path d="M381.212 353.872L381.648 361.405L427.511 340.134C427.511 340.134 419.399 339.869 404.996 341.083L381.212 353.872Z" fill="#7F2751"/>
    <path d="M191.43 361.158L185.555 361.424C184.703 361.462 183.982 360.797 183.945 359.944L183.092 341.064C182.978 338.597 184.892 336.491 187.375 336.377C189.839 336.264 191.942 338.18 192.056 340.666L192.909 359.545C192.947 360.399 192.283 361.12 191.43 361.158Z" fill="#FFBBC8"/>
    <path d="M201.626 348.521L195.751 348.787C194.899 348.825 194.178 348.161 194.141 347.307L193.629 335.979C193.515 333.512 195.429 331.406 197.912 331.292C200.376 331.178 202.479 333.095 202.593 335.58L203.105 346.908C203.143 347.762 202.479 348.483 201.626 348.521Z" fill="#FFBBC8"/>
    <path d="M212.447 349.185L206.572 349.451C205.72 349.489 204.999 348.825 204.961 347.971L204.279 332.564C204.166 330.097 206.08 327.991 208.562 327.877C211.026 327.763 213.13 329.679 213.243 332.165L213.926 347.572C213.964 348.426 213.3 349.147 212.447 349.185Z" fill="#FFBBC8"/>
    <path d="M222.208 360.304L216.333 360.001C215.48 359.963 214.836 359.223 214.874 358.369L215.745 341.956C215.878 339.489 217.982 337.573 220.464 337.706C222.928 337.838 224.842 339.945 224.71 342.43L223.838 358.843C223.781 359.697 223.061 360.342 222.208 360.304Z" fill="#FFBBC8"/>
    <path d="M190.577 259.626L198.006 295.583L172.801 273.553L190.577 259.626Z" fill="white" stroke="#C47392" stroke-width="4" stroke-miterlimit="10"/>
    <path d="M78.8385 522.744C87.9445 522.744 95.3264 515.353 95.3264 506.236C95.3264 497.119 87.9445 489.728 78.8385 489.728C69.7325 489.728 62.3506 497.119 62.3506 506.236C62.3506 515.353 69.7325 522.744 78.8385 522.744Z" fill="#FFBBC8"/>
    <path d="M90.5051 518.237C99.5811 517.492 106.376 510.013 105.681 501.532C104.987 493.051 97.0661 486.779 87.9901 487.524C78.9142 488.269 72.1196 495.749 72.8141 504.23C73.5086 512.711 81.4291 518.982 90.5051 518.237Z" fill="#F993A6"/>
    <path d="M401.737 56.4677V214.79C401.737 224.163 394.137 231.772 384.775 231.772H261.912C252.55 231.772 244.95 224.163 244.95 214.79V56.4677C244.95 47.0944 252.55 39.4856 261.912 39.4856H384.775C394.137 39.4856 401.737 47.0944 401.737 56.4677Z" fill="white" stroke="#C47392" stroke-width="4" stroke-miterlimit="10"/>
    <path d="M385.608 118.21C385.608 133.807 379.923 148.095 370.523 159.081C370.428 159.176 370.352 159.29 370.257 159.385C370.219 159.423 370.2 159.46 370.163 159.498C368.59 161.32 366.903 163.047 365.102 164.659C361.881 167.601 358.356 170.2 354.584 172.42C354.148 172.686 353.713 172.932 353.277 173.179C352.386 173.672 351.495 174.147 350.586 174.583C349.486 175.133 348.387 175.627 347.25 176.101C339.764 179.27 331.52 181.015 322.878 181.015C322.537 181.015 322.196 181.015 321.874 181.015C321.495 181.015 321.135 180.996 320.756 180.996C315.146 180.807 309.726 179.877 304.59 178.321C303.472 177.979 302.354 177.6 301.254 177.202C296.441 175.437 291.892 173.084 287.704 170.238C285.942 169.043 284.236 167.752 282.606 166.386C276.106 160.941 270.723 154.186 266.876 146.539C265.227 143.275 263.863 139.841 262.783 136.293C261.077 130.563 260.148 124.51 260.148 118.229C260.148 83.5441 288.235 55.4241 322.878 55.4241C357.522 55.4051 385.608 83.5251 385.608 118.21Z" fill="#F3D1D6"/>
    <path d="M214.4 99.1221V257.444C214.4 266.817 206.8 274.426 197.438 274.426H74.575C65.2129 274.426 57.6133 266.817 57.6133 257.444V99.1221C57.6133 89.7487 65.2129 82.14 74.575 82.14H197.438C206.8 82.14 214.4 89.7297 214.4 99.1221Z" fill="white" stroke="#C47392" stroke-width="4" stroke-miterlimit="10"/>
    <path d="M355.533 164.318C364.115 164.318 371.073 157.352 371.073 148.759C371.073 140.166 364.115 133.2 355.533 133.2C346.95 133.2 339.992 140.166 339.992 148.759C339.992 157.352 346.95 164.318 355.533 164.318Z" fill="#7F2751"/>
    <path d="M370.239 148.949C368.628 150.808 366.903 152.573 365.084 154.224C361.502 157.487 357.541 160.352 353.258 162.724C352.595 162.667 351.912 162.572 351.249 162.421C344.73 161.035 339.916 156.178 338.665 150.467H296.782V85.3846H347.194V128.57C347.194 131.341 349.562 133.504 352.31 133.257C353.94 133.124 355.646 133.219 357.352 133.579C365.122 135.211 370.485 141.833 370.239 148.949Z" fill="#7F2751"/>
    <path d="M198.802 160.903C198.802 178.663 191.449 194.696 179.623 206.137C178.941 206.802 178.259 207.428 177.538 208.054C176.515 208.946 175.473 209.818 174.411 210.653C174.089 210.9 173.786 211.128 173.464 211.374C172.289 212.247 171.095 213.063 169.863 213.86C169.579 214.05 169.276 214.239 168.991 214.41C163.173 218.015 156.711 220.71 149.812 222.247C149.206 222.379 148.58 222.512 147.974 222.626C147.519 222.721 147.083 222.797 146.628 222.873C143.179 223.461 139.616 223.765 135.996 223.765C132.794 223.765 129.667 223.518 126.596 223.063C124.644 222.778 122.73 222.398 120.854 221.924C119.376 221.564 117.917 221.146 116.495 220.672C114.107 219.894 111.795 218.983 109.54 217.921C106.072 216.308 102.774 214.391 99.6852 212.19C98.567 211.393 97.4868 210.577 96.4255 209.705C95.7811 209.192 95.1557 208.661 94.5303 208.111C93.867 207.523 93.2037 206.915 92.5594 206.308C90.2094 204.05 88.0299 201.622 86.059 199.041C77.9856 188.453 73.1719 175.228 73.1719 160.884C73.1719 126.161 101.277 98.0215 135.959 98.0215C170.697 98.0405 198.802 126.179 198.802 160.903Z" fill="#F3D1D6"/>
    <path d="M360.763 349.337C357.428 359.526 350.378 365.465 342.645 367.211C338.722 368.103 334.61 367.894 330.725 366.623C319.183 362.828 315.014 351.31 320.055 335.941C323.201 326.34 326.631 315.771 334.25 311.312C338.552 308.808 342.721 308.694 346.815 309.87C347.08 309.946 347.345 310.022 347.592 310.117C351.647 311.445 355.096 313.665 357.2 318.067C361.104 326.245 364.042 339.375 360.763 349.337Z" fill="#FFBBC8"/>
    <path d="M369.272 335.486C369.102 341.083 364.724 346.472 360.782 346.358C356.84 346.225 354.812 340.628 354.983 335.03C355.153 329.433 358.47 325.998 362.412 326.112C366.354 326.245 369.443 329.888 369.272 335.486Z" fill="#FFA9B8"/>
    <path d="M365.027 335.524C364.932 338.389 362.696 341.14 360.687 341.083C358.678 341.026 357.636 338.161 357.731 335.296C357.825 332.431 359.512 330.666 361.54 330.742C363.568 330.818 365.122 332.677 365.027 335.524Z" fill="#EB7B8E"/>
    <path d="M248.835 435.632C248.607 445.309 240.742 453.203 231.077 453.487C223.762 453.696 217.394 449.597 214.286 443.545C213.32 442.008 212.372 440.414 211.424 438.763C201.285 420.984 192.17 397.095 187.583 384.269C185.29 380.664 183.888 376.413 183.679 371.841L183.395 365.427C183.376 365.124 183.376 364.801 183.376 364.497C183.376 355.731 188.967 348.161 196.907 345.352C198.746 344.707 200.717 344.309 202.763 344.214C214.703 343.683 224.804 352.923 225.335 364.877L226.226 384.724C231.096 397.949 237.786 413.717 245.12 423.83C245.84 424.817 246.371 425.766 246.769 426.714C248.153 429.352 248.911 432.407 248.835 435.632Z" fill="#FFBBC8"/>
    <path d="M317.515 501.53C314.559 512.346 304.78 519.442 294.091 519.442C291.969 519.442 289.808 519.157 287.667 518.569L179.226 488.893L113.975 519.935C110.602 521.529 107.058 522.288 103.571 522.288C94.4739 522.288 85.7562 517.165 81.6058 508.399C75.8445 496.255 80.9993 481.759 93.1283 475.991L95.3646 474.928L167.419 440.66C174.829 437.131 183.111 437.7 189.763 441.438C190.369 441.552 190.976 441.704 191.601 441.856L300.345 471.608L300.478 471.646C300.838 471.74 301.179 471.854 301.52 471.968C313.839 475.915 320.965 488.912 317.515 501.53Z" fill="#973665"/>
    <path d="M146.496 208.149C155.602 208.149 162.984 200.758 162.984 191.641C162.984 182.524 155.602 175.133 146.496 175.133C137.39 175.133 130.008 182.524 130.008 191.641C130.008 200.758 137.39 208.149 146.496 208.149Z" fill="#7F2751"/>
    <path d="M434.163 374.516C434.049 374.592 433.954 374.668 433.84 374.763C432.969 375.503 428.42 379.316 421.389 384.402C418.831 386.261 415.931 388.272 412.766 390.378C399.784 398.196 388.091 404.666 387.731 404.856C380.492 408.404 372.816 411.554 365.065 413.812C364.819 414.381 364.553 414.931 364.269 415.501C361.597 420.813 357.598 425.576 353.41 429.655C348.028 434.892 342.323 439.01 338.684 441.704C326.896 450.394 326.138 459.654 326.726 464.435C326.764 464.777 326.821 465.081 326.878 465.365C326.897 465.46 326.915 465.555 326.934 465.631C326.972 465.839 327.01 466.048 327.067 466.219C327.086 466.257 327.086 466.314 327.105 466.352C327.105 466.371 327.105 466.371 327.105 466.39C327.124 466.466 327.143 466.523 327.162 466.598C327.2 466.769 327.257 466.921 327.294 467.054C327.313 467.092 327.313 467.149 327.332 467.187C327.446 467.528 327.503 467.699 327.503 467.699L314.843 465.555L308.76 464.53C308.76 464.53 279.84 462.936 280.882 462.215C285.241 459.179 284.862 454.246 284.862 454.246C289.789 458.231 290.926 441.533 290.926 441.533C301.16 435.462 289.979 420.282 289.979 420.282C290.225 420.472 291.324 420.567 292.424 420.889C301.122 423.508 330.156 429.959 350.245 416.297C357.105 411.63 356.499 399.031 346.777 395.255C343.707 394.059 340.58 393.111 337.301 393.225C319.581 393.832 315.582 372.656 315.582 372.656L353.107 353.872L356.29 357.989L353.77 367.514C352.974 370.531 355.115 372.505 356.954 374.459C360.422 378.14 361.597 382.03 361.995 384.591C362.355 386.868 363.795 388.823 365.861 389.847C371.205 392.504 382.728 394.724 402.57 382.713C405.261 381.081 440.473 377.21 440.663 354.251C440.663 354.194 440.682 354.175 440.739 354.194L440.758 354.251C443.771 361.025 442.482 368.653 434.163 374.516Z" fill="#F993A6"/>
    <path d="M360.763 349.337C357.427 359.526 350.377 365.465 342.645 367.211L338.665 367.135C358.564 337.345 351.742 312.109 346.814 309.87C347.08 309.946 347.345 310.022 347.591 310.117C351.647 311.445 355.096 313.665 357.2 318.067C361.104 326.245 364.041 339.375 360.763 349.337Z" fill="#FFA9B8"/>
    <path d="M319.884 360.019L318.766 367.723C316.113 374.744 310.048 374.554 310.048 374.554C296.744 372.732 289.031 376.888 288.443 377.21C290.907 375.692 293.636 374.554 296.517 374.004L304.761 372.239C307.888 371.575 310.73 369.943 312.91 367.59L319.884 360.019Z" fill="#F993A6"/>
    <path d="M421.389 384.402C412.994 390.473 401.073 398.329 387.712 404.875C380.473 408.423 372.797 411.573 365.046 413.831C364.8 414.4 364.534 414.95 364.25 415.519C361.578 420.832 357.579 425.595 353.391 429.674C348.009 434.911 342.304 439.029 338.666 441.723C326.878 450.413 326.12 459.673 326.707 464.454C326.707 464.473 326.707 464.473 326.707 464.492H314.768C326.328 442.672 316.663 440.395 316.663 440.395C320.074 430.149 306.599 424.02 306.05 423.887C346.606 427.682 360.441 409.846 360.441 409.846C384.055 405.501 421.067 384.572 421.389 384.402Z" fill="#EB7B8E"/>
    <path d="M321.23 414.779C323.009 414.779 324.451 414.057 324.451 413.167C324.451 412.276 323.009 411.554 321.23 411.554C319.45 411.554 318.008 412.276 318.008 413.167C318.008 414.057 319.45 414.779 321.23 414.779Z" fill="#F993A6"/>
    <path d="M304.06 417.493C298.829 423.792 286.928 423.128 273.472 409.656C273.396 409.049 273.339 409.884 273.282 409.296C273.282 409.258 273.282 409.22 273.264 409.182C272.638 402.522 273.301 396.811 277.262 389.145C277.49 388.709 277.717 388.291 277.982 387.855C278.589 386.792 279.309 385.749 280.105 384.724C280.465 384.269 280.825 383.813 281.204 383.377C285.715 384.458 290.566 386.887 294.982 390.587C305.235 399.164 309.29 411.193 304.06 417.493Z" fill="#FFBBC8"/>
    <path d="M287.746 405.785C288.016 404.936 286.859 403.811 285.163 403.272C283.467 402.733 281.874 402.985 281.604 403.834C281.335 404.683 282.492 405.808 284.188 406.347C285.884 406.886 287.477 406.635 287.746 405.785Z" fill="#F993A6"/>
    <path d="M268.677 454.322C278.588 445.271 276.883 433.944 276.883 433.944C275.689 423.071 273.888 415.728 273.282 409.296C272.638 402.579 273.301 396.868 277.262 389.164C277.489 388.728 277.717 388.31 277.982 387.874C277.982 387.874 273.225 401.137 276.883 418.574C280.863 437.549 279.915 447.605 268.677 454.322Z" fill="white"/>
    <path d="M275.367 411.554C275.367 411.554 283.403 418.517 293.788 421.307C293.788 421.307 281.432 422.559 275.367 411.554Z" fill="#EB7B8E"/>
    <path d="M435.092 344.897C431.017 343.815 424.441 344.574 413.904 350.646C390.025 364.384 371.736 369.981 371.452 370.076C394.706 358.539 415.268 344.29 418.168 342.26C418.395 342.089 418.642 341.956 418.907 341.842C424.441 339.394 430.771 340.78 435.092 344.897Z" fill="#FFBBC8"/>
    <path d="M305.842 428.953C305.842 428.953 309.253 435.841 303.378 442.767C303.378 442.767 307.604 452.292 298.905 454.986C298.905 454.986 304.515 449.522 301.862 442.501C301.862 442.501 306.543 436.998 305.842 428.953Z" fill="#FFA9B8"/>
    <path d="M326.802 397.342C325.93 397.342 325.627 396.431 325.343 395.634C325.096 394.932 324.831 394.154 324.244 393.642C324.111 393.528 323.921 393.395 323.789 393.414C323.561 393.433 323.277 393.832 323.012 394.211C322.576 394.819 322.026 395.577 321.098 395.881C319.695 396.317 319.202 395.141 318.748 394.078C318.425 393.338 318.103 392.561 317.497 392.067C316.758 391.498 316.379 391.783 315.507 392.561C314.957 393.054 314.332 393.604 313.479 393.908C312.001 394.42 311.451 393.395 310.977 392.504C310.617 391.84 310.219 391.081 309.423 390.625C308.438 390.056 308.116 390.397 307.452 391.099C306.998 391.574 306.448 392.162 305.538 392.485C304.041 393.016 303.321 391.688 302.62 390.397C302.146 389.506 301.596 388.5 300.762 387.893C299.739 387.134 299.55 387.362 298.962 388.045C298.564 388.519 298.071 389.107 297.162 389.43C296.404 389.695 295.968 389.487 295.74 389.278C294.963 388.557 295.38 386.792 295.475 386.432C295.532 386.223 295.74 386.109 295.93 386.166C296.138 386.223 296.252 386.432 296.195 386.622C296.025 387.286 295.911 388.405 296.252 388.709C296.404 388.842 296.688 388.785 296.915 388.709C297.635 388.462 298.033 387.969 298.375 387.551C298.981 386.83 299.587 386.09 301.198 387.267C302.184 387.988 302.771 389.069 303.283 390.037C304.06 391.498 304.458 392.048 305.273 391.764C306.012 391.498 306.448 391.043 306.884 390.568C307.566 389.847 308.286 389.088 309.783 389.961C310.769 390.53 311.243 391.422 311.622 392.143C312.152 393.149 312.38 393.471 313.195 393.187C313.915 392.921 314.483 392.428 314.976 391.991C315.81 391.251 316.682 390.473 317.933 391.46C318.71 392.067 319.089 392.959 319.43 393.756C319.941 394.932 320.169 395.331 320.851 395.122C321.533 394.913 321.988 394.287 322.367 393.737C322.746 393.206 323.106 392.693 323.675 392.636C324.016 392.599 324.357 392.731 324.717 393.035C325.456 393.68 325.779 394.61 326.044 395.35C326.385 396.355 326.537 396.621 326.916 396.526C328.204 396.261 330.232 394.477 330.251 394.458C330.403 394.325 330.649 394.325 330.782 394.496C330.914 394.648 330.914 394.894 330.744 395.027C330.649 395.103 328.546 396.963 327.067 397.266C326.991 397.323 326.897 397.342 326.802 397.342Z" fill="#EB7B8E"/>
    <path d="M130.387 116.692L128.113 219.495C128.113 219.495 123.091 220.672 116.496 220.691C110.431 218.717 104.784 215.833 99.7046 212.209C98.5865 211.412 97.5062 210.596 96.4449 209.724C95.1183 208.642 93.8296 207.504 92.5978 206.327C90.2478 204.069 88.0683 201.641 86.0973 199.06C82.6671 179.63 105.561 174.564 105.561 174.564C105.561 174.564 91.726 134.338 99.3066 118.779C106.887 103.221 121.291 111.38 121.291 111.38L130.387 116.692Z" fill="#7F2751"/>
    <path d="M317.894 402.294C317.25 402.294 316.833 401.744 316.378 401.156C316.094 400.776 315.772 400.359 315.374 400.055C315.184 399.904 315.108 399.923 315.108 399.923C315.033 399.942 314.9 400.112 314.786 400.264C314.521 400.606 314.142 401.137 313.384 401.08C312.531 401.023 312.247 400.473 312.019 400.018C311.849 399.695 311.716 399.41 311.356 399.278C311.053 399.145 310.768 399.353 310.276 399.714C309.783 400.093 309.176 400.568 308.343 400.473C307.414 400.378 307.092 399.809 306.789 399.315C306.561 398.917 306.353 398.556 305.841 398.272C305.329 397.987 305.045 398.196 304.495 398.746C304.173 399.069 303.832 399.41 303.377 399.448C302.638 399.505 302.392 398.803 302.145 398.12C301.956 397.608 301.747 397.02 301.349 396.621C300.705 395.976 300.174 396.261 299.189 397.02L299.037 397.133C298.109 397.835 296.972 396.887 296.422 396.223C296.289 396.052 296.308 395.824 296.479 395.691C296.649 395.558 296.877 395.577 297.01 395.748C297.028 395.767 298.014 396.944 298.583 396.526L298.734 396.412C299.568 395.767 300.724 394.894 301.899 396.09C302.43 396.621 302.676 397.323 302.866 397.873C303.017 398.291 303.169 398.727 303.32 398.708C303.491 398.689 303.737 398.462 303.965 398.215C304.439 397.741 305.159 397.001 306.22 397.608C306.921 397.987 307.224 398.519 307.471 398.936C307.736 399.391 307.907 399.676 308.437 399.733C308.968 399.79 309.385 399.467 309.821 399.126C310.333 398.727 310.901 398.291 311.64 398.575C312.247 398.822 312.493 399.296 312.683 399.676C312.91 400.112 313.024 400.302 313.422 400.321C313.744 400.34 313.914 400.131 314.161 399.809C314.369 399.543 314.597 399.24 314.976 399.183C315.241 399.145 315.506 399.24 315.81 399.467C316.283 399.847 316.643 400.302 316.966 400.72C317.326 401.175 317.629 401.592 317.913 401.554C318.444 401.517 319.486 400.795 320.036 400.359C320.206 400.226 320.434 400.245 320.566 400.416C320.699 400.587 320.68 400.814 320.51 400.947C320.339 401.08 318.899 402.238 317.97 402.313C317.951 402.294 317.932 402.294 317.894 402.294Z" fill="#EB7B8E"/>
    <path d="M124.512 127.318C128.594 127.318 131.903 124.005 131.903 119.918C131.903 115.831 128.594 112.518 124.512 112.518C120.43 112.518 117.121 115.831 117.121 119.918C117.121 124.005 120.43 127.318 124.512 127.318Z" fill="#F993A6"/>
    <path d="M214.343 442.672C214.286 442.596 213.206 441.154 211.424 438.744C201.285 420.965 192.17 397.076 187.583 384.25C185.29 380.645 183.888 376.394 183.679 371.822L183.395 365.408C183.376 365.105 183.376 364.782 183.376 364.478C183.376 355.712 188.967 348.142 196.907 345.333C193.515 348.578 187.488 355.485 188.398 367.154C188.398 367.154 189.346 378.918 194.273 385.749C194.254 385.749 205.625 423.697 214.343 442.672Z" fill="white"/>
    <path d="M215.765 327.497C217.387 327.497 218.702 326.181 218.702 324.556C218.702 322.932 217.387 321.615 215.765 321.615C214.142 321.615 212.827 322.932 212.827 324.556C212.827 326.181 214.142 327.497 215.765 327.497Z" fill="#973665"/>
    <path d="M327.673 329.034C326.593 328.826 325.759 328.105 325.361 327.175C325.266 326.947 324.944 327.023 324.944 327.27C324.925 328.465 325.323 330.154 327.408 330.495C329.549 330.856 330.516 329.414 330.914 328.389C331.009 328.162 330.724 327.972 330.554 328.143C329.815 328.864 328.753 329.243 327.673 329.034Z" fill="#7F2751"/>
    <path d="M342.702 330.306C343.782 330.438 344.805 330.002 345.469 329.243C345.62 329.053 345.924 329.224 345.848 329.452C345.488 330.59 344.616 332.07 342.512 331.767C340.371 331.444 339.897 329.774 339.821 328.674C339.802 328.427 340.124 328.332 340.238 328.56C340.712 329.49 341.603 330.173 342.702 330.306Z" fill="#7F2751"/>
    <path d="M160.729 142.422C160.729 157.146 151.651 169.081 136.945 169.081C122.238 169.081 112.213 157.146 112.213 142.422C112.213 127.697 115.605 115.763 130.312 115.763C145.018 115.763 160.729 127.697 160.729 142.422Z" fill="#973665"/>
    <path d="M355.154 370.569L287.004 464.492L267.521 458.705L306.827 371.708C306.884 371.822 310.238 368.292 313.081 364.497C313.081 364.497 310.049 378.918 315.734 384.421C317.383 386.014 308.741 402.541 309.291 404.723C309.291 404.723 309.329 404.704 309.386 404.685C310.295 404.325 321.477 399.961 328.432 384.421C331.654 377.21 350.776 364.327 355.154 364.497C355.154 364.497 353.315 372.201 355.154 370.569Z" fill="white"/>
    <path d="M179.623 206.137C178.941 206.802 178.259 207.428 177.538 208.054C176.515 208.946 175.473 209.818 174.411 210.653C172.706 211.982 170.924 213.215 169.086 214.353C168.631 214.638 168.195 214.904 167.741 215.169C161.354 218.926 154.228 221.583 146.647 222.873C143.198 223.461 139.635 223.765 136.016 223.765C129.212 223.765 122.655 222.683 116.514 220.672C110.45 218.698 104.802 215.814 99.7232 212.19C98.6051 211.393 97.5248 210.577 96.4635 209.705C95.8192 209.192 95.1938 208.661 94.5684 208.111C95.2506 207.219 95.9329 206.422 96.4635 205.91C100.178 201.318 105.522 197.409 112.004 194.563C112.421 194.373 112.857 194.184 113.293 194.013C114.107 193.671 114.941 193.368 115.775 193.064C117.538 192.438 119.376 191.869 121.271 191.394C122.351 191.129 123.451 190.882 124.569 190.654V173.331H146.382V189.933C147.424 190.066 148.448 190.218 149.471 190.389C151.461 190.73 153.394 191.167 155.27 191.679C155.441 191.717 155.593 191.774 155.763 191.812C160.539 193.14 164.936 195 168.764 197.276C169.181 197.523 169.579 197.77 169.977 198.016C172.573 199.667 174.904 201.508 176.875 203.519C176.989 203.671 178.372 204.98 179.623 206.137Z" fill="#FFA9B8"/>
    <path d="M112.384 159.574C112.535 164.451 116.344 169.175 119.794 169.062C123.243 168.948 125.005 164.071 124.854 159.176C124.702 154.281 121.803 151.283 118.372 151.396C114.923 151.51 112.213 154.698 112.384 159.574Z" fill="#FFA9B8"/>
    <path d="M115.852 159.423C115.927 161.567 117.576 163.616 119.092 163.578C120.59 163.521 121.367 161.396 121.31 159.252C121.253 157.108 119.983 155.798 118.467 155.855C116.97 155.893 115.795 157.278 115.852 159.423Z" fill="#EB7B8E"/>
    <path d="M370.144 159.498C368.571 161.32 366.884 163.047 365.084 164.659C361.502 167.923 357.541 170.788 353.258 173.16C352.367 173.653 351.477 174.128 350.567 174.564C348.899 171.319 346.833 165.836 345.753 166.253C344.597 166.709 343.422 167.126 342.228 167.506C336.884 169.251 331.236 170.276 325.38 170.504C324.546 170.542 323.712 170.561 322.879 170.561C315.317 170.561 308.058 169.213 301.35 166.766C298.431 165.703 295.626 164.432 292.935 162.952C289.258 160.941 285.79 158.588 282.606 155.912C287.117 150.467 293.921 145.989 302.108 143.067C303.207 142.668 304.325 142.308 305.481 141.985C306.22 141.757 306.978 141.568 307.736 141.378C307.85 141.34 307.983 141.321 308.115 141.283C313.27 140.012 318.823 139.329 324.622 139.329C328.678 139.329 332.601 139.67 336.372 140.296C336.467 140.315 336.543 140.315 336.638 140.334C337.415 140.467 338.192 140.619 338.95 140.771C340.181 141.036 341.394 141.321 342.588 141.644C351.306 143.996 358.754 148.038 364.06 153.142C364.269 153.389 367.699 156.937 370.144 159.498Z" fill="#FFA9B8"/>
    <path d="M118.6 148.892V164.033C118.6 174.564 133.041 182.571 137.115 182.571H140.621C141 182.571 141.512 182.476 142.138 182.287C147.198 180.788 159.118 173.407 159.156 164.014V148.873C159.156 139.481 152.182 131.72 143.161 130.506C142.327 130.392 141.493 130.335 140.64 130.335H137.134C135.883 130.335 134.652 130.449 133.477 130.695C124.986 132.422 118.6 139.917 118.6 148.892Z" fill="#FFA9B8"/>
    <path d="M124.455 148.702V163.844C124.455 173.729 137.191 181.395 142.118 182.306C147.178 180.807 159.099 173.426 159.137 164.033V148.892C159.137 139.5 152.162 131.739 143.141 130.525C142.307 130.411 141.474 130.354 140.621 130.354H140.337C139.995 130.392 139.673 130.468 139.332 130.525C130.842 132.232 124.455 139.727 124.455 148.702Z" fill="#FFBBC8"/>
    <path d="M329.891 111.114C340.285 111.114 348.71 102.678 348.71 92.2723C348.71 81.8664 340.285 73.4308 329.891 73.4308C319.498 73.4308 311.072 81.8664 311.072 92.2723C311.072 102.678 319.498 111.114 329.891 111.114Z" fill="#7F2751"/>
    <path d="M312.74 106.029C323.395 106.029 332.033 97.3807 332.033 86.7128C332.033 76.0449 323.395 67.3969 312.74 67.3969C302.085 67.3969 293.447 76.0449 293.447 86.7128C293.447 97.3807 302.085 106.029 312.74 106.029Z" fill="#973665"/>
    <path d="M336.354 141.188C336.354 150.694 332.051 158.702 326.176 161.225C324.926 161.756 323.599 162.041 322.235 162.041C314.445 162.041 308.135 152.744 308.097 141.283C309.177 141.017 310.295 140.771 311.413 140.562V123.637H333.227V139.86C334.288 139.993 335.33 140.145 336.354 140.315C336.354 140.6 336.354 140.904 336.354 141.188Z" fill="#FFA9B8"/>
    <path d="M327.105 84.2462L325.532 74.3226C324.452 74.1138 323.277 74 322.083 74C316.17 74 311.375 76.6754 311.375 79.9769C311.375 83.2785 316.17 85.9538 322.083 85.9538C325.058 85.9538 327.73 85.2708 329.682 84.1892C328.185 84.2272 327.105 84.2462 327.105 84.2462Z" fill="#7F2751"/>
    <path d="M295.456 110.81C295.607 115.687 299.417 120.411 302.866 120.297C306.315 120.184 308.078 115.307 307.926 110.412C307.774 105.516 304.875 102.518 301.445 102.632C297.995 102.746 295.285 105.934 295.456 110.81Z" fill="#FFBBC8"/>
    <path d="M298.924 110.658C299 112.803 300.648 114.852 302.165 114.814C303.681 114.776 304.439 112.632 304.382 110.488C304.306 108.344 303.055 107.034 301.539 107.091C300.023 107.148 298.867 108.514 298.924 110.658Z" fill="#EB7B8E"/>
    <path d="M348.672 110.241C348.52 115.117 344.711 119.842 341.261 119.728C337.812 119.614 336.05 114.738 336.201 109.843C336.353 104.947 339.253 101.949 342.683 102.063C346.132 102.177 348.823 105.365 348.672 110.241Z" fill="#FFA9B8"/>
    <path d="M345.185 110.089C345.109 112.233 343.46 114.283 341.944 114.245C340.428 114.207 339.67 112.063 339.727 109.918C339.783 107.774 341.053 106.465 342.569 106.522C344.085 106.579 345.261 107.945 345.185 110.089Z" fill="#EB7B8E"/>
    <path d="M342.646 99.5205V114.681C342.646 125.212 328.185 133.257 324.092 133.257H320.586C320.207 133.257 319.695 133.162 319.07 132.972C314.01 131.473 302.07 124.073 302.032 114.681V99.5205C302.032 90.1282 309.006 82.3487 318.046 81.1154C318.88 81.0015 319.714 80.9446 320.567 80.9446H324.073C325.324 80.9446 326.556 81.0774 327.731 81.3051C336.24 83.0128 342.646 90.5267 342.646 99.5205Z" fill="#FFA9B8"/>
    <path d="M336.77 99.3308V114.491C336.77 124.396 324.016 132.081 319.088 132.972C314.028 131.473 302.089 124.073 302.051 114.681V99.5205C302.051 90.1282 309.025 82.3487 318.065 81.1154C318.899 81.0015 319.733 80.9446 320.585 80.9446H320.87C321.211 80.9826 321.533 81.0585 321.874 81.1154C330.365 82.8231 336.77 90.3369 336.77 99.3308Z" fill="#FFBBC8"/>
    <path d="M200.034 241.733H70.7842C69.1543 241.733 67.8467 240.424 67.8467 238.792C67.8467 237.161 69.1543 235.851 70.7842 235.851H200.034C201.664 235.851 202.972 237.161 202.972 238.792C202.972 240.424 201.664 241.733 200.034 241.733Z" fill="#F3D1D6"/>
    <path d="M142.232 257.103H70.7842C69.1543 257.103 67.8467 255.793 67.8467 254.162C67.8467 252.53 69.1543 251.221 70.7842 251.221H142.232C143.862 251.221 145.169 252.53 145.169 254.162C145.169 255.793 143.862 257.103 142.232 257.103Z" fill="#F3D1D6"/>
    <path d="M387.845 199.8H258.595C256.965 199.8 255.657 198.491 255.657 196.859C255.657 195.227 256.965 193.918 258.595 193.918H387.845C389.475 193.918 390.782 195.227 390.782 196.859C390.782 198.491 389.475 199.8 387.845 199.8Z" fill="#F3D1D6"/>
    <path d="M369.651 215.169H258.595C256.965 215.169 255.657 213.86 255.657 212.228C255.657 210.596 256.965 209.287 258.595 209.287H369.651C371.281 209.287 372.589 210.596 372.589 212.228C372.589 213.86 371.281 215.169 369.651 215.169Z" fill="#F3D1D6"/>
    <path d="M312.891 107.945C314.597 107.907 315.999 106.693 316.34 105.08C316.416 105.346 316.454 105.63 316.454 105.934C316.492 107.945 314.919 109.596 312.91 109.653C310.901 109.691 309.252 108.116 309.195 106.105C309.195 105.82 309.214 105.535 309.271 105.251C309.726 106.845 311.185 107.983 312.891 107.945Z" fill="#7F2751"/>
    <path d="M331.539 107.945C333.245 107.907 334.647 106.693 334.988 105.08C335.064 105.346 335.102 105.63 335.102 105.934C335.14 107.945 333.567 109.596 331.558 109.653C329.549 109.691 327.901 108.116 327.844 106.105C327.844 105.82 327.863 105.535 327.92 105.251C328.374 106.845 329.815 107.983 331.539 107.945Z" fill="#7F2751"/>
    <path d="M328.432 122.157C328.432 122.157 325.684 125.402 322.348 125.402C319.013 125.402 316.359 122.157 316.359 122.157C316.359 122.157 317.667 120.278 319.581 119.842C320.415 119.652 321.382 120.962 322.405 120.962C323.504 120.962 324.527 119.671 325.418 119.899C327.219 120.335 328.432 122.157 328.432 122.157Z" fill="#EB7B8E"/>
    <path d="M151.234 169.593C151.234 169.593 148.486 172.837 145.151 172.837C141.815 172.837 139.162 169.593 139.162 169.593C139.162 169.593 140.47 167.714 142.384 167.278C143.218 167.088 144.184 168.397 145.208 168.397C146.307 168.397 147.33 167.107 148.221 167.335C150.021 167.771 151.234 169.593 151.234 169.593Z" fill="#EB7B8E"/>
    <path d="M306.827 150.467C306.827 156.595 304.78 162.25 301.331 166.785C294.433 164.261 288.103 160.561 282.588 155.931C287.098 150.486 293.902 146.008 302.089 143.086C303.188 142.687 304.306 142.327 305.463 142.004C306.353 144.661 306.827 147.507 306.827 150.467Z" fill="#FFBBC8"/>
    <path d="M328.431 151.51C328.431 155.077 327.578 159.233 326.157 162.041C324.906 162.572 326.195 166.785 324.83 166.785C323.466 166.785 321.646 169.82 320.282 169.062C317.06 167.259 309.044 164.641 306.826 159.385C304.571 154.053 308.115 146.065 308.096 141.283C309.176 141.017 310.294 140.771 311.413 140.562V133.409C312.133 133.276 312.891 133.2 313.649 133.2C321.817 133.2 328.431 141.397 328.431 151.51Z" fill="#FFBBC8"/>
    <path d="M138.233 374.554L134.916 411.023H113.046L109.729 374.554H138.233Z" fill="#FFBBC8"/>
    <path d="M133.988 405.425C133.135 405.425 132.358 404.856 132.074 403.964C131.714 402.845 132.301 401.63 133.343 401.251C136.565 400.112 139.616 399.031 140.867 391.156C141.152 389.373 140.64 388.576 140.242 388.14C138.385 386.109 133.287 386.337 131.657 386.565C130.558 386.735 129.534 385.901 129.383 384.743C129.231 383.567 129.989 382.504 131.088 382.333C131.941 382.201 139.503 381.214 143.122 385.161C144.203 386.337 145.378 388.462 144.847 391.877C143.217 402.275 138.252 404.04 134.632 405.311C134.424 405.387 134.196 405.425 133.988 405.425Z" fill="#FFA9B8"/>
    <path d="M138.234 374.554L134.917 411.023H125.403L128.341 374.554H138.234Z" fill="#FFA9B8"/>
    <path d="M52.2876 424.305H67.4678L66.8424 431.135H51.9844L52.2876 424.305Z" fill="#B3597A"/>
    <path d="M150.95 431.135H136.092L135.485 424.305H150.647L150.95 431.135Z" fill="#B3597A"/>
    <path d="M184.589 574.923H199.599L197.04 582.513H183.376L184.589 574.923Z" fill="#B3597A"/>
    <path d="M296.536 574.923L297.749 582.513H284.084L281.545 574.923H296.536Z" fill="#B3597A"/>
    <path d="M371.83 582.513H358.735L354.698 574.923H368.912L371.83 582.513Z" fill="#B3597A"/>
    <path d="M269.303 452.349C269.303 452.349 264.811 458.193 279.726 459.369C294.641 460.546 325.494 461.437 325.494 461.437L321.533 473.239L260.774 459.957L269.303 452.349Z" fill="#7F2751"/>
    <path d="M353.637 371.708C353.637 371.708 321.533 402.427 308.494 424.456C295.456 446.467 282.417 462.31 284.653 462.785C313.081 469.046 313.081 480.62 318.766 478.533C322.121 477.3 328.242 451.4 339.992 444.759C339.992 444.759 356.196 431.458 362.923 419.087C364.8 415.633 367.927 413.034 371.641 411.744C382.5 407.987 404.958 398.784 425.786 381.479C427.719 379.886 429.709 378.368 431.794 376.945C435.413 374.459 441.667 369.241 442.558 362.277C443.297 356.528 438.976 349.09 436.74 346.168C434.826 343.645 432.684 340.988 426.809 339.983C416.102 338.161 353.637 371.708 353.637 371.708Z" fill="#973665"/>
    <path d="M304.553 522.212L326.12 454.702C327.484 450.774 330.952 447.928 335.065 447.358L395.786 439.01L393.587 449.161L342.456 457.775L326.404 510.733L304.553 522.212Z" fill="white"/>
    <path d="M306.827 371.632C306.827 371.632 299 372.486 291.836 372.941C287.288 373.226 283.081 375.427 280.257 379.013C274.837 385.882 265.38 396.925 257.685 401.194C246.182 407.569 240.307 410.795 240.307 410.795L232.158 395.426C232.158 395.426 213.49 415.406 196.149 410.795C196.149 410.795 207.88 444.949 224.179 452.349C224.179 452.349 232.347 455.005 244.116 448.801L276.599 431.686C276.599 431.686 269.644 449.066 261.343 457.073C260.699 457.7 261.172 458.781 262.063 458.724C264.243 458.61 267.54 458.591 271.577 458.99C274.912 459.331 288.993 437.245 295.645 418.385C303.34 396.545 306.827 371.632 306.827 371.632Z" fill="#973665"/>
    <path d="M306.827 371.708C306.827 371.708 297.541 372.637 294.698 372.751C294.698 372.751 294.452 376.888 294.698 387.077C294.717 387.703 298.109 389.733 298.299 390.303C298.545 391.043 294.888 394.249 294.888 395.046C295.001 405.008 295.399 416.316 293.77 423.337C293.77 423.337 303.226 399.41 306.827 371.708Z" fill="#7F2751"/>
    <path d="M284.654 408.518C284.654 408.518 280.105 425.595 276.694 431.667L269.909 435.215C269.909 435.215 282.379 413.641 284.654 408.518Z" fill="#7F2751"/>
    <path d="M313.1 393.832C308.665 389.752 307.092 383.927 306.543 379.772C305.955 375.275 306.41 371.803 306.429 371.651L307.187 371.746C307.168 371.878 305.406 385.749 313.612 393.263L313.1 393.832Z" fill="#FADDE2"/>
    <path d="M324.584 391.972L324.338 391.251C324.414 391.232 331.369 388.747 338.419 382.409C345.564 375.996 352.386 372.372 352.443 372.334L352.803 372.998C352.727 373.036 346 376.622 338.931 382.96C331.748 389.43 324.641 391.953 324.584 391.972Z" fill="#FADDE2"/>
    <path d="M279.214 459.293L278.74 458.705C284.445 454.056 290.85 442.805 297.768 425.272C300.97 417.17 308.911 404.647 308.987 404.533L309.631 404.932C309.556 405.065 301.653 417.512 298.488 425.557C291.495 443.203 285.013 454.55 279.214 459.293Z" fill="#FADDE2"/>
    <path d="M353.638 371.708C353.638 371.708 363.871 363.738 372.589 362.22C372.589 362.22 366.335 373.795 352.69 387.077C351.42 388.31 339.955 389.05 338.666 390.303C337.737 391.213 343.764 397.171 342.835 398.082C328.034 412.597 310.807 422.825 307.434 426.24C307.434 426.24 326.726 392.769 353.638 371.708Z" fill="#7F2751"/>
    <path d="M351.894 359.317C351.098 361.86 349.696 364.08 347.857 365.883C345.261 368.425 344.276 370.247 343.006 373.548C341.186 378.311 335.198 385.142 324.092 381.612C317.364 379.487 314.863 375.559 314.199 371.689C313.782 369.241 314.105 366.812 314.578 364.896C315.431 361.405 314.976 359.128 315.014 355.105C315.033 353.113 315.526 349.659 315.886 347.648C317.762 337.326 327.295 332.981 338.23 336.529C338.647 336.662 339.064 336.814 339.481 336.966C349.184 340.666 354.699 350.418 351.894 359.317Z" fill="#973665"/>
    <path d="M331.028 339.736C332.203 340.021 333.321 340.59 334.212 341.406C335.159 342.26 336.827 345.485 333.169 347.971C332.79 348.217 332.43 348.502 332.108 348.825C330.743 350.191 327.067 353.265 323.997 350.513C320.282 347.155 320.927 343.531 322.822 341.899C322.954 341.785 326.46 338.616 331.028 339.736Z" fill="#FFBBC8"/>
    <path d="M351.894 359.317C351.098 361.86 349.696 364.08 347.857 365.883C345.261 368.425 344.275 370.247 343.006 373.548C341.186 378.311 335.198 385.142 324.092 381.612C317.364 379.487 314.863 375.56 314.199 371.689L314.275 371.48C320.264 381.195 330.554 377.476 335.861 367.249C339.992 359.261 342.74 362.885 345.033 352.638C347.383 342.108 338.457 336.681 338.249 336.529C338.666 336.662 339.083 336.814 339.5 336.966C349.184 340.666 354.699 350.418 351.894 359.317Z" fill="#7F2751"/>
    <path d="M333.492 342.643C333.679 341.654 332.371 340.576 330.572 340.235C328.772 339.893 327.162 340.418 326.975 341.406C326.787 342.394 328.095 343.472 329.894 343.814C331.694 344.155 333.304 343.631 333.492 342.643Z" fill="#F993A6"/>
    <path d="M337.434 101.038C337.472 101.418 335.141 100.185 332.43 100.45C329.72 100.716 327.655 102.367 327.617 101.968C327.579 101.57 329.588 99.2928 332.298 99.0462C335.008 98.7995 337.396 100.659 337.434 101.038Z" fill="#EB7B8E"/>
    <path d="M306.391 101.038C306.353 101.418 308.684 100.185 311.394 100.45C314.104 100.716 316.17 102.367 316.208 101.968C316.246 101.589 314.237 99.2928 311.527 99.0462C308.817 98.7995 306.429 100.659 306.391 101.038Z" fill="#EB7B8E"/>
    <path d="M135.77 157.354C137.4 157.316 138.745 156.159 139.067 154.622C139.143 154.888 139.181 155.153 139.181 155.419C139.219 157.335 137.703 158.91 135.808 158.967C133.894 159.005 132.321 157.487 132.264 155.59C132.264 155.305 132.283 155.039 132.339 154.774C132.756 156.292 134.14 157.392 135.77 157.354Z" fill="#7F2751"/>
    <path d="M153.565 157.354C155.194 157.316 156.54 156.159 156.862 154.622C156.938 154.888 156.976 155.153 156.976 155.419C157.014 157.335 155.498 158.91 153.603 158.967C151.688 159.005 150.115 157.487 150.059 155.59C150.059 155.305 150.078 155.039 150.134 154.774C150.551 156.292 151.935 157.392 153.565 157.354Z" fill="#7F2751"/>
    <path d="M159.194 150.77C159.232 151.15 156.995 149.954 154.418 150.201C151.84 150.448 149.87 152.023 149.832 151.662C149.794 151.283 151.708 149.119 154.285 148.873C156.882 148.626 159.156 150.41 159.194 150.77Z" fill="#EB7B8E"/>
    <path d="M129.573 150.77C129.535 151.15 131.771 149.954 134.349 150.201C136.926 150.448 138.897 152.023 138.935 151.662C138.973 151.283 137.059 149.119 134.481 148.873C131.904 148.626 129.611 150.41 129.573 150.77Z" fill="#EB7B8E"/>
    <path d="M329.948 78.9333L328.621 81.2103L326.669 81.0395L326.537 81.0205C325.892 76.5995 317.516 75.6697 313.346 85.3846C310.826 91.2477 309.821 100.982 312.892 116.123C315.886 130.923 315.374 142.118 313.328 150.467C311.736 156.994 305.425 170.048 301.236 177.183C296.423 175.418 291.874 173.065 287.686 170.219C285.923 169.024 284.218 167.733 282.588 166.367C276.088 160.922 270.705 154.167 266.858 146.52C265.209 143.256 263.845 139.822 262.765 136.274C270.762 133.883 277.282 137.963 279.764 140.353C283.536 143.996 289.695 143.636 292.746 139.386C294.944 136.331 295.778 131.492 292.424 123.903C279.347 94.3026 293.94 82.7282 293.94 82.7282C295.494 80.66 308.267 74.1708 317.061 72.1026C321.155 71.1349 325.4 73.4308 325.4 73.4308L329.948 78.9333Z" fill="#973665"/>
    <path d="M343.593 162.231C343.593 164.147 343.1 165.95 342.229 167.525C336.884 169.27 331.237 170.295 325.381 170.523C323.069 168.511 321.609 165.532 321.609 162.231C321.609 156.159 326.537 151.226 332.601 151.226C338.666 151.226 343.593 156.159 343.593 162.231Z" fill="#FFBBC8"/>
    <path d="M168.859 214.41C163.041 218.015 156.711 220.691 149.813 222.247C149.415 221.602 149.093 220.918 148.828 220.197C148.638 221.051 148.335 221.867 147.975 222.645C147.52 222.74 147.084 222.816 146.629 222.892C143.18 223.48 139.617 223.784 135.997 223.784C132.795 223.784 129.667 223.537 126.597 223.082C125.707 221.412 125.214 219.495 125.214 217.484C125.214 210.862 130.577 205.511 137.172 205.511C142.479 205.511 146.97 208.965 148.543 213.746C149.775 209.003 154.077 205.511 159.194 205.511C163.022 205.511 166.377 207.466 168.348 210.426C169.049 211.45 169.144 214.221 168.859 214.41Z" fill="#FFBBC8"/>
    <path d="M321.059 159.347C321.059 159.252 321.04 159.157 321.04 159.062C320.794 156.728 319.297 154.679 317.136 153.711C316.776 153.559 316.435 153.37 316.094 153.142C316.094 153.142 320.813 159.859 321.059 164.071C321.059 164.071 321.552 158.36 325.778 153.635C325.778 153.635 325.683 153.673 325.494 153.749C323.087 154.584 321.362 156.709 321.078 159.233C321.059 159.309 321.059 159.347 321.059 159.347Z" fill="#FFA9B8"/>
    <path d="M350.397 164.223C348.881 164.963 347.346 165.646 345.773 166.253C338.685 169.043 330.953 170.561 322.879 170.561C315.317 170.561 308.059 169.213 301.35 166.766C298.432 165.703 295.627 164.432 292.936 162.952C296.025 159.574 300.478 157.468 305.425 157.468C311.205 157.468 316.322 160.371 319.373 164.792C320.245 166.045 322.064 166.045 322.917 164.792C325.987 160.371 331.085 157.468 336.865 157.468C342.399 157.487 347.308 160.125 350.397 164.223Z" fill="#EB7B8E"/>
    <path d="M329.568 79.882C329.568 79.882 340.75 77.0359 340.56 93.3538C340.56 93.3538 340.75 96.959 339.423 99.9949C339.423 99.9949 335.633 83.5251 329.568 81.3241V79.882Z" fill="#973665"/>
    <path d="M354.585 172.42C354.149 172.686 353.713 172.932 353.277 173.179C352.386 173.672 351.495 174.147 350.586 174.583C349.487 175.133 348.387 175.627 347.25 176.101C339.764 179.27 331.52 181.015 322.878 181.015C322.158 181.015 321.457 180.996 320.756 180.977C320.093 179.118 319.732 177.126 319.732 175.038C319.732 165.343 327.578 157.487 337.263 157.487C346.037 157.487 353.315 163.957 354.585 172.42Z" fill="#EB7B8E"/>
    <path d="M322.746 175.418C322.746 177.372 322.443 179.251 321.855 181.015C321.476 181.015 321.116 180.996 320.737 180.996C315.127 180.807 309.707 179.877 304.571 178.321C298.507 176.481 292.821 173.729 287.686 170.238C289.903 162.876 296.744 157.506 304.837 157.506C314.73 157.487 322.746 165.513 322.746 175.418Z" fill="#EB7B8E"/>
    <path d="M167.627 209.439L156.92 214.6H125.271C127.204 191.622 141.91 184.564 146.364 182.932V189.933C147.406 190.066 148.429 190.218 149.453 190.389C151.443 190.73 153.376 191.167 155.252 191.679C155.423 191.717 155.574 191.774 155.745 191.812C165.675 203.917 167.627 209.439 167.627 209.439Z" fill="#FFBBC8"/>
    <path d="M150.248 211.109C150.229 211.014 150.191 210.938 150.172 210.843C149.49 208.585 147.614 206.877 145.321 206.346C144.942 206.251 144.563 206.137 144.184 205.986C144.184 205.986 150.097 211.659 151.158 215.757C151.158 215.757 150.551 210.046 153.773 204.601C153.773 204.601 153.678 204.657 153.508 204.771C151.309 206.043 150.021 208.471 150.229 211.014C150.248 211.071 150.248 211.109 150.248 211.109Z" fill="#FFA9B8"/>
    <path d="M168.992 214.41C162.283 218.566 154.721 221.507 146.629 222.873C143.18 223.461 139.617 223.765 135.997 223.765C130.785 223.765 125.706 223.12 120.854 221.924C127.582 216.763 140.318 213.272 154.911 213.272C159.895 213.272 164.633 213.67 168.992 214.41Z" fill="#D0869F"/>
    <path d="M168.271 197.011C167.21 204.676 167.627 213.329 167.722 215.169L167.741 215.15C168.196 214.847 168.65 214.524 169.086 214.202C168.821 207.959 169.238 201.963 169.655 197.846L168.271 197.011Z" fill="#D0869F"/>
    <path d="M123.868 220.843L122.333 221.545C118.751 208.225 112.706 196.024 111.985 194.582C112.402 194.392 112.838 194.203 113.274 194.032C119.509 204.221 123.868 220.843 123.868 220.843Z" fill="#D0869F"/>
</svg>
