<svg width="23" height="11" viewBox="0 0 23 11" fill="none" xmlns="http://www.w3.org/2000/svg">
    <path d="M4.28551 1.1392C4.28551 0.586919 3.8378 0.139205 3.28551 0.139205H2.82408C2.63243 0.139205 2.44482 0.194277 2.28357 0.297865L0.327498 1.55452C0.123394 1.68564 0 1.91158 0 2.15417C0 2.71715 0.622013 3.05789 1.09644 2.75481L2.38139 1.93395H2.44105V9.39879C2.44105 9.90813 2.85395 10.321 3.36328 10.321C3.87261 10.321 4.28551 9.90813 4.28551 9.39879V1.1392Z" fill="#1E1E29"/>
    <path d="M9.89347 7.9098C9.89347 8.34088 10.2429 8.69034 10.674 8.69034C11.1051 8.69034 11.4545 8.34088 11.4545 7.9098V6.03054H13.3338C13.7649 6.03054 14.1143 5.68108 14.1143 5.25C14.1143 4.81892 13.7649 4.46946 13.3338 4.46946H11.4545V2.5902C11.4545 2.15912 11.1051 1.80966 10.674 1.80966C10.2429 1.80966 9.89347 2.15912 9.89347 2.5902V4.46946H8.0142C7.58312 4.46946 7.23366 4.81892 7.23366 5.25C7.23366 5.68108 7.58312 6.03054 8.0142 6.03054H9.89347V7.9098Z" fill="#1E1E29"/>
    <path d="M15.9489 9.38276C15.9489 9.90095 16.3689 10.321 16.8871 10.321H22.1584C22.584 10.321 22.929 9.97602 22.929 9.55043C22.929 9.12484 22.584 8.77983 22.1584 8.77983H18.4943V8.71023L20.2493 6.92543C22.228 5.02628 22.7749 4.10156 22.7749 2.95312C22.7749 1.24787 21.3878 0 19.3395 0C17.6422 0 16.3596 0.885906 15.9945 2.31776C15.8748 2.78735 16.2821 3.18679 16.7667 3.18679C17.2513 3.18679 17.6123 2.77091 17.8264 2.33617C18.0881 1.805 18.6166 1.49645 19.3146 1.49645C20.2841 1.49645 21.005 2.08807 21.005 3.04759C21.005 3.89773 20.4879 4.50426 19.4837 5.52344L16.2303 8.71274C16.0503 8.8892 15.9489 9.13068 15.9489 9.38276Z" fill="#1E1E29"/>
</svg>
