<svg width="24" height="24" viewBox="0 0 24 24" fill="none" xmlns="http://www.w3.org/2000/svg">
    <path d="M7.17157 5.5L8.29289 4.37868C8.8555 3.81607 9.61856 3.5 10.4142 3.5H13.5858C14.3814 3.5 15.1445 3.81607 15.7071 4.37868L16.8284 5.5H18C20.2091 5.5 22 7.29086 22 9.5V16.5C22 18.7091 20.2091 20.5 18 20.5H6C3.79086 20.5 2 18.7091 2 16.5V9.5C2 7.29086 3.79086 5.5 6 5.5H7.17157ZM6 7.5C4.89543 7.5 4 8.39543 4 9.5V16.5C4 17.6046 4.89543 18.5 6 18.5H18C19.1046 18.5 20 17.6046 20 16.5V9.5C20 8.39543 19.1046 7.5 18 7.5H16.4142C16.149 7.5 15.8946 7.39464 15.7071 7.20711L14.2929 5.79289C14.1054 5.60536 13.851 5.5 13.5858 5.5H10.4142C10.149 5.5 9.89464 5.60536 9.70711 5.79289L8.29289 7.20711C8.10536 7.39464 7.851 7.5 7.58579 7.5H6ZM12 17.5C9.23858 17.5 7 15.2614 7 12.5C7 9.73858 9.23858 7.5 12 7.5C14.7614 7.5 17 9.73858 17 12.5C17 15.2614 14.7614 17.5 12 17.5ZM12 15.5C13.6569 15.5 15 14.1569 15 12.5C15 10.8431 13.6569 9.5 12 9.5C10.3431 9.5 9 10.8431 9 12.5C9 14.1569 10.3431 15.5 12 15.5Z" fill="#FF005D"/>
</svg>
