<svg width="24" height="24" viewBox="0 0 24 24" fill="none" xmlns="http://www.w3.org/2000/svg">
    <path fill-rule="evenodd" clip-rule="evenodd" d="M8.272 4.95283C7.174 4.95283 6.077 5.34983 5.241 6.14483C4.441 6.90683 4 7.91783 4 8.99183C4 10.0648 4.441 11.0758 5.241 11.8378L12 18.2698L18.759 11.8378C19.559 11.0758 20 10.0648 20 8.99183C20 7.91883 19.559 6.90683 18.759 6.14483C17.088 4.55483 14.368 4.55483 12.697 6.14483L12 6.80883L11.303 6.14483C10.467 5.34983 9.37 4.95283 8.272 4.95283ZM12 20.9998L3.847 13.2408C2.656 12.1078 2 10.5988 2 8.99183C2 7.38483 2.656 5.87583 3.847 4.74183C6.067 2.62883 9.552 2.43883 12 4.16883C14.448 2.43883 17.933 2.62883 20.153 4.74183C21.344 5.87583 22 7.38483 22 8.99183C22 10.5988 21.344 12.1078 20.153 13.2408L12 20.9998Z" fill="#FF005D"/>
</svg>
