<svg width="24" height="24" viewBox="0 0 24 24" fill="none" xmlns="http://www.w3.org/2000/svg">
    <path d="M20 8.10327C19.9998 3.63507 16.411 0 12.0002 0C7.58874 0 4 3.63507 4 8.10327C4 12.1447 6.93638 15.5044 10.7616 16.109V18.1588H8.48581C7.80174 18.1588 7.24745 18.7202 7.24745 19.4131C7.24745 20.106 7.80174 20.6675 8.48581 20.6675H10.7616V22.7457C10.7616 23.4386 11.3159 24 12 24C12.6841 24 13.2384 23.4386 13.2384 22.7457V20.6675H15.5142C16.1983 20.6675 16.7525 20.106 16.7525 19.4131C16.7525 18.7202 16.1983 18.1588 15.5142 18.1588H13.2384V16.109C17.0634 15.5044 20 12.1447 20 8.10327ZM6.4767 8.10327C6.4767 5.01835 8.95465 2.50868 12.0002 2.50868C15.0454 2.50868 17.523 5.01835 17.5233 8.10327C17.5233 11.1882 15.0456 13.6979 12 13.6979C8.9544 13.6979 6.4767 11.1882 6.4767 8.10327Z" fill="#0077ED"/>
</svg>
