<svg width="24" height="24" viewBox="0 0 24 24" fill="none" xmlns="http://www.w3.org/2000/svg">
    <path fill-rule="evenodd" clip-rule="evenodd" d="M17.9929 12H20.3914C20.3914 7.36358 16.6329 3.60504 11.9965 3.60504C7.3601 3.60504 3.60156 7.36358 3.60156 12H6.00011C6.00011 8.68826 8.68478 6.00359 11.9965 6.00359C15.3082 6.00359 17.9929 8.68826 17.9929 12Z" fill="#0077ED"/>
    <path d="M3.60156 11.9999H20.3914V12.3985C20.3914 13.5031 19.496 14.3985 18.3914 14.3985H5.60156C4.49699 14.3985 3.60156 13.5031 3.60156 12.3985V11.9999Z" fill="#0077ED"/>
    <circle cx="7.19928" cy="17.9963" r="1.19928" fill="#0077ED"/>
    <circle cx="9.59771" cy="22.7934" r="1.19928" fill="#0077ED"/>
    <circle cx="11.9962" cy="17.9963" r="1.19928" fill="#0077ED"/>
    <circle cx="16.793" cy="17.9963" r="1.19928" fill="#0077ED"/>
    <circle cx="14.3946" cy="22.7934" r="1.19928" fill="#0077ED"/>
    <circle cx="19.1915" cy="22.7934" r="1.19928" fill="#0077ED"/>
    <circle cx="4.80084" cy="22.7934" r="1.19928" fill="#0077ED"/>
    <rect x="10.7969" y="0.00720215" width="2.39855" height="4.7971" rx="1.19928" fill="#0077ED"/>
</svg>
