<svg width="24" height="24" viewBox="0 0 24 24" fill="none" xmlns="http://www.w3.org/2000/svg">
    <path d="M17.1454 11.3883C17.3622 11.2634 17.4826 11.1631 17.4873 11.1589C19.0302 10.0224 18.6311 7.42425 17.9744 6.289C16.9468 4.51314 17.0906 1.1522 17.0922 1.11858C17.0961 1.03336 17.0455 0.954914 16.9663 0.92364C16.3765 0.690126 15.9223 1.0245 15.9033 1.03883C15.8501 1.07897 15.8204 1.14308 15.824 1.20954C15.9674 3.73363 15.4928 5.56526 14.4133 6.65308C13.7302 7.34138 12.9541 7.55847 12.4918 7.62702C12.4438 7.48524 12.5056 7.24104 12.5501 7.13184C12.5918 7.02994 12.5434 6.91318 12.4417 6.87122C12.3388 6.829 12.2233 6.87722 12.1811 6.97886C12.1709 7.00336 12.1334 7.09926 12.1055 7.22618C12.0774 7.09066 12.0367 6.98798 12.0263 6.96244C11.9838 6.8608 11.8676 6.81232 11.7657 6.8548C11.664 6.89676 11.6156 7.01352 11.6572 7.11542C11.7049 7.23166 11.7724 7.50166 11.7049 7.63718C11.2199 7.57854 10.3271 7.36379 9.56709 6.59054C8.49099 5.49541 8.02631 3.68568 8.18633 1.2111C8.1905 1.14412 8.16105 1.07923 8.10736 1.03883C8.08834 1.0245 7.63512 0.689865 7.0443 0.92364C6.96481 0.955175 6.91425 1.03336 6.91842 1.11858C6.91998 1.1522 7.06463 4.51158 6.03622 6.289C5.3792 7.42399 4.9802 10.0224 6.51263 11.1503C6.52567 11.1613 6.73286 11.3328 7.09382 11.5079C7.28511 12.1433 8.50845 16.5157 6.7094 18.7992C6.6664 18.8537 6.65493 18.9264 6.67891 18.9916C6.70289 19.0567 6.75892 19.1049 6.82694 19.1185C6.85874 19.1247 10.0289 19.793 11.025 22.5865C11.0933 22.7778 11.2343 22.93 11.405 23.0007C11.4256 23.01 11.7552 23.1591 12.1576 23.1591C12.3698 23.1591 12.6025 23.1177 12.8207 22.9926C13.0039 22.8875 13.1264 22.751 13.185 22.5865C14.179 19.7984 17.3512 19.125 17.3833 19.1185C17.4513 19.1047 17.5074 19.0565 17.5311 18.9916C17.5551 18.9267 17.5436 18.8537 17.5006 18.7992C15.5689 16.3473 17.1248 11.4771 17.1407 11.4284C17.1451 11.4151 17.1438 11.4018 17.1454 11.3883ZM17.008 18.801C16.1519 19.0429 13.7049 19.9384 12.8084 22.4526C12.7823 22.5258 12.7214 22.5891 12.6218 22.6462C12.1707 22.9047 11.5775 22.6405 11.565 22.635C11.4912 22.6045 11.4316 22.5381 11.4011 22.4526C10.5048 19.9384 8.05784 19.0429 7.20145 18.801C8.71252 16.5488 7.89678 12.9045 7.56527 11.6989C7.64841 11.7263 7.73468 11.7526 7.82641 11.7758C8.08651 11.8415 8.39899 11.8902 8.7537 11.8902C9.41436 11.8902 10.2215 11.7213 11.1102 11.179C11.2043 11.1214 11.2343 10.9986 11.1767 10.9046C11.1193 10.8102 10.9963 10.7805 10.9022 10.8381C9.33383 11.7954 8.06306 11.5144 7.35912 11.1957C7.35052 11.1905 7.34166 11.1871 7.33228 11.1832C6.98931 11.0239 6.78681 10.8595 6.75996 10.8371C5.40865 9.84175 5.78916 7.51312 6.38154 6.48889C7.34974 4.81572 7.34062 1.95934 7.32238 1.25541C7.52201 1.21423 7.68594 1.26531 7.78002 1.30883C7.6359 3.84361 8.14307 5.71616 9.28822 6.87643C10.4928 8.09691 11.9533 8.06329 12.0732 8.0573C12.2014 8.06225 13.5467 8.08805 14.6898 6.94107C15.8391 5.78809 16.357 3.89365 16.2293 1.30883C16.3231 1.26531 16.4873 1.21397 16.6877 1.25515C16.6695 1.95908 16.6603 4.81572 17.6285 6.48889C18.2209 7.51286 18.6014 9.84175 17.24 10.8451C17.1693 10.9048 15.4779 12.2848 13.1079 10.8381C13.0138 10.7805 12.8908 10.8105 12.8334 10.9046C12.7758 10.9986 12.8058 11.1217 12.8999 11.179C13.7883 11.7216 14.5957 11.8902 15.2564 11.8902C15.6111 11.8902 15.9238 11.8415 16.1839 11.7758C16.3625 11.7307 16.522 11.6752 16.6674 11.6173C16.3536 12.7278 15.4599 16.4938 17.008 18.801Z" fill="#0077ED" stroke="#0077ED" stroke-width="1.5"/>
</svg>
