<svg width="24" height="24" viewBox="0 0 24 24" fill="none" xmlns="http://www.w3.org/2000/svg">
    <path d="M18.9029 6.1406C18.7541 5.967 18.5061 5.8678 18.2829 5.8678C17.8365 5.8678 17.4645 6.1902 17.4397 6.63659L17.2413 8.84376C16.6957 8.96776 16.3237 9.24056 16.0261 9.46375C15.7037 9.71175 15.5301 9.83575 15.0837 9.83575C14.6374 9.83575 14.4638 9.71175 14.1414 9.46375C13.7446 9.16616 13.199 8.74456 12.207 8.74456C12.0334 8.74456 11.8846 8.76936 11.711 8.79416L11.215 2.44545C11.1902 2.12306 10.967 1.85026 10.6694 1.75106L5.75907 0.0150844C5.58548 -0.0345149 5.41188 0.039884 5.33748 0.213482L5.01508 1.13107C4.96549 1.30467 5.03988 1.47826 5.21348 1.55266L9.62782 3.11504L10.1486 9.56295C9.90062 9.73655 9.70222 9.83575 9.33022 9.83575C8.88383 9.83575 8.71023 9.71175 8.38784 9.46375C8.09024 9.24056 7.66865 8.94296 7.04866 8.81896L6.85026 6.66139C6.80066 6.215 6.45346 5.8926 5.98227 5.8926C5.73427 5.8926 5.51108 5.9918 5.36228 6.1654C5.21348 6.339 5.11428 6.58699 5.13908 6.81019L6.55266 22.806C6.60226 23.2524 6.94946 23.5748 7.39585 23.5748H16.8693C17.3157 23.5748 17.6877 23.2524 17.7125 22.806L19.1261 6.81019C19.1509 6.56219 19.0765 6.3142 18.9029 6.1406ZM16.1253 21.1692C16.1005 21.566 15.7781 21.8636 15.3813 21.8636H8.85903C8.46224 21.8636 8.13984 21.566 8.11504 21.1692L7.19745 10.6293C7.24705 10.6789 7.32145 10.7037 7.37105 10.7533C7.76785 11.0509 8.31344 11.4725 9.30542 11.4725C9.70222 11.4725 9.99981 11.3981 10.2726 11.2989L10.8926 19.1356C10.9174 19.3092 11.0662 19.458 11.2398 19.4332L12.207 19.3588C12.3806 19.334 12.5294 19.1852 12.5046 19.0116L11.8102 10.4309C11.9094 10.4061 12.0334 10.3813 12.1574 10.3813C12.6038 10.3813 12.7774 10.5053 13.0998 10.7533C13.4966 11.0509 14.0422 11.4725 15.0341 11.4725C16.0261 11.4725 16.5717 11.0509 16.9685 10.7533C16.9933 10.7285 17.0181 10.7285 17.0181 10.7037L16.1253 21.1692Z" fill="#0077ED"/>
</svg>
