<svg width="22" height="20" viewBox="0 0 22 20" fill="none" xmlns="http://www.w3.org/2000/svg">
    <path d="M17.7306 1.03734L17.7057 1.02329L17.7036 1.02116L17.6803 1.00787L17.6704 1.0022C17.4082 0.852357 17.0762 0.912233 16.8829 1.14425L16.8827 1.14409L16.8767 1.15199C15.4202 3.08642 14.0217 5.19002 12.9825 6.8085C12.4627 7.61799 12.0324 8.30671 11.7295 8.79263C11.707 8.82878 11.6852 8.86378 11.6641 8.89762C11.5432 9.0915 11.4464 9.2469 11.3759 9.35836C11.3481 9.40241 11.3248 9.43889 11.306 9.46778H11.3029L11.2435 9.55592L8.70213 13.3226L8.70181 13.3223L8.69554 13.333C8.49454 13.6747 8.22545 13.8534 8.00163 13.9479C7.77388 14.0441 7.59656 14.0513 7.59725 14.0513H7.55187H7.53446L7.51731 14.0543C4.9523 14.5043 2.91285 15.3095 2.74874 15.3856C0.967495 16.204 0.720306 17.8479 0.818638 18.5881C0.818675 18.5883 0.818713 18.5886 0.818751 18.5889L0.863922 18.9503L0.885821 19.1255H1.06238H9.6394H9.68478H9.69556L9.70628 19.1244C10.6196 19.0256 11.309 18.448 11.766 17.909C12.2016 17.3953 12.4465 16.8924 12.4904 16.8023C12.4928 16.7974 12.4946 16.7937 12.4958 16.7913L12.496 16.7914L12.4999 16.7826C13.8524 13.7168 15.2223 11.9816 16.2436 11.0157C16.7544 10.5327 17.1787 10.2414 17.4714 10.072C17.6178 9.98733 17.7314 9.93301 17.8067 9.90041C17.8423 9.88498 17.8693 9.87442 17.8872 9.86778H17.8988H17.9398L17.9775 9.85161C18.424 9.66028 18.8054 9.44693 19.1364 9.2266L17.2584 17.9225C17.18 18.2854 17.414 18.6423 17.7781 18.7151C18.1317 18.7858 18.4773 18.5618 18.5572 18.2101L21.1343 6.85304L20.9393 6.80878H21.1393V6.80873V6.80872V6.8087V6.80868V6.80867V6.80865V6.80863V6.80862V6.8086V6.80858V6.80856V6.80855V6.80853V6.80851V6.8085V6.80848V6.80846V6.80844V6.80842V6.8084V6.80837V6.80835V6.80833V6.8083V6.80828V6.80825V6.80822V6.80821V6.80819V6.80818V6.80816V6.80815V6.80813V6.80812V6.8081V6.80808V6.80807V6.80805V6.80803V6.80802V6.808V6.80798V6.80796V6.80795V6.80793V6.80791V6.80789V6.80787V6.80785V6.80783V6.80781V6.80779V6.80777V6.80775V6.80772V6.8077V6.80768V6.80766V6.80764V6.80761V6.80759V6.80757V6.80754V6.80752V6.80749V6.80747V6.80744V6.80742V6.80739V6.80737V6.80734V6.80731V6.80729V6.80726V6.80723V6.8072V6.80717V6.80715V6.80712V6.80709V6.80706V6.80703V6.807V6.80696V6.80693V6.8069V6.80687V6.80684V6.80681V6.80677V6.80674V6.8067V6.80667V6.80664V6.8066V6.80657V6.80653V6.80649V6.80646V6.80642V6.80638V6.80635V6.80631V6.80627V6.80623V6.80619V6.80615V6.80611V6.80607V6.80603V6.80599V6.80595V6.80591V6.80586V6.80582V6.80578V6.80573V6.80569V6.80565V6.8056V6.80556V6.80551V6.80546V6.80542V6.80537V6.80532V6.80527V6.80523V6.80518V6.80513V6.80508V6.80503V6.80498V6.80493V6.80487V6.80482V6.80477V6.80472V6.80466V6.80461V6.80455V6.8045V6.80445V6.80439V6.80433V6.80428V6.80422V6.80416V6.8041V6.80404V6.80399V6.80393V6.80387V6.8038V6.80374V6.80368V6.80362V6.80356V6.80349V6.80343V6.80337V6.8033V6.80324V6.80317V6.8031V6.80304V6.80297V6.8029V6.80283V6.80277V6.8027V6.80263V6.80256V6.80248V6.80241V6.80234V6.80227V6.8022V6.80212V6.80205V6.80197V6.8019V6.80182V6.80175V6.80167V6.80159V6.80151V6.80143V6.80135V6.80128V6.8012V6.80111V6.80103V6.80095V6.80087V6.80078V6.8007V6.80062V6.80053V6.80045V6.80036V6.80027V6.80019V6.8001V6.80001V6.79992V6.79983V6.79974V6.79965V6.79956V6.79946V6.79937V6.79928V6.79918V6.79909V6.79899V6.7989V6.7988V6.7987V6.79861V6.79851V6.79841V6.79831V6.79821V6.79811V6.79801V6.7979V6.7978V6.7977V6.79759V6.79749V6.79738V6.79728V6.79717V6.79706V6.79696V6.79685V6.79674V6.79663V6.79652V6.7964V6.79629V6.79618V6.79607V6.79595V6.79584V6.79572V6.79561V6.79549V6.79537V6.79525V6.79513V6.79501V6.79489V6.79477V6.79465V6.79453V6.7944V6.79428V6.79416V6.79403V6.7939V6.79378V6.79365V6.79352V6.79339V6.79326V6.79313V6.793V6.79287V6.79274V6.7926V6.79247V6.79234V6.7922V6.79206V6.79193V6.79179V6.79165V6.79151V6.79137V6.79123V6.79109V6.79095V6.7908V6.79066V6.79052V6.79037V6.79022V6.79008V6.78993V6.78978V6.78963V6.78948V6.78933V6.78918V6.78903V6.78888V6.78872V6.78857V6.78841V6.78825V6.7881V6.78794V6.78778V6.78762V6.78746V6.7873V6.78714V6.78698V6.78681V6.78665V6.78648V6.78632V6.78615V6.78598V6.78581V6.78564V6.78547V6.7853V6.78513V6.78496V6.78479V6.78461V6.78444V6.78426V6.78408V6.78391V6.78373V6.78355V6.78337V6.78319V6.783V6.78282V6.78264V6.78245V6.78227V6.78208V6.7819V6.78171V6.78152V6.78133V6.78114V6.78095V6.78075V6.78056V6.78037V6.78017V6.77998V6.77978V6.77958V6.77938C21.4406 4.88665 20.5717 3.4476 19.642 2.48882C19.1756 2.00778 18.6899 1.64299 18.3188 1.39584C18.133 1.27209 17.9754 1.17749 17.8627 1.11235C17.8099 1.08179 17.7669 1.05772 17.7363 1.04058L17.7306 1.03734ZM20.9393 6.78637V6.7634C21.4902 3.37348 18.124 1.48708 17.6385 1.21502C17.604 1.19571 17.5841 1.18453 17.5811 1.18152L20.9393 6.78637ZM20.7393 6.78648L18.1671 18.1215C18.1353 18.2617 17.9975 18.351 17.8565 18.3228C17.7114 18.2938 17.6181 18.1516 17.6494 18.0069L19.6372 8.80238L19.7534 8.26437L19.3189 8.60229C18.9304 8.90447 18.4574 9.20665 17.8574 9.46778H17.8534H17.8234L17.7948 9.47656L20.7393 6.78648ZM19.7437 6.54839L19.7409 6.56501V6.58187V6.62725V6.65188L19.744 6.66421C19.7437 6.66894 19.7426 6.68013 19.7387 6.69929C19.7312 6.73582 19.7158 6.78801 19.6886 6.85379C19.6346 6.98488 19.538 7.16054 19.381 7.36016C19.0688 7.75703 18.5192 8.24648 17.5985 8.66456C17.0994 8.83326 14.1772 9.99413 11.3638 16.3004L11.3631 16.3017L11.3577 16.3129C11.3527 16.323 11.345 16.3383 11.3346 16.3582C11.3138 16.398 11.2825 16.4558 11.2412 16.5258C11.1584 16.6664 11.0364 16.8546 10.88 17.0462C10.5634 17.4337 10.1338 17.8003 9.62749 17.8633H2.1594C2.24919 17.4701 2.51255 16.9517 3.27712 16.5669L3.29177 16.5611C3.30687 16.5552 3.32953 16.5464 3.35936 16.535C3.41902 16.5121 3.50733 16.4788 3.62111 16.4374C3.84868 16.3545 4.17798 16.2391 4.58354 16.1095C5.39164 15.8514 6.50022 15.5378 7.70872 15.3131C7.84823 15.3077 8.17965 15.25 8.55587 15.0733C8.95659 14.8851 9.42026 14.5563 9.76238 13.9963L12.2971 10.2395C12.2985 10.2376 12.2998 10.2359 12.3009 10.2342C12.3019 10.2329 12.3028 10.2316 12.3035 10.2306C12.3071 10.2254 12.3108 10.2197 12.3143 10.2144C12.3215 10.2034 12.3307 10.1888 12.3416 10.1714C12.3636 10.1363 12.3944 10.0862 12.4334 10.0228C12.4529 9.99105 12.4745 9.95585 12.4982 9.91734C12.5692 9.80154 12.6587 9.65576 12.765 9.48353C13.0483 9.02471 13.4504 8.37907 13.9374 7.62021C14.8858 6.1425 16.155 4.23735 17.4944 2.44723C17.9043 2.7124 18.5082 3.1629 18.9945 3.78884C19.5434 4.49543 19.936 5.41583 19.7437 6.54839Z"  stroke-width="0.4"/>
</svg>
