<svg width="24" height="16" viewBox="0 0 16 16" fill="none" xmlns="http://www.w3.org/2000/svg">
    <path d="M11.516 4.64048L14.9739 5.1603C15.9544 5.30764 16.3473 6.56399 15.6388 7.28609L13.1399 9.83272C12.8584 10.1195 12.7305 10.5323 12.7973 10.9367L13.392 14.5276C13.5606 15.5459 12.5368 16.3239 11.6592 15.8442L8.56501 14.1523C8.21654 13.9619 7.8005 13.9623 7.45257 14.1536L4.36216 15.8533C3.48586 16.3353 2.46004 15.5598 2.62628 14.5411L3.21269 10.9487C3.27865 10.5441 3.14979 10.1315 2.86764 9.84546L0.363285 7.30502C-0.346955 6.58461 0.0430297 5.32733 1.02338 5.17755L4.48005 4.64929C4.86932 4.58986 5.20557 4.33436 5.37918 3.96619L6.92168 0.696341C7.35912 -0.230831 8.62594 -0.232518 9.06535 0.693716L10.6152 3.95963C10.7897 4.32723 11.1265 4.58199 11.516 4.64048Z" fill="#f4c554"/>
<!--    <defs>-->
<!--        <linearGradient id="paint0_linear_1211_16220" x1="8" y1="0" x2="8" y2="16" gradientUnits="userSpaceOnUse">-->
<!--            <stop stop-color="#E7B135"/>-->
<!--            <stop offset="1" stop-color="#FFD166"/>-->
<!--        </linearGradient>-->
<!--    </defs>-->
</svg>
