<svg width="22" height="21" viewBox="0 0 22 21" fill="none" xmlns="http://www.w3.org/2000/svg">
 <path d="M12.5549 2.29976L14.1387 5.49359C14.3547 5.93818 14.9306 6.36463 15.4166 6.44629L18.2872 6.92718C20.123 7.23567 20.555 8.57853 19.2321 9.90325L17.0004 12.1534C16.6224 12.5345 16.4154 13.2695 16.5324 13.7957L17.1714 16.5812C17.6753 18.7861 16.5144 19.639 14.5796 18.4867L11.8889 16.8807C11.403 16.5903 10.6021 16.5903 10.1071 16.8807L7.41644 18.4867C5.49065 19.639 4.32078 18.777 4.82473 16.5812L5.46366 13.7957C5.58064 13.2695 5.37367 12.5345 4.99571 12.1534L2.76395 9.90325C1.4501 8.57853 1.87305 7.23567 3.70885 6.92718L6.57953 6.44629C7.05648 6.36463 7.63242 5.93818 7.84839 5.49359L9.43222 2.29976C10.2961 0.566747 11.7 0.566747 12.5549 2.29976Z" stroke="#FFD166" stroke-width="2" stroke-linecap="round" stroke-linejoin="round"/>
</svg>
