<svg width="24" height="24" viewBox="0 0 24 24" fill="none" xmlns="http://www.w3.org/2000/svg">
    <path stroke=""  d="M15.3346 12.575V17.0667C15.3346 19.0167 14.0346 20.3083 12.093 20.3083H6.90964C4.96797 20.3083 3.66797 19.0167 3.66797 17.0667V10.5917C3.66797 8.64168 4.96797 7.35001 6.90964 7.35001H10.1013C10.9596 7.35001 11.7846 7.69168 12.393 8.30001L14.3846 10.2833C14.993 10.8917 15.3346 11.7167 15.3346 12.575Z"  stroke-width="1.5" stroke-linecap="round" stroke-linejoin="round"/>
    <path stroke=""  d="M20.3346 8.875V13.3667C20.3346 15.3083 19.0346 16.6083 17.093 16.6083H15.3346V12.575C15.3346 11.7167 14.993 10.8917 14.3846 10.2833L12.393 8.3C11.7846 7.69167 10.9596 7.35 10.1013 7.35H8.66797V6.88334C8.66797 4.94167 9.96797 3.64167 11.9096 3.64167H15.1013C15.9596 3.64167 16.7846 3.98334 17.393 4.59167L19.3846 6.58334C19.993 7.19167 20.3346 8.01667 20.3346 8.875Z"  stroke-width="1.5" stroke-linecap="round" stroke-linejoin="round"/>
</svg>
