<svg width="26" height="11" viewBox="0 0 26 11" fill="none" xmlns="http://www.w3.org/2000/svg">
    <path d="M0.903409 10.0615C0.903409 10.5797 1.32349 10.9997 1.84168 10.9997H7.11293C7.53852 10.9997 7.88352 10.6547 7.88352 10.2291C7.88352 9.80355 7.53852 9.45854 7.11293 9.45854H3.44886V9.38894L5.20384 7.60414C7.18253 5.70499 7.7294 4.78027 7.7294 3.63184C7.7294 1.92658 6.34233 0.678711 4.29403 0.678711C2.5967 0.678711 1.31419 1.56462 0.949072 2.99647C0.829325 3.46606 1.23661 3.8655 1.72124 3.8655C2.20586 3.8655 2.56682 3.44962 2.78097 3.01488C3.04261 2.48371 3.5711 2.17516 4.26918 2.17516C5.23864 2.17516 5.95952 2.76678 5.95952 3.7263C5.95952 4.57644 5.44247 5.18297 4.43821 6.20215L1.18485 9.39145C1.00484 9.56791 0.903409 9.80939 0.903409 10.0615Z" fill="#1E1E29"/>
    <path d="M12.6214 8.58851C12.6214 9.01959 12.9709 9.36905 13.402 9.36905C13.8331 9.36905 14.1825 9.01959 14.1825 8.58851V6.70925H16.0618C16.4929 6.70925 16.8423 6.35979 16.8423 5.92871C16.8423 5.49763 16.4929 5.14817 16.0618 5.14817H14.1825V3.26891C14.1825 2.83783 13.8331 2.48837 13.402 2.48837C12.9709 2.48837 12.6214 2.83783 12.6214 3.26891V5.14817H10.7422C10.3111 5.14817 9.96165 5.49763 9.96165 5.92871C9.96165 6.35979 10.3111 6.70925 10.7422 6.70925H12.6214V8.58851Z" fill="#1E1E29"/>
    <path d="M18.6768 10.0615C18.6768 10.5797 19.0969 10.9997 19.6151 10.9997H24.8864C25.312 10.9997 25.657 10.6547 25.657 10.2291C25.657 9.80355 25.312 9.45854 24.8864 9.45854H21.2223V9.38894L22.9773 7.60414C24.956 5.70499 25.5028 4.78027 25.5028 3.63184C25.5028 1.92658 24.1158 0.678711 22.0675 0.678711C20.3701 0.678711 19.0876 1.56462 18.7225 2.99647C18.6028 3.46606 19.0101 3.8655 19.4947 3.8655C19.9793 3.8655 20.3403 3.44962 20.5544 3.01488C20.816 2.48371 21.3445 2.17516 22.0426 2.17516C23.0121 2.17516 23.733 2.76678 23.733 3.7263C23.733 4.57644 23.2159 5.18297 22.2116 6.20215L18.9583 9.39145C18.7783 9.56791 18.6768 9.80939 18.6768 10.0615Z" fill="#1E1E29"/>
</svg>
