<svg width="23" height="11" viewBox="0 0 23 11" fill="none" xmlns="http://www.w3.org/2000/svg">
    <path d="M22.0462 1.13916C22.0462 0.586875 21.5984 0.13916 21.0462 0.13916H20.5847C20.3931 0.13916 20.2055 0.194232 20.0442 0.297821L18.0881 1.55447C17.884 1.6856 17.7606 1.91154 17.7606 2.15413C17.7606 2.71711 18.3827 3.05785 18.8571 2.75477L20.142 1.9339H20.2017V9.39875C20.2017 9.90808 20.6146 10.321 21.1239 10.321C21.6333 10.321 22.0462 9.90808 22.0462 9.39875V1.13916Z" fill="#1E1E29"/>
    <path d="M11.4418 7.90976C11.4418 8.34084 11.7912 8.6903 12.2223 8.6903C12.6534 8.6903 13.0028 8.34084 13.0028 7.90976V6.0305H14.8821C15.3132 6.0305 15.6626 5.68104 15.6626 5.24996C15.6626 4.81888 15.3132 4.46942 14.8821 4.46942H13.0028V2.59015C13.0028 2.15907 12.6534 1.80961 12.2223 1.80961C11.7912 1.80961 11.4418 2.15907 11.4418 2.59015V4.46942H9.56251C9.13143 4.46942 8.78197 4.81888 8.78197 5.24996C8.78197 5.68104 9.13143 6.0305 9.56251 6.0305H11.4418V7.90976Z" fill="#1E1E29"/>
    <path d="M0.0596581 9.38276C0.0596581 9.90095 0.479734 10.321 0.997925 10.321H6.26918C6.69477 10.321 7.03977 9.97602 7.03977 9.55043C7.03977 9.12484 6.69477 8.77983 6.26918 8.77983H2.60511V8.71023L4.36009 6.92543C6.33878 5.02628 6.88565 4.10156 6.88565 2.95312C6.88565 1.24787 5.49858 0 3.45028 0C1.75295 0 0.470445 0.885906 0.105322 2.31776C-0.0144245 2.78735 0.392864 3.18679 0.877486 3.18679C1.36211 3.18679 1.72307 2.77091 1.93722 2.33617C2.19886 1.805 2.72735 1.49645 3.42543 1.49645C4.39489 1.49645 5.11577 2.08807 5.11577 3.04759C5.11577 3.89773 4.59872 4.50426 3.59446 5.52344L0.341099 8.71274C0.16109 8.8892 0.0596581 9.13068 0.0596581 9.38276Z" fill="#1E1E29"/>
</svg>
