<svg width="24" height="24" viewBox="0 0 24 24" fill="none" xmlns="http://www.w3.org/2000/svg">
    <path fill-rule="evenodd" clip-rule="evenodd" d="M16.9879 18.2174V17.1018L19.2298 18.3947C20.1283 18.9129 21.0852 18.9893 21.8398 18.5524C22.5923 18.1167 23 17.2534 23 16.2206V8.25481C23 7.22159 22.5919 6.35783 21.8393 5.92255C21.0849 5.48618 20.1302 5.56075 19.2297 6.08036L17.8984 6.84826L16.9879 7.37331V5.78256C16.9879 5.31188 16.8013 4.85921 16.4671 4.52445C16.1326 4.18947 15.6775 4 15.2015 4H2.78637C2.31035 4 1.85527 4.18947 1.52083 4.52445C1.18661 4.85921 1 5.31188 1 5.78256V18.2184C1.00025 18.6889 1.18697 19.1413 1.52116 19.4759C1.85557 19.8107 2.31051 20 2.78637 20H15.2015C15.6775 20 16.1326 19.8105 16.4671 19.4756C16.8013 19.1408 16.9879 18.6881 16.9879 18.2174ZM18.855 15.9893L20.1862 16.7584C20.3551 16.8559 20.5083 16.9141 20.6333 16.9369C20.7608 16.9602 20.8396 16.9436 20.8818 16.9188C20.9265 16.8925 20.9825 16.8283 21.0273 16.7029C21.071 16.5804 21.0975 16.4167 21.0975 16.2206V8.25608C21.0975 8.05906 21.071 7.89493 21.0273 7.77253C20.9825 7.6471 20.9267 7.58392 20.8829 7.55852C20.84 7.53373 20.7605 7.51727 20.6329 7.54026C20.5079 7.5628 20.3548 7.62052 20.1862 7.71784L16.513 9.83661L15.0833 10.6612V5.89425H2.90457V18.1066H15.0846V13.8161L16.5138 14.6396L18.855 15.9893Z" fill="white"/>
</svg>
