<svg width="20" height="20" viewBox="0 0 20 20" fill="none" xmlns="http://www.w3.org/2000/svg">
    <path fill-rule="evenodd" clip-rule="evenodd" d="M9.25548 0.0188235C7.77448 0.160794 6.67296 0.474326 5.42588 1.10886C3.9486 1.86046 2.62297 3.04899 1.65639 4.48844C1.02005 5.43607 0.437597 6.82517 0.214074 7.92826C0.0459233 8.75784 0.0149739 9.07997 0.0149739 9.99997C0.0149739 10.9207 0.0460796 11.2437 0.214347 12.0717C0.410868 13.0387 0.901995 14.2922 1.41645 15.1398L1.59066 15.4268L0.80688 17.1521C0.328962 18.2041 0.0158727 18.9415 0.00457932 19.0417C-0.03993 19.4369 0.24557 19.8669 0.619425 19.9677C0.967645 20.0616 1.42434 19.9564 4.2103 19.1404L5.28079 18.8268L5.73432 19.0419C6.98105 19.6332 8.26729 19.943 9.68533 19.9937C11.9551 20.0747 14.1473 19.3778 16.0159 17.9812C16.5335 17.5943 17.486 16.662 17.8602 16.176C19.7985 13.6583 20.452 10.5715 19.6893 7.53584C19.4589 6.61874 18.9761 5.48325 18.4933 4.72297C17.7222 3.50875 16.6634 2.42603 15.4688 1.63018C14.9629 1.29316 13.8694 0.748495 13.3195 0.559618C12.5231 0.286074 11.7037 0.109392 10.8772 0.0330128C10.4791 -0.00376985 9.574 -0.0117049 9.25548 0.0188235ZM11.0413 1.8114C14.6599 2.27562 17.5205 5.04303 18.1522 8.69049C18.2498 9.2538 18.2505 10.7201 18.1535 11.296C17.5587 14.8276 14.8431 17.5543 11.3266 18.1509C10.8147 18.2378 9.65102 18.27 9.13825 18.2114C8.12192 18.0954 7.1934 17.8162 6.23627 17.3387C5.72307 17.0828 5.58821 17.0312 5.42791 17.03C5.30177 17.029 4.76219 17.1585 3.86126 17.4061C3.10542 17.6137 2.47948 17.7761 2.47029 17.7669C2.46107 17.7577 2.67346 17.2656 2.94223 16.6734C3.21097 16.0812 3.4418 15.5284 3.45512 15.445C3.49213 15.2135 3.41835 15.0137 3.13922 14.5896C2.21711 13.1885 1.75259 11.651 1.75259 9.99997C1.75259 5.81293 4.85347 2.32249 9.04055 1.79647C9.49315 1.73963 10.5428 1.74745 11.0413 1.8114ZM6.53959 5.46109C6.02627 5.59606 5.42065 6.25025 5.22096 6.88556C5.14636 7.12287 5.13346 7.24721 5.13702 7.69373C5.14062 8.14575 5.15632 8.27185 5.24648 8.57322C5.82951 10.5224 7.95142 12.7671 10.291 13.9097C10.9336 14.2235 11.4501 14.4129 11.9356 14.5127C13.2958 14.7923 14.3078 14.3946 14.8077 13.3841C14.956 13.0845 14.9801 13.0017 14.9787 12.7978C14.9765 12.4796 14.8637 12.2418 14.5812 11.9598C14.304 11.6831 13.9209 11.4556 13.4563 11.2917C13.0198 11.1378 12.5386 11.0908 12.3576 11.1844C12.1995 11.2662 11.9888 11.5045 11.7705 11.8483C11.3915 12.4453 11.318 12.4632 10.6232 12.1274C9.52664 11.5975 8.64841 10.8357 7.96361 9.82067C7.6796 9.39964 7.63857 9.28953 7.70621 9.13024C7.73587 9.06039 7.86022 8.88175 7.98253 8.73337C8.39003 8.2389 8.46545 7.99666 8.37444 7.47475C8.22942 6.64298 7.72192 5.81816 7.18726 5.54532C7.00356 5.45159 6.71739 5.41438 6.53959 5.46109Z" fill="#D0D0DB"/>
</svg>
